<svg xmlns="http://www.w3.org/2000/svg" xmlns:xlink="http://www.w3.org/1999/xlink" width="140" height="140" viewBox="0 0 140 140"><defs><style>.a,.j{fill:none;}.b{fill:#dbf7e0;}.c{clip-path:url(#a);}.d{fill:#fff;}.e{fill:#b18149;}.f{fill:#9b6335;}.g{fill:#9b6035;}.h{fill:#2e833c;}.i{fill:#b18249;}.j{stroke:#000;stroke-linecap:round;}</style><clipPath id="a"><circle class="a" cx="70" cy="70" r="70" transform="translate(-0.001 0)"/></clipPath></defs><g transform="translate(0.001 0)"><circle class="b" cx="70" cy="70" r="70" transform="translate(-0.001 0)"/><g class="c"><g transform="translate(27.285 29.857)"><path class="d" d="M2019.035-318.4l30.268-.89-9.533,18.806h-15.924Z" transform="translate(-1989.095 414.713)"/><path class="e" d="M2052.729-334.842l-17.4,9.675,3.963,6.669a29.842,29.842,0,0,1-8.117,4.6,30.233,30.233,0,0,1-8.454-4.865l3.808-6.4-16.034-8.91-1.357-.756a16.849,16.849,0,0,0,2.068-4.792c.128-.392.255-.82.383-1.275,2.168-7.671-1.166-15.35-1.321-15.715l20.908,11.861,20.908-11.861c-.155.364-3.489,8.044-1.321,15.715.137.483.273.938.41,1.357a17.91,17.91,0,0,0,1.9,4.51Z" transform="translate(-1988.214 418.034)"/><path class="f" d="M2052.718-388.02a43.478,43.478,0,0,1-.263,4.846,41.4,41.4,0,0,1-4,14.048.037.037,0,0,1-.007.02.354.354,0,0,0-.031.07.236.236,0,0,0-.023.05,1.074,1.074,0,0,0-.046.1c-.108.24-.3.681-.582,1.282-2.389,5.327-10.765,23.23-18.11,25.5a12.713,12.713,0,0,1-9.478,0c-7.345-2.263-14.891-20.156-17.118-25.493-.256-.611-.441-1.051-.55-1.292-.015-.03-.031-.07-.046-.1a.263.263,0,0,0-.023-.05.326.326,0,0,0-.031-.07.036.036,0,0,1-.008-.02,41.62,41.62,0,0,1-4.01-14.188,44.894,44.894,0,0,1-.248-4.706c0-19.445,12.215-35.215,27.285-35.215S2052.718-407.465,2052.718-388.02Z" transform="translate(-1982.473 423.963)"/><path class="g" d="M2069.934-377.44a8.4,8.4,0,0,1-7.807,8.381c.328-.547.556-.948.683-1.166a.807.807,0,0,1,.055-.091.22.22,0,0,1,.027-.046.323.323,0,0,1,.037-.064.028.028,0,0,0,.009-.018,31.534,31.534,0,0,0,4.692-12.781A8.367,8.367,0,0,1,2069.934-377.44Z" transform="translate(-1992.93 420.402)"/><path class="h" d="M2076.168-316.822c-.3,6.823-34.719,14.685-34.719,14.685l.4-14.694-3.963-6.669,17.4-9.675.346-.191a17.9,17.9,0,0,1-1.9-4.509c1.885.355,4.591,1.066,5.794,2.35l1.8,6.086C2074.983-323.062,2076.468-323.654,2076.168-316.822Z" transform="translate(-1990.773 416.367)"/><path class="h" d="M2020.521-316.839l.4,14.695s-34.427-7.862-34.719-14.685,1.185-6.24,14.832-12.617l1.813-6.086h.009c1.312-1.4,4.418-2.123,6.3-2.432a16.865,16.865,0,0,1-2.068,4.792l1.357.756,16.033,8.91-3.808,6.4Z" transform="translate(-1986.17 416.375)"/><path class="i" d="M2062.245-391.195a30.715,30.715,0,0,1-.31,4.409A31.54,31.54,0,0,1,2057.244-374a.027.027,0,0,1-.01.018.313.313,0,0,0-.036.064.169.169,0,0,0-.028.046.681.681,0,0,0-.054.091c-.128.219-.355.62-.684,1.166-2.807,4.847-12.645,21.135-21.272,23.2a19,19,0,0,1-11.132,0c-8.627-2.059-17.491-18.339-20.106-23.194-.3-.556-.52-.957-.647-1.175-.019-.027-.037-.064-.054-.091a.267.267,0,0,0-.028-.046.3.3,0,0,0-.037-.064.029.029,0,0,1-.009-.018,31.663,31.663,0,0,1-4.71-12.909,31.674,31.674,0,0,1-.292-4.282,32.046,32.046,0,0,1,32.049-32.04A32.046,32.046,0,0,1,2062.245-391.195Z" transform="translate(-1987.237 423.963)"/><path class="g" d="M2003.714-369.062a8.4,8.4,0,0,1-7.907-8.39,8.376,8.376,0,0,1,2.423-5.912,31.669,31.669,0,0,0,4.71,12.909.028.028,0,0,0,.009.018.285.285,0,0,1,.036.064.218.218,0,0,1,.028.046c.018.027.036.064.054.091C2003.2-370.019,2003.414-369.618,2003.714-369.062Z" transform="translate(-1987.028 420.415)"/><path d="M2048.143-360.408c-3.316.173-4.709.364-6.823-1.831s-4.892-3.225-6.077-2.423-4.082.72-4.509.793c-.429-.073-3.334.018-4.51-.793s-3.962.228-6.077,2.423-3.507,2-6.823,1.831c-3.234-.164-8.865-7.252-9.138-7.607.228.538,7.625,17.783,10.212,20.8,2.615,3.061,6.878,6.678,16.334,6.341,9.456.337,13.719-3.28,16.334-6.341,2.587-3.015,9.985-20.261,10.212-20.8C2057.007-367.66,2051.377-360.572,2048.143-360.408Zm-13.574,9.465a1.923,1.923,0,0,1-2.086-.073,5.405,5.405,0,0,0-1.749-.209,5.408,5.408,0,0,0-1.75.209,1.923,1.923,0,0,1-2.086.073c-1.3-.5-5.01-2.669-5.739-4.783a8.514,8.514,0,0,1,6.277-2.788c2.6.191,1.958.82,3.3.82s.692-.629,3.3-.82a8.515,8.515,0,0,1,6.277,2.788C2039.579-353.612,2035.872-351.444,2034.569-350.943Z" transform="translate(-1987.774 419.049)"/><path d="M2060.765-381.681c.294-11.269-6.752-26.109-10.207-25.818s-19.952.6-19.952.6-16.508-.3-19.954-.6-10.5,14.549-10.207,25.818c.009.209.009.428.009.647-2.155-6.787-3.556-16.817,1.8-26.465,9.3-16.772,28.354-16.535,28.354-16.535s19.05-.237,28.354,16.535c5.352,9.648,3.952,19.678,1.8,26.465C2060.755-381.253,2060.755-381.472,2060.765-381.681Z" transform="translate(-1987.625 424.034)"/></g></g><path class="j" d="M4985.871,2770.63s2.747,2.055,7.374,0" transform="translate(-4919.607 -2676.748)"/></g></svg>