<svg xmlns="http://www.w3.org/2000/svg" width="140" height="140" viewBox="0 0 140 140"><defs><style>.a{fill:#ccf3ef;}.b{fill:#edcba4;}.c{fill:#fddba4;}.d{fill:#018b7c;}.e{fill:#ff2d55;}.f{fill:#d8a781;}.g{fill:none;stroke:#000;stroke-linecap:round;stroke-miterlimit:10;}</style></defs><circle class="a" cx="70" cy="70" r="70"/><g transform="translate(31.818 25.802)"><path d="M1822.625,50.075c.285-11.019-6.53-25.53-9.87-25.245s-19.295.588-19.295.588-15.963-.294-19.294-.588-10.155,14.226-9.87,25.245c.009.2.009.419.009.632-2.085-6.636-3.438-16.444,1.737-25.877,9-16.4,27.419-14.36,27.419-14.36s18.421-2.04,27.418,14.36c5.176,9.433,3.822,19.241,1.737,25.877C1822.615,50.493,1822.615,50.279,1822.625,50.075Z" transform="translate(-1754.592 -10.389)"/><path class="b" d="M1834.324,62.065a11.5,11.5,0,0,1-5.853,7.732c1.906-5.63,1.345-10.689,1.354-14.208,0-.169,0-.339.009-.5C1832.044,55.633,1835.428,57.264,1834.324,62.065Z" transform="translate(-1761.802 -15.271)"/><path class="c" d="M1813.808,108.768a23.356,23.356,0,0,1-37.716,0,3.822,3.822,0,0,0,.855-.659c1.033-.98,2.761-3.269,3.644-8.044a25.307,25.307,0,0,0-.846-10.565c6.752,5.879,9.611,6.7,15.206,6.939,5.585-.241,8.444-1.06,15.206-6.939a25.311,25.311,0,0,0-.846,10.565c.882,4.775,2.61,7.064,3.644,8.044A3.812,3.812,0,0,0,1813.808,108.768Z" transform="translate(-1756.082 -19.029)"/><path class="b" d="M1765.336,69.966a11.528,11.528,0,0,1-6.191-7.91c-1.149-5.006,2.583-6.565,4.765-7.046.009.187.009.374.009.57C1763.929,59.143,1763.359,64.265,1765.336,69.966Z" transform="translate(-1754.208 -15.262)"/><path class="d" d="M1787.346,135.176s-25.026-1.035-38.868-12.042a77.311,77.311,0,0,1,18.629-12.838,2.973,2.973,0,0,1,2.236.062,3.813,3.813,0,0,1-.855.659,23.357,23.357,0,0,0,37.716,0,3.822,3.822,0,0,1-.855-.659,2.973,2.973,0,0,1,2.236-.062,75.705,75.705,0,0,1,19.3,12.838C1810.733,136.48,1787.346,135.176,1787.346,135.176Z" transform="translate(-1748.478 -21.279)"/><circle class="e" cx="2.546" cy="2.546" r="2.546" transform="translate(65.547 51.076)"/><circle class="e" cx="2.546" cy="2.546" r="2.546" transform="translate(6.806 51.076)"/><path class="f" d="M1813.982,68.728a30.051,30.051,0,0,1-6.507,11.852c-1.686,1.929-3.141,3.548-4.433,4.906-5.872,6.179-8.355,7.04-13.206,7.293-4.859-.253-7.342-1.114-13.207-7.293-1.292-1.357-2.747-2.977-4.433-4.906a30.1,30.1,0,0,1-6.452-11.665c-1.718-5.992-1.222-11.375-1.23-15.119,0-.206,0-.4-.008-.6v-.066c-.248-11.581,5.671-26.831,8.572-26.531s16.758.618,16.758.618,13.856-.309,16.758-.618,8.819,14.951,8.572,26.531v.14c-.008.169-.008.346-.008.524C1815.151,57.494,1815.638,62.811,1813.982,68.728Z" transform="translate(-1750.968 -12.159)"/><path class="c" d="M1821.48,66.685a27.526,27.526,0,0,1-7.492,11.277c-1.942,1.835-3.616,3.376-5.1,4.668-6.761,5.879-9.621,6.7-15.206,6.939-5.594-.241-8.454-1.06-15.206-6.939-1.488-1.292-3.162-2.833-5.1-4.668a27.615,27.615,0,0,1-7.429-11.1c-1.978-5.7-1.407-10.823-1.416-14.386,0-.2,0-.383-.009-.57v-.062c-.285-11.019,6.53-25.53,9.87-25.245s19.294.588,19.294.588,15.954-.294,19.295-.588,10.155,14.226,9.87,25.245v.134c-.009.16-.009.33-.009.5C1822.825,56,1823.387,61.055,1821.48,66.685Z" transform="translate(-1754.811 -12.159)"/></g><path class="g" d="M79.16,92.1a9.346,9.346,0,0,0,8.6,0" transform="translate(-12.342 -0.737)"/></svg>