<svg xmlns="http://www.w3.org/2000/svg" xmlns:xlink="http://www.w3.org/1999/xlink" width="139.828" height="140.042" viewBox="0 0 139.828 140.042"><defs><style>.a,.h{fill:none;}.b{fill:#ffc9c9;}.c{clip-path:url(#a);}.d{fill:#e96136;}.e{fill:#ca775e;}.f{fill:#3e3c96;}.g{fill:#f8b89e;}.h{stroke:#000;stroke-linecap:round;stroke-miterlimit:10;}</style><clipPath id="a"><circle class="a" cx="69.914" cy="69.914" r="69.914"/></clipPath></defs><g transform="translate(0)"><g transform="translate(0)"><ellipse class="b" cx="69.545" cy="69.546" rx="69.545" ry="69.546" transform="translate(0)"/><g transform="translate(0 0.214)"><g class="c"><g transform="translate(30.44 15.929)"><path class="d" d="M1687.336-477.473c0,.237-.009.465-.018.694a39.337,39.337,0,0,0-15.351-3.815,38.3,38.3,0,0,0-17.277,4.846,15.438,15.438,0,0,1-.091-1.725,16.367,16.367,0,0,1,16.364-16.364A16.369,16.369,0,0,1,1687.336-477.473Z" transform="translate(-1633.226 493.838)"/><path class="e" d="M1709.1-428.682a6.022,6.022,0,0,1-6.024,6.015,5.6,5.6,0,0,1-.885-.064,55.855,55.855,0,0,0,1.323-11.956A6.021,6.021,0,0,1,1709.1-428.682Z" transform="translate(-1637.382 488.673)"/><path class="e" d="M1644.409-422.806a5.9,5.9,0,0,1-1.278.137,6.022,6.022,0,0,1-6.024-6.015,6.024,6.024,0,0,1,6.024-6.024A56.926,56.926,0,0,0,1644.409-422.806Z" transform="translate(-1631.699 488.675)"/><path class="f" d="M1678.029-356.108a31.074,31.074,0,0,1-14.318,0c-12.3-2.91-35.794-9.4-32.15-15.8,4.91-8.625,24.433-17.816,24.433-17.816l14.876,1.761,14.877-1.761s19.522,9.191,24.432,17.816C1713.823-365.508,1690.329-359.018,1678.029-356.108Z" transform="translate(-1631.182 484.748)"/><path class="g" d="M1689.207-381.678c-2.474,4.125-16.155,17.177-16.155,17.177s-13.681-13.051-16.154-17.177,2.126-9.583,2.592-13.371-1.533-10.259-1.533-10.259l15.1.557,15.1-.557s-2.008,6.462-1.533,10.259S1691.68-385.8,1689.207-381.678Z" transform="translate(-1633.364 486.108)"/><path class="e" d="M1688.374-435.7a72.27,72.27,0,0,1-1.081,12.337c-1.558,8.7-5.18,17.621-13.043,22.349a15.561,15.561,0,0,1-16.487-.009c-7.87-4.737-11.47-13.684-13.013-22.415a73.71,73.71,0,0,1-1.043-12.281,78.892,78.892,0,0,1,.634-10.849l21.719-5.528,21.711,5.528A79.491,79.491,0,0,1,1688.374-435.7Z" transform="translate(-1627.26 490.193)"/><path class="d" d="M1702.249-437.417s-4.792,3.085-4.418,8.808c2.829,9.145-1.022,11.043-2.272,13.38s-1.36,4.125-1.25,8.7c-2.611-2.9-2.82-8.807-2.6-10.149s3.286-2,2.456-5.567-.977-6.133-.3-7.922.229-7.8-1.469-9.921-2.264-7.913-2.264-7.913H1650.71s-.566,5.8-2.263,7.913-2.154,8.141-1.469,9.921.52,4.354-.31,7.922,2.236,4.235,2.455,5.567.019,7.247-2.592,10.149c.1-4.573-.009-6.352-1.26-8.7s-5.093-4.235-2.263-13.38c.366-5.723-4.417-8.808-4.417-8.808s-2.145-2.227-1.7-6.909,1.25-7.247,1.7-11.929c.319-3.24,4.426-12.458,14.548-18.226a38.3,38.3,0,0,1,17.277-4.846,39.339,39.339,0,0,1,15.351,3.815c11.536,5.641,16.145,15.817,16.483,19.258.447,4.682,1.241,7.247,1.7,11.929S1702.249-437.417,1702.249-437.417Z" transform="translate(-1631.675 492.571)"/><path class="g" d="M1698.4-436.208a55.873,55.873,0,0,1-1.323,11.956c-1.908,8.433-6.344,17.076-15.972,21.658a23.4,23.4,0,0,1-20.189-.009c-9.638-4.591-14.047-13.261-15.935-21.722a56.959,56.959,0,0,1-1.278-11.9,60.848,60.848,0,0,1,.776-10.514l26.6-5.357,26.587,5.357A61.273,61.273,0,0,1,1698.4-436.208Z" transform="translate(-1632.275 490.194)"/></g></g></g></g><path class="h" d="M79.16,92.1a9.285,9.285,0,0,0,8.542,0" transform="translate(-14.884 0.777)"/></g></svg>