<svg xmlns="http://www.w3.org/2000/svg" width="140" height="140.042" viewBox="0 0 140 140.042"><defs><style>.a{fill:#def4fe;}.b{fill:#9b6135;}.c{fill:#b17d49;}.d{fill:#9b6235;}.e{fill:#48a0c8;}.f{fill:#fff;}.g{fill:none;stroke:#000;stroke-linecap:round;stroke-miterlimit:10;}</style></defs><ellipse class="a" cx="70" cy="70" rx="70" ry="70"/><g transform="translate(29.023 26.347)"><path d="M1436.9,85.572s-7.2-6.95-3.671-18.145,13.024-31.036-8.091-49.034-40.248-9.787-44.925-7.3-17.248,10.758-11.388,33.379c-2.359,1.559-8.594,8.808-6.043,17.867s9.922,13.878,11.018,17.421c.745,2.409-.476,6.094-2.488,7.086C1377.237,86.843,1436.9,85.572,1436.9,85.572Z" transform="translate(-1358.197 -7.057)"/><path class="b" d="M1438.956,61.9a11.231,11.231,0,0,1-5.717,7.553c1.862-5.5,1.313-10.442,1.322-13.879,0-.165,0-.331.009-.487C1436.729,55.621,1440.035,57.213,1438.956,61.9Z" transform="translate(-1367.425 -13.294)"/><path class="c" d="M1421.481,103.11a22.815,22.815,0,0,1-36.842,0,3.732,3.732,0,0,0,.836-.644c1.009-.957,2.7-3.193,3.558-7.857a24.721,24.721,0,0,0-.826-10.32c6.6,5.743,9.389,6.543,14.853,6.778,5.456-.235,8.249-1.035,14.853-6.778a24.731,24.731,0,0,0-.827,10.32c.862,4.664,2.55,6.9,3.559,7.857A3.733,3.733,0,0,0,1421.481,103.11Z" transform="translate(-1361.114 -17.086)"/><path class="d" d="M1419.647,67.522a30.445,30.445,0,0,1-5.633,11.513c-1.461,1.873-2.721,3.447-3.839,4.765-5.084,6-7.235,6.839-11.435,7.084-4.206-.246-6.357-1.082-11.435-7.084-1.119-1.319-2.378-2.892-3.838-4.765a30.465,30.465,0,0,1-5.588-11.331c-1.486-5.82-1.057-11.049-1.064-14.687,0-.2,0-.391-.007-.582v-.064c-.215-11.249,4.91-26.063,7.422-25.772s14.51.6,14.51.6,12-.3,14.51-.6,7.637,14.523,7.423,25.772v.136c-.007.164-.007.336-.007.509C1420.658,56.609,1421.081,61.775,1419.647,67.522Z" transform="translate(-1356.792 -9.594)"/><path class="b" d="M1377.82,69.62a11.26,11.26,0,0,1-6.047-7.727c-1.123-4.89,2.523-6.413,4.655-6.883.008.183.008.365.008.557C1376.445,59.047,1375.888,64.051,1377.82,69.62Z" transform="translate(-1359.416 -13.285)"/><path class="e" d="M1397.01,133.45s-19.339.719-41.947-13.238c8.083-7.535,20.724-14.53,22.177-15.13a2.9,2.9,0,0,1,2.184.061,3.728,3.728,0,0,1-.835.644,22.815,22.815,0,0,0,36.842,0,3.731,3.731,0,0,1-.835-.644,2.9,2.9,0,0,1,2.183-.061c1.453.6,11.8,7.012,19.887,14.546C1426.1,131.849,1397.01,133.45,1397.01,133.45Z" transform="translate(-1355.063 -19.762)"/><ellipse class="f" cx="2.487" cy="2.487" rx="2.487" ry="2.487" transform="translate(66.769 52.792)"/><ellipse class="f" cx="2.487" cy="2.487" rx="2.487" ry="2.487" transform="translate(12.364 52.792)"/><path d="M1374.67,34.263s4.9,4.11,16.945,3.542,28.093-1.558,28.572,5.669,2.169,10.047,10.111,10.55,4.554-9.881,4.554-9.881l-11.634-22.919-45.767.92Z" transform="translate(-1359.819 -8.897)"/><path class="c" d="M1426.083,65.756a27.425,27.425,0,0,1-6.479,11.016c-1.68,1.793-3.129,3.3-4.416,4.56-5.847,5.743-8.32,6.543-13.151,6.778-4.838-.235-7.311-1.035-13.151-6.778-1.286-1.262-2.735-2.767-4.414-4.56a27.485,27.485,0,0,1-6.426-10.842c-1.71-5.569-1.217-10.572-1.224-14.053,0-.191,0-.374-.008-.557v-.061c-.247-10.764,5.647-24.938,8.536-24.66s16.688.574,16.688.574,13.8-.287,16.687-.574,8.783,13.9,8.537,24.66v.131c-.008.157-.008.322-.008.487C1427.246,55.314,1427.732,60.256,1426.083,65.756Z" transform="translate(-1360.09 -9.594)"/><path class="c" d="M1426.083,65.756a27.425,27.425,0,0,1-6.479,11.016c-1.68,1.793-3.129,3.3-4.416,4.56-5.847,5.743-8.32,6.543-13.151,6.778-4.838-.235-7.311-1.035-13.151-6.778-1.286-1.262-2.735-2.767-4.414-4.56a27.485,27.485,0,0,1-6.426-10.842c-1.71-5.569-1.217-10.572-1.224-14.053,0-.191,0-.374-.008-.557v-.061c-.247-10.764,5.647-24.938,8.536-24.66s16.688.574,16.688.574,13.8-.287,16.687-.574,8.783,13.9,8.537,24.66v.131c-.008.157-.008.322-.008.487C1427.246,55.314,1427.732,60.256,1426.083,65.756Z" transform="translate(-1360.09 -9.594)"/></g><path class="g" d="M79.16,92.1a9.346,9.346,0,0,0,8.6,0" transform="translate(-13.259 -0.737)"/></svg>