<svg xmlns="http://www.w3.org/2000/svg" width="140" height="140" viewBox="0 0 140 140"><defs><style>.a{fill:#928dca;}.b{fill:#ff8d00;}.c{fill:#9b6035;}.d{fill:#e09c53;}.e{fill:#e8c199;}.f{fill:#f9b99f;}.g{fill:none;stroke:#000;stroke-linecap:round;stroke-miterlimit:10;}</style></defs><g transform="translate(0.129 0.128)"><circle class="a" cx="70" cy="70" r="70" transform="translate(-0.129 -0.128)"/><g transform="translate(26.609 26.299)"><path class="b" d="M1443.746-70.628S1425.214-55.19,1399.774-55.3a70.666,70.666,0,0,1-42.546-14.9s14.735-6.909,18.437-11.243,6.872-2.3,6.872-2.3l17.237,2.571L1417-83.756s3.17-2.03,6.872,2.3S1443.746-70.628,1443.746-70.628Z" transform="translate(-1357.227 168.877)"/><path class="c" d="M1406-93.6" transform="translate(-1362.644 170.451)"/><g transform="translate(8.429)"><path class="d" d="M1390.627-90.01a14.893,14.893,0,0,1-1.78.732Z" transform="translate(-1368.19 169.848)"/><path class="d" d="M1368.393-152.59a.527.527,0,0,0-.066.083" transform="translate(-1364.742 180.366)"/><g transform="translate(0)"><path class="d" d="M1418.207-90.01a14.2,14.2,0,0,0,4.359,1.339Z" transform="translate(-1373.124 169.848)"/><path class="d" d="M1428.833-150.535a11.027,11.027,0,0,0,.374-1.306Zm-60,1.547-.507-3.5C1368.46-151.384,1368.627-150.219,1368.834-148.988Z" transform="translate(-1364.742 180.349)"/><path class="d" d="M1422.868-119.758a21.02,21.02,0,0,1,.607,3.27c0,6.464-4.318,11.705-9.65,11.705-.117,0-.233-.008-.366-.017a20.931,20.931,0,0,1-1.206-2.7c-2.987-7.995,2.846-16.53,2.846-16.53h-32.37s5.823,8.536,2.845,16.53c-.291.774-.59,1.464-.9,2.088a10.236,10.236,0,0,1-2.945.624c-5.333,0-9.651-5.241-9.651-11.705a21.049,21.049,0,0,1,.607-3.27c-5.416-.815-8.669-3.752-8.669-9.958,0-4.418,3.253-5.557,3.985-11.023-.732-4.018-3.311-5.532-3.311-9.226a12.357,12.357,0,0,1,2.912-8.153c.133,1.106.3,2.271.507,3.5l-.507-3.5c-1.065-8.852.266-14.026,6.439-20.174,6.938-6.913,16.43-4.576,16.43-4.576a26.109,26.109,0,0,1,28.278,2.338c11.789,8.7,10.59,19.376,9.733,23.061l-.374,1.306a10.977,10.977,0,0,0,.374-1.306,12.589,12.589,0,0,1,2.38,7.5c0,3.694-2.579,5.208-3.312,9.226.732,5.466,3.985,6.605,3.985,11.023C1431.536-123.51,1428.283-120.573,1422.868-119.758Z" transform="translate(-1364.017 185.978)"/><path class="d" d="M1441.386-151.858c-.191-.258-.391-.5-.6-.732" transform="translate(-1376.919 180.366)"/></g><path class="d" d="M1441.431-151.71a11.032,11.032,0,0,1-.375,1.306Z" transform="translate(-1376.965 180.218)"/><path class="d" d="M1368.834-148.988c-.208-1.231-.374-2.4-.507-3.5Z" transform="translate(-1364.742 180.349)"/></g><path class="e" d="M1439.737-131.454c0,3.469-2.288,6.273-5.108,6.273a3.976,3.976,0,0,1-.632-.05,32.6,32.6,0,0,0,1.989-10.823c0-.491-.017-.973-.042-1.456C1438.132-136.8,1439.737-134.357,1439.737-131.454Z" transform="translate(-1367.349 177.831)"/><path class="e" d="M1369.224-131.454c0,3.469,2.288,6.273,5.108,6.273a3.969,3.969,0,0,0,.632-.05,32.6,32.6,0,0,1-1.988-10.823c0-.491.016-.973.042-1.456C1370.829-136.8,1369.224-134.357,1369.224-131.454Z" transform="translate(-1356.463 177.831)"/><path class="c" d="M1405.95-65.125l-.034.025v-.05Z" transform="translate(-1362.63 165.67)"/><path class="f" d="M1422.44-86.26l-7.629,4.517a25.553,25.553,0,0,1-26,.017l-7.687-4.534s3.536.333,6.423-5.5c.308-.624.608-1.314.9-2.088a15.654,15.654,0,0,0,.349-9.026,20.321,20.321,0,0,0,12.055,4.251c5.333,0,10.308-2.388,14.459-6.148a16.553,16.553,0,0,0-.183,10.923,20.829,20.829,0,0,0,1.206,2.7C1419.154-85.952,1422.44-86.26,1422.44-86.26Z" transform="translate(-1358.463 172.329)"/><path class="e" d="M1415.614-139.489a44.085,44.085,0,0,1-1.6,11.418,41.916,41.916,0,0,1-7.879,15.78c-3.338,3.967-7.338,6.486-11.625,6.486-3.5,0-6.8-1.694-9.692-4.485-6.655-6.407-11.163-18.6-11.163-29.2.348-6.846,2.883-13.937,6.515-17.456s5.665-9.294,5.665-9.294,13.658,18.668,29.758,25.671Q1415.614-140.029,1415.614-139.489Z" transform="translate(-1351.638 182.66)"/><path class="f" d="M1425.844-140.883a32.606,32.606,0,0,1-1.988,10.823,37.228,37.228,0,0,1-9.8,14.958c-4.151,3.76-9.126,6.148-14.459,6.148a20.323,20.323,0,0,1-12.055-4.251c-8.277-6.073-13.885-17.628-13.885-27.678.432-6.489,3.586-13.211,8.1-16.547a25.942,25.942,0,0,0,7.046-8.81s16.988,17.7,37.013,24.334Q1425.843-141.394,1425.844-140.883Z" transform="translate(-1357.208 182.66)"/></g><path class="g" d="M79.16,92.1a9.329,9.329,0,0,0,8.582,0" transform="translate(-14.583 -3.022)"/></g></svg>