<svg xmlns="http://www.w3.org/2000/svg" xmlns:xlink="http://www.w3.org/1999/xlink" width="842.783" height="417.593" viewBox="0 0 842.783 417.593"><defs><style>.a{fill:none;}.b{fill:#699cfc;}.c{fill:#003057;}.d{fill:#065bfa;}.e{fill:#173d7a;}.f{fill:#0a51d6;}.g{fill:#9bbdfd;}.h{fill:#fff;}.i{fill:#5793ce;}.j{clip-path:url(#a);}.k{fill:#d4ecff;}.l{fill:#ffc02f;}</style><clipPath id="a"><ellipse class="a" cx="78.784" cy="136.458" rx="78.784" ry="136.458" transform="translate(136.456 315.136) rotate(-149.998)"/></clipPath></defs><g transform="translate(11.803 -1925.5)"><g transform="translate(-11.803 2165.789)"><path class="b" d="M477.074,479.3l96.013-55.434L425.533,338.671,329.52,394.1Zm88.446-55.434-88.446,51.063L337.086,394.1l88.446-51.063Z" transform="translate(10.719 -317.933)"/><path class="b" d="M388.252,355.715a16.98,16.98,0,0,0,15.375,0c4.245-2.45,4.245-6.424,0-8.874a16.979,16.979,0,0,0-15.375,0C384.008,349.291,384.008,353.265,388.252,355.715Z" transform="translate(-2.315 -303.83)"/><path class="b" d="M444.409,485.13,703.787,336.616l77.03,44.715,1.9-3.272L703.8,332.247l-.946.542L444.415,480.767,390.034,449.38l-1.891,3.278Z" transform="translate(-388.143 -332.247)"/></g><g transform="translate(332.688 1925.5)"><g transform="translate(93.494 166.418)"><path class="c" d="M387.052,467.612l-.041-18.234L365.449,340.719l21.3-13.159,42.678,23.555.306,140.052c.018,9.426-3.516,15.8-8.938,17.876v.006L401.817,520.98l-2.387-9.02-3.258-16.429C390.675,487.434,387.07,477.085,387.052,467.612Z" transform="translate(-365.449 -327.56)"/><path class="d" d="M390.776,509.641h0c11.784,6.5,21.309-.765,21.274-16.235l-.306-140.052L369.072,329.8l.3,140.052C369.407,485.321,378.986,503.132,390.776,509.641Z" transform="translate(-369.072 -316.638)"/></g><g transform="translate(0 0)"><path class="e" d="M373.322,403.417c0,35.545,24.956,49.952,55.744,32.182s55.737-61,55.737-96.546-24.955-49.957-55.737-32.182S373.322,367.872,373.322,403.417Z" transform="translate(-373.322 -299.258)"/><path class="e" d="M347.18,435.568,509.4,528.586l87.2-130.991L427.6,300Z" transform="translate(-331.4 -295.649)"/></g><path class="f" d="M326.3,413.943c0-36.562,25.673-81.016,57.337-99.3,14.389-8.309,27.525-9.761,37.592-5.462l.018-.024.206.1.259.123c.441.2.876.418,1.306.641a401.685,401.685,0,0,0,192.8,40.89l18.887-.735L480.918,613.708l-8.326-16.1a401.615,401.615,0,0,0-129.216-146.4C332.839,445.284,326.3,432.383,326.3,413.943Z" transform="translate(-246.724 -262.314)"/><path class="g" d="M318.1,519.445c0-70.132,49.24-155.417,109.981-190.486,30.289-17.488,57.719-19.181,77.606-7.791v-.006l.106.065.153.088,18.04,10.572-6.3-1.317c12.83,13.365,20.374,34.428,20.374,61.882,0,70.138-49.24,155.417-109.976,190.486-23.838,13.766-45.9,17.746-63.917,13.266l2.858,4.2L350.407,590.7l-.265-.153-.594-.347h.024C330.1,578.528,318.1,554.078,318.1,519.445Z" transform="translate(-101.837 -227.605)"/><path class="h" d="M318.1,520.719c0-70.132,49.24-155.417,109.982-190.486,29.882-17.252,56.973-19.128,76.794-8.238l2.764,1.617c.941.6,1.864,1.235,2.769,1.893l-5.6-1.17c12.831,13.365,20.375,34.428,20.375,61.882,0,70.138-49.24,155.417-109.976,190.486-23.838,13.766-45.9,17.746-63.917,13.266l2.6,3.834C331.9,583.284,318.1,557.846,318.1,520.719Z" transform="translate(-88.965 -221.37)"/><ellipse class="i" cx="89.797" cy="155.533" rx="89.797" ry="155.533" transform="translate(342.752 417.593) rotate(-149.999)"/><ellipse class="e" cx="78.784" cy="136.458" rx="78.784" ry="136.458" transform="translate(342.752 395.567) rotate(-149.998)"/><path class="h" d="M378.621,550.077c53.291-30.765,96.487-105.595,96.487-167.124,0-32.311-11.913-54.526-30.947-63.887,21.639,7.938,35.457,31.023,35.457,65.816,0,61.535-43.2,136.36-96.493,167.124-25.308,14.612-48.335,16.653-65.546,8.185C334.209,566.295,355.459,563.449,378.621,550.077Z" transform="translate(-40.368 -202.594)"/><g transform="translate(206.297 80.431)"><g class="j" transform="translate(0 0)"><g transform="translate(-39.943 26.248)"><path class="k" d="M522.379,425.653,382.374,317.4l-50.84,88.2,164.328,67.429Z" transform="translate(-331.534 -317.401)"/><ellipse class="i" cx="15.733" cy="27.25" rx="15.733" ry="27.25" transform="translate(176.402 162.786) rotate(-149.999)"/></g></g></g><g transform="translate(141.711 266.125)"><path class="l" d="M371.365,375.52l.759-.325c2.8-1.2,5.08-4.423,5.086-7.205l.082-20.155c.012-2.782-2.252-4.068-5.051-2.87l-.759.325c-2.8,1.2-5.08,4.428-5.092,7.21l-.076,20.155C366.3,375.437,368.566,376.718,371.365,375.52Z" transform="translate(-366.314 -344.517)"/></g></g></g></svg>