<svg xmlns="http://www.w3.org/2000/svg" width="60.422" height="83.975" viewBox="0 0 60.422 83.975"><defs><style>.a{fill:none;stroke:#065bfa;stroke-linecap:round;stroke-linejoin:round;stroke-width:3px;}</style></defs><g transform="translate(-953.734 1.85)"><path class="a" d="M984.124,56.069a27.96,27.96,0,1,0-27.886-28.033v.03a27.888,27.888,0,0,0,27.773,28Zm13.264-39.548c.4.688,1.086.727,1.768.779.6.046,1.211.059,1.8.156a2.7,2.7,0,0,1,1,.4.724.724,0,0,1-.105,1.278,1.659,1.659,0,0,1-.99.151,11.431,11.431,0,0,0-3.423-.307,1.276,1.276,0,0,1-1.243-.711c-.191-.344-.348-.711-.531-1.092.759.132,1.062.017,1.72-.656ZM998.48,4.095c-1.461,1.735-3.492,1.131-5.525,2.235-.372.2-.807.279-1.175.483a1.644,1.644,0,0,0-.8,2.181l.019.04c.086.224.177.446.269.676a9.593,9.593,0,0,1-1.009.913,2.229,2.229,0,0,1-.893.312,7.726,7.726,0,0,1-1.032.018A3.212,3.212,0,0,0,985.15,14a4.653,4.653,0,0,0,.009.851,1.944,1.944,0,0,0,1.216,1.742,1.053,1.053,0,0,1,.158.086.088.088,0,0,1,.028.038c-.367.556-.7,1.131-1.106,1.654a6.008,6.008,0,0,1-.921.875,6.128,6.128,0,0,0-1.795,2.267,5.817,5.817,0,0,0-.437,1.442c-.144,1.021-.217,2.051-.307,3.079a4.278,4.278,0,0,0,.92,2.767A8.415,8.415,0,0,0,986,31.575a2.834,2.834,0,0,0,2.235.236c.813-.245,1.6-.552,2.407-.827a1.557,1.557,0,0,1,1.056-.124l1.466,2.124a8.051,8.051,0,0,0,1.006,3.067c.067.124.118.258.183.384a2.681,2.681,0,0,1,.04,2.29c-.132.339-.258.679-.385,1.022a2.074,2.074,0,0,0-.021,1.367c.5,1.58.991,3.163,1.49,4.745a3.953,3.953,0,0,0,.224.563,1.3,1.3,0,0,0,1.4.725,3.13,3.13,0,0,0,1.327-.571,13.521,13.521,0,0,0,2.807-2.759,28.046,28.046,0,0,0,2.382-3.806c.276-.472.516-.962.8-1.43a4.1,4.1,0,0,0,.516-2.923,3.032,3.032,0,0,1,.5-2.142c.481-.795,1.026-1.554,1.547-2.321a5.874,5.874,0,0,1,.369-.484,2.407,2.407,0,0,0,.3-2.778,3.641,3.641,0,0,1-.242-.555,7.025,7.025,0,0,1-.131-.716,2.443,2.443,0,0,0,1.576-1.125,18.266,18.266,0,0,0,2.21-5.189m-38.565,32.92a13.219,13.219,0,0,1-1.531-4.57,2.805,2.805,0,0,1,.289-1.347,3.874,3.874,0,0,0,.413-2.056,1.975,1.975,0,0,1,.98-1.891,4.042,4.042,0,0,1,.8-.43,1.512,1.512,0,0,0,1.009-1.51,5.2,5.2,0,0,0-.065-.845,3.37,3.37,0,0,1,.42-2.337,5.49,5.49,0,0,0,.546-1.145,1.763,1.763,0,0,0-.808-2.193,19.8,19.8,0,0,0-1.865-.878c-.76-.334-1.527-.649-2.292-.968a1.511,1.511,0,0,1-1.052-1.151,1.763,1.763,0,0,0-.435-.714,5.356,5.356,0,0,0-1.633-1.244,7.459,7.459,0,0,1-1.928-1.462,5.036,5.036,0,0,0-1.621-1.158,2.378,2.378,0,0,0-1.711-.137c-1.058.307-1.089.289-1.658-.644a5.836,5.836,0,0,1-.979-3.326,1.7,1.7,0,0,1,.82-1.521c.588-.36,1.133-.785,1.711-1.159a3.659,3.659,0,0,0,1.314-1.479,3.42,3.42,0,0,0,.238-.491c.51-1.648,1.891-2.465,3.2-3.333a3.1,3.1,0,0,1,1.08-.378.917.917,0,0,0,.782-.742c.086-.373.155-.751.248-1.123a1.847,1.847,0,0,1,.19-.36c.144.073.284.154.42.241s.24.219.369.316a1.026,1.026,0,0,0,1.441.019,1.615,1.615,0,0,0,.788-2.086,16.3,16.3,0,0,0-.558-1.667.975.975,0,0,1,.37-1.281,5.669,5.669,0,0,1,.561-.358,3.494,3.494,0,0,0,.465-.283.677.677,0,0,0-.124-1.193c-.157-.086-.334-.143-.5-.224-.138-.072-.267-.159-.508-.3a11.065,11.065,0,0,1,4.076-.816c-.239.754-.475,1.4-.645,2.063a2.713,2.713,0,0,0-.066,1.069.688.688,0,0,0,.721.652.7.7,0,0,0,.151-.025,2.851,2.851,0,0,0,.96-.338c.457-.258.879-.578,1.313-.876a6.13,6.13,0,0,1,2.455-1.148c.5-.08,1-.131,1.506-.172a5.627,5.627,0,0,0,3.794-1.817c.288-.311.621-.581.9-.9.22-.252,1.769-1.836,1.769-3.023m6.733,15.5v.6l-.322-.273a2.49,2.49,0,0,0-1.648-.662,7.746,7.746,0,0,0-2.986.354,2.138,2.138,0,0,1-.43.032c.521-.591.945-1.1,1.4-1.58a.878.878,0,0,1,1.118-.121c.935.527,1.874,1.073,2.864,1.643ZM956.33,25.889c.043-.017,2.219,2.053,2.262,2.036.382.637.784,1.266,1.136,1.921a1.5,1.5,0,0,1,.138.755,18.824,18.824,0,0,0,.267,3.563,7.325,7.325,0,0,0,1.3,3.107,20.716,20.716,0,0,0,1.531,2.034,3.249,3.249,0,0,1,.8,1.911c.086.843.234,1.68.361,2.517.024.156.077,3.778.064,3.948"/><path class="a" d="M998.493,77.517c-3.8.7-7.549,1.126-11.14,2.125a12.252,12.252,0,0,1-10.8-1.931c-4.1-2.726-8.507-5-12.789-7.454a2.769,2.769,0,0,1-1.636-3.016,2.643,2.643,0,0,1,3.732-1.986c2.32.882,4.59,1.9,6.924,2.749a16.984,16.984,0,0,0,3.995.836c2.038.119,4.088.078,6.129,0a.838.838,0,0,0,.111-.013.8.8,0,0,0,.125-1.5.874.874,0,0,0-.274-.076c-1.224-.123-2.469-.014-3.7-.056a2.371,2.371,0,0,1-2.457-2.282c0-.036,0-.073,0-.109a2.3,2.3,0,0,1,2.355-2.483c4.591-.063,9.2-.265,13.767.08,1.843.139,3.6,1.54,5.368,2.416.182.091.277.518.277.789C998.5,69.518,998.493,73.43,998.493,77.517Z"/><path class="a" d="M1000.155,62.4h6.094a1.658,1.658,0,0,1,1.662,1.655V77.849a1.658,1.658,0,0,1-1.662,1.655h-6.094a1.658,1.658,0,0,1-1.661-1.655V64.056A1.658,1.658,0,0,1,1000.155,62.4Z"/></g></svg>
