<svg xmlns="http://www.w3.org/2000/svg" width="105.946" height="104.722" viewBox="0 0 105.946 104.722"><defs><style>.a,.b,.c{fill:none;stroke-linejoin:round;}.a,.c{stroke:#065bfa;}.a{stroke-linecap:round;stroke-width:5px;}.c{stroke-width:6px;}.d,.e{stroke:none;}.e{fill:#065bfa;}</style></defs><g transform="translate(-1460.023 -1097.96)"><g transform="translate(1490.213 1100.46)"><path class="a" d="M630.162,929.471A32.521,32.521,0,1,0,597.726,896.9,32.438,32.438,0,0,0,630.162,929.471Zm15.428-46c.465.8,1.264.845,2.057.906.7.054,1.409.069,2.1.182a3.147,3.147,0,0,1,1.162.463.842.842,0,0,1-.123,1.487,1.933,1.933,0,0,1-1.151.176,13.28,13.28,0,0,0-3.982-.357,1.484,1.484,0,0,1-1.445-.827c-.223-.4-.405-.828-.618-1.271C644.473,884.384,644.825,884.25,645.59,883.467Zm1.271-14.454c-1.7,2.019-4.062,1.316-6.427,2.6-.432.235-.938.325-1.367.562a1.911,1.911,0,0,0-.911,2.583c.1.261.206.519.313.787a11.439,11.439,0,0,1-1.174,1.062,2.594,2.594,0,0,1-1.039.362,8.7,8.7,0,0,1-1.2.021,3.737,3.737,0,0,0-3.7,3.546,5.469,5.469,0,0,0,.01.989,2.26,2.26,0,0,0,1.415,2.027,1.16,1.16,0,0,1,.184.1.109.109,0,0,1,.032.044c-.427.647-.819,1.316-1.286,1.924a7.066,7.066,0,0,1-1.072,1.018,7.138,7.138,0,0,0-2.088,2.636,6.813,6.813,0,0,0-.508,1.678c-.167,1.188-.252,2.386-.357,3.581a4.98,4.98,0,0,0,1.07,3.219,9.776,9.776,0,0,0,3.593,3.225,3.3,3.3,0,0,0,2.6.275c.945-.285,1.867-.642,2.8-.962a1.805,1.805,0,0,1,1.228-.145c.53.769,1.089,1.578,1.705,2.471a9.365,9.365,0,0,0,1.17,3.567c.078.145.138.3.213.447a3.119,3.119,0,0,1,.047,2.664c-.154.394-.3.79-.448,1.188a2.41,2.41,0,0,0-.025,1.59c.584,1.838,1.153,3.68,1.733,5.52a4.62,4.62,0,0,0,.261.654,1.512,1.512,0,0,0,1.629.844,3.642,3.642,0,0,0,1.543-.664,15.75,15.75,0,0,0,3.265-3.209,32.7,32.7,0,0,0,2.771-4.427c.32-.549.6-1.119.931-1.664a4.765,4.765,0,0,0,.6-3.4,3.532,3.532,0,0,1,.582-2.491c.56-.925,1.193-1.808,1.8-2.7.133-.2.278-.38.429-.563a2.8,2.8,0,0,0,.353-3.231,4.114,4.114,0,0,1-.281-.646,8,8,0,0,1-.153-.833,2.846,2.846,0,0,0,1.834-1.308c.293-.651,2.087-3.295,2.57-6.036m-44.857,38.292a15.374,15.374,0,0,1-1.781-5.316,3.268,3.268,0,0,1,.336-1.567,4.491,4.491,0,0,0,.48-2.391,2.3,2.3,0,0,1,1.14-2.2,4.67,4.67,0,0,1,.929-.5,1.757,1.757,0,0,0,1.173-1.756,6.008,6.008,0,0,0-.075-.983,3.923,3.923,0,0,1,.488-2.719,6.367,6.367,0,0,0,.635-1.332,2.049,2.049,0,0,0-.94-2.55,22.986,22.986,0,0,0-2.169-1.021c-.884-.389-1.776-.755-2.666-1.127a1.756,1.756,0,0,1-1.223-1.338,2.055,2.055,0,0,0-.506-.831,6.24,6.24,0,0,0-1.9-1.447,8.674,8.674,0,0,1-2.242-1.7,5.865,5.865,0,0,0-1.886-1.347,2.764,2.764,0,0,0-1.99-.159c-1.231.357-1.267.336-1.929-.75a6.783,6.783,0,0,1-1.138-3.868,1.975,1.975,0,0,1,.954-1.769c.683-.419,1.317-.914,1.99-1.349a4.245,4.245,0,0,0,1.528-1.72,3.933,3.933,0,0,0,.277-.571c.593-1.917,2.2-2.867,3.724-3.877a3.624,3.624,0,0,1,1.257-.44,1.066,1.066,0,0,0,.909-.863c.1-.433.181-.873.289-1.306a2.126,2.126,0,0,1,.221-.419,5.538,5.538,0,0,1,.488.281c.154.109.279.255.43.367a1.193,1.193,0,0,0,1.676.022,1.878,1.878,0,0,0,.916-2.426,18.78,18.78,0,0,0-.649-1.939,1.135,1.135,0,0,1,.43-1.49,6.631,6.631,0,0,1,.653-.416,4.018,4.018,0,0,0,.541-.33.787.787,0,0,0-.144-1.387c-.183-.1-.389-.166-.578-.261-.161-.083-.311-.185-.592-.354a12.885,12.885,0,0,1,4.742-.95c-.279.877-.553,1.628-.751,2.4a3.175,3.175,0,0,0-.077,1.243.8.8,0,0,0,1.015.73,3.336,3.336,0,0,0,1.117-.393c.531-.3,1.022-.673,1.527-1.019a7.128,7.128,0,0,1,2.855-1.336c.579-.093,1.167-.152,1.752-.2a6.543,6.543,0,0,0,4.413-2.113c.335-.362.722-.676,1.047-1.047.256-.293,2.058-2.135,2.058-3.516m7.831,18.029v.7l-.375-.318a2.89,2.89,0,0,0-1.916-.769,8.987,8.987,0,0,0-3.474.411,2.451,2.451,0,0,1-.5.037c.606-.687,1.1-1.282,1.629-1.837a1.021,1.021,0,0,1,1.3-.141C640.986,881.589,642.078,882.224,643.229,882.887Zm-45.4,11.474c.05-.019,2.581,2.388,2.631,2.369.444.741.911,1.472,1.321,2.234a1.748,1.748,0,0,1,.161.878,21.871,21.871,0,0,0,.31,4.144,8.525,8.525,0,0,0,1.512,3.614,24.046,24.046,0,0,0,1.781,2.366,3.777,3.777,0,0,1,.928,2.223c.1.981.272,1.954.42,2.928.028.181.09,4.394.075,4.592" transform="translate(-597.725 -864.43)"/></g><g transform="translate(1466.023 1171.767)"><g transform="translate(0 0)"><g class="b" transform="translate(-178.71 -589.026)"><path class="d" d="M266.855,591.345a11.666,11.666,0,0,0-2.5.273c-3.755.825-21.382,5.224-23.538,5.708a14.976,14.976,0,0,1-4.916,0s5.62.678,4.671,4.563c-.78,3.194-5.412,2.96-8.708,2.905-2.8,0-7.009-.971-10.708-1.241a10.355,10.355,0,0,0-4.31.214c.846-.457,3.558-.3,4.31-.214,2.805.323,7.118,1.241,10.708,1.241,5.373,0,8.225-.85,8.708-2.905.367-1.558-.2-2.574-1.938-3.553-1.911-1.079-5.968-2.06-9.889-3.008-2.687-.649-6.207-1.442-7.945-2.054-6.164-2.177-11.558-4.248-19.365-4.248-1.192,0-2.4.054-3.6.163-6.01.54-9.332,1.838-18.286,2.616l-.843.163v14.544l1.233-.23c3.62-.678,9.2-3.368,16.687-.661,2.3.832,8.352,2.3,14.12,4.012,5.925,1.756,11.523,3.415,13.739,3.9a17.031,17.031,0,0,0,3.717.405c3.055,0,6.34-1.368,9.519-2.691,1.039-.432,2.023-.841,2.979-1.193L269.332,598c3.265-1.5,3.462-3.048,3.288-3.836C272.263,592.53,269.838,591.345,266.855,591.345Z"/><path class="e" d="M 201.4351501464844 589.0260009765625 C 200.2431182861328 589.0260009765625 199.0319671630859 589.0802612304688 197.8384857177734 589.18896484375 C 191.8283386230469 589.7291870117188 188.5061950683594 591.0269165039062 179.5526428222656 591.8049926757812 L 178.7099914550781 591.9679565429688 L 178.7099914550781 606.51171875 L 179.9431457519531 606.2813110351562 C 183.5633544921875 605.6030883789062 189.147705078125 602.9137573242188 196.6302795410156 605.6206665039062 C 198.9306793212891 606.452880859375 204.9819183349609 607.9239501953125 210.7498321533203 609.6326904296875 C 216.6748046875 611.388427734375 222.2724151611328 613.0473022460938 224.4891510009766 613.5361938476562 C 225.7193603515625 613.8078002929688 226.9349060058594 613.94140625 228.2062072753906 613.94140625 C 231.2612152099609 613.94140625 234.5466461181641 612.5731201171875 237.7249298095703 611.2504272460938 C 238.7642974853516 610.81884765625 239.7478790283203 610.4093017578125 240.7035675048828 610.0569458007812 L 269.3317260742188 598 C 272.5965881347656 596.5011596679688 272.7933349609375 594.9523315429688 272.6200866699219 594.1641235351562 C 272.2633666992188 592.5302124023438 269.8381958007812 591.345458984375 266.8551330566406 591.345458984375 C 266.024169921875 591.345458984375 265.1830444335938 591.4365234375 264.3550415039062 591.6185302734375 C 260.599853515625 592.4435424804688 242.9733581542969 596.8428344726562 240.8166198730469 597.3262329101562 C 239.2401885986328 597.6796264648438 237.3413696289062 597.5164184570312 236.433837890625 597.4029541015625 C 236.4736785888672 597.4166870117188 236.5131225585938 597.4303588867188 236.5524291992188 597.444091796875 C 238.0040130615234 597.76318359375 241.3169097900391 598.83544921875 240.5714416503906 601.888916015625 C 240.5590972900391 601.9414672851562 240.5452423095703 601.9931030273438 240.52978515625 602.0440673828125 C 239.6395721435547 605.0757446289062 235.1046447753906 604.84765625 231.8630981445312 604.7941284179688 C 228.2737426757812 604.7941284179688 223.9606475830078 603.8766479492188 221.1552581787109 603.5535888671875 C 220.5206298828125 603.48046875 218.4879913330078 603.3582153320312 217.3614501953125 603.5966186523438 C 217.1574554443359 603.6423950195312 216.9814300537109 603.698974609375 216.8450927734375 603.7679443359375 C 216.9767608642578 603.6968383789062 217.1537017822266 603.640625 217.3614501953125 603.5966186523438 C 218.417724609375 603.3598022460938 220.2240905761719 603.4140014648438 221.1552581787109 603.5535888671875 C 224.8540649414062 603.823486328125 229.0662384033203 604.7941284179688 231.8630981445312 604.7941284179688 C 237.0986785888672 604.7941284179688 239.9409790039062 603.98681640625 240.52978515625 602.0440673828125 C 240.5447082519531 601.9932861328125 240.55859375 601.9415893554688 240.5714416503906 601.888916015625 C 240.9384613037109 600.3312377929688 240.3674011230469 599.3153076171875 238.6336517333984 598.336181640625 C 238.0938568115234 598.031494140625 237.3829956054688 597.734619140625 236.5524291992188 597.444091796875 C 236.3966674804688 597.4098510742188 236.2623596191406 597.3843383789062 236.1567687988281 597.3659057617188 C 235.9925689697266 597.3424072265625 235.9001617431641 597.3262329101562 235.9001617431641 597.3262329101562 C 235.9001617431641 597.3262329101562 235.9945831298828 597.337646484375 236.1567687988281 597.3659057617188 C 236.2340087890625 597.376953125 236.3269958496094 597.3895874023438 236.433837890625 597.4029541015625 C 234.3347625732422 596.6799926757812 231.5063171386719 595.99609375 228.7449798583984 595.3281860351562 C 226.0584564208984 594.6793212890625 222.5381317138672 593.8865356445312 220.7999877929688 593.2744140625 C 214.6357116699219 591.097412109375 209.2421417236328 589.0260009765625 201.4351501464844 589.0260009765625 M 201.4351501464844 583.0260009765625 C 209.8514404296875 583.0260009765625 215.9305572509766 585.181884765625 221.8095245361328 587.2667846679688 L 222.7980194091797 587.6168823242188 C 224.0783233642578 588.0677490234375 226.4451141357422 588.612060546875 228.5924377441406 589.1227416992188 L 230.1536407470703 589.4959106445312 C 232.8283538818359 590.142822265625 235.5508270263672 590.811279296875 237.7073669433594 591.5039672851562 C 237.966796875 591.5250854492188 238.2667999267578 591.5410766601562 238.5834503173828 591.5410766601562 C 240.3726196289062 591.27685546875 243.7840576171875 590.4375 247.76904296875 589.4581909179688 C 253.6807708740234 588.0053100585938 260.8248291015625 586.2510375976562 263.0675659179688 585.75830078125 C 264.3135681152344 585.4844360351562 265.5881042480469 585.345458984375 266.8551330566406 585.345458984375 C 272.8250732421875 585.345458984375 277.49755859375 588.3751220703125 278.4819946289062 592.8843383789062 C 278.8327026367188 594.479736328125 279.395263671875 599.9820556640625 271.8350219726562 603.4528198242188 L 243.0324096679688 615.5865478515625 C 241.9187774658203 616.0037231445312 241.0345001220703 616.3728637695312 240.1011505126953 616.7604370117188 C 236.4766387939453 618.268798828125 232.4574432373047 619.94140625 228.2062072753906 619.94140625 C 226.4996795654297 619.94140625 224.8607177734375 619.7626953125 223.1956481933594 619.3950805664062 C 220.9159240722656 618.892333984375 215.1561126708984 617.1962890625 209.0599212646484 615.3898315429688 C 206.4769592285156 614.6246337890625 203.8510437011719 613.912109375 201.5370330810547 613.2837524414062 C 198.4883880615234 612.4559936523438 195.9387512207031 611.7510375976562 194.589111328125 611.2628173828125 C 193.0527648925781 610.7069702148438 191.55029296875 610.4368286132812 189.9958190917969 610.4369506835938 C 187.8039245605469 610.4370727539062 185.8284912109375 610.96923828125 183.9180908203125 611.48388671875 C 182.8685302734375 611.7666625976562 181.9104614257812 612.01708984375 181.0480651855469 612.1787109375 L 179.8120422363281 612.40966796875 C 178.0581359863281 612.7371826171875 176.2493591308594 612.2675170898438 174.8767395019531 611.1275634765625 C 173.5040893554688 609.9876708984375 172.7099914550781 608.2959594726562 172.7099914550781 606.51171875 L 172.7099914550781 591.9679565429688 C 172.7099914550781 589.093505859375 174.7485961914062 586.6228637695312 177.5707397460938 586.0770874023438 C 177.7756958007812 586.0374755859375 178.8252258300781 585.8455810546875 179.033203125 585.8275146484375 C 183.7406311035156 585.41845703125 186.8086242675781 584.8551635742188 189.5784301757812 584.349365234375 C 192.1069641113281 583.8875732421875 194.4166564941406 583.4723510742188 197.3013153076172 583.2130737304688 C 198.6683654785156 583.0885620117188 200.0627746582031 583.0260009765625 201.4351501464844 583.0260009765625 Z"/></g></g><path class="c" d="M-15849.295-5696.746c2.193,1.344,5.438,1.584,6.4,3.728s.217,3.726-1.87,4.885c-3.181,1.768-23.436-1.979-23.436-1.979" transform="translate(15905.301 5702.275)"/></g></g></svg>