<svg xmlns="http://www.w3.org/2000/svg" width="85.89" height="86" viewBox="0 0 85.89 86"><defs><style>.a{fill:none;stroke:#065bfa;stroke-miterlimit:10;stroke-width:6px;}.b{fill:#065bfa;}</style></defs><g transform="translate(-14.1 -7.6)"><g transform="translate(17.1 10.6)"><rect class="a" width="79.89" height="60.816" rx="6" transform="translate(0 0)"/><path class="a" d="M186.2,406.41v3.628a4.068,4.068,0,0,0,1.191,2.875l5.533,5.533a3.107,3.107,0,0,1-2.2,5.3l-27.614-.026a3.106,3.106,0,0,1-2.193-5.3l5.549-5.547a4.066,4.066,0,0,0,1.19-2.878V406.37" transform="translate(-137.399 -343.749)"/><path class="a" d="M159.549,128.6l-18.01,18.01-14.232-14.232L107.1,152.584" transform="translate(-93.954 -110.146)"/><circle class="b" cx="5.623" cy="5.623" r="5.623" transform="translate(56.372 13.729)"/><circle class="b" cx="5.623" cy="5.623" r="5.623" transform="translate(41.212 30.492)"/><circle class="b" cx="5.623" cy="5.623" r="5.623" transform="translate(27.961 17.241)"/><circle class="b" cx="5.623" cy="5.623" r="5.623" transform="translate(10.745 35.6)"/></g></g></svg>