<svg xmlns="http://www.w3.org/2000/svg" width="84.444" height="84" viewBox="0 0 84.444 84"><defs><style>.a{fill:none;stroke:#065bfa;stroke-linecap:round;stroke-linejoin:round;stroke-width:4px;}</style></defs><g transform="translate(-1089.414 1.85)"><path class="a" d="M1131.754,80.15a40,40,0,1,0-39.9-40.1v.043a39.9,39.9,0,0,0,39.734,40.061Zm18.976-56.579c.572.984,1.554,1.04,2.53,1.115.861.066,1.733.085,2.583.224a3.864,3.864,0,0,1,1.429.569,1.036,1.036,0,0,1-.151,1.829,2.379,2.379,0,0,1-1.416.217,16.344,16.344,0,0,0-4.9-.44,1.823,1.823,0,0,1-1.777-1.017c-.274-.492-.5-1.018-.76-1.563,1.086.189,1.519.024,2.46-.939Zm1.563-17.778c-2.091,2.484-5,1.619-7.905,3.2-.531.289-1.154.4-1.681.691a2.35,2.35,0,0,0-1.148,3.12c.008.019.018.038.027.057.123.321.253.639.385.968a14.07,14.07,0,0,1-1.444,1.307,3.185,3.185,0,0,1-1.278.445,10.7,10.7,0,0,1-1.476.026,4.6,4.6,0,0,0-4.551,4.361,6.766,6.766,0,0,0,.013,1.217,2.777,2.777,0,0,0,1.74,2.493,1.375,1.375,0,0,1,.226.123.134.134,0,0,1,.04.054c-.526.8-1.008,1.619-1.582,2.366a8.736,8.736,0,0,1-1.319,1.253,8.776,8.776,0,0,0-2.568,3.242,8.412,8.412,0,0,0-.625,2.064c-.2,1.461-.31,2.934-.439,4.4a6.128,6.128,0,0,0,1.316,3.959,12.028,12.028,0,0,0,4.42,3.967,4.054,4.054,0,0,0,3.2.338c1.163-.35,2.3-.789,3.444-1.183a2.226,2.226,0,0,1,1.511-.178l2.1,3.039a11.516,11.516,0,0,0,1.439,4.387c.1.179.17.369.262.55a3.841,3.841,0,0,1,.058,3.277c-.19.485-.369.972-.551,1.461a2.969,2.969,0,0,0-.031,1.956c.718,2.261,1.418,4.526,2.132,6.789a5.581,5.581,0,0,0,.321.805,1.859,1.859,0,0,0,2,1.038,4.487,4.487,0,0,0,1.9-.817,19.363,19.363,0,0,0,4.016-3.947,40.22,40.22,0,0,0,3.408-5.445c.394-.675.738-1.376,1.145-2.047a5.857,5.857,0,0,0,.738-4.182,4.348,4.348,0,0,1,.716-3.064c.689-1.137,1.467-2.223,2.214-3.32a8.355,8.355,0,0,1,.528-.693,3.444,3.444,0,0,0,.434-3.974,5.105,5.105,0,0,1-.346-.795,10.138,10.138,0,0,1-.188-1.024,3.5,3.5,0,0,0,2.256-1.609c.36-.8,2.567-4.053,3.161-7.424m-55.173,47.1a18.922,18.922,0,0,1-2.191-6.538,4.022,4.022,0,0,1,.414-1.928,5.529,5.529,0,0,0,.59-2.941,2.829,2.829,0,0,1,1.4-2.706,5.827,5.827,0,0,1,1.143-.615,2.161,2.161,0,0,0,1.443-2.159,7.391,7.391,0,0,0-.093-1.209,4.832,4.832,0,0,1,.6-3.345,7.847,7.847,0,0,0,.782-1.638,2.52,2.52,0,0,0-1.157-3.136,28.2,28.2,0,0,0-2.667-1.256c-1.088-.479-2.185-.929-3.28-1.386a2.163,2.163,0,0,1-1.5-1.646,2.531,2.531,0,0,0-.622-1.022,7.677,7.677,0,0,0-2.337-1.78,10.669,10.669,0,0,1-2.758-2.091,7.217,7.217,0,0,0-2.32-1.657,3.4,3.4,0,0,0-2.447-.195c-1.514.439-1.559.413-2.373-.923a8.343,8.343,0,0,1-1.4-4.757,2.43,2.43,0,0,1,1.174-2.176c.84-.516,1.62-1.124,2.447-1.659a5.221,5.221,0,0,0,1.88-2.116,4.891,4.891,0,0,0,.341-.7c.729-2.358,2.706-3.527,4.58-4.769a4.463,4.463,0,0,1,1.546-.541,1.311,1.311,0,0,0,1.118-1.061c.123-.533.223-1.074.356-1.607a2.632,2.632,0,0,1,.271-.515,6.873,6.873,0,0,1,.6.345c.189.134.343.314.529.452a1.468,1.468,0,0,0,2.061.027,2.311,2.311,0,0,0,1.127-2.984,23.005,23.005,0,0,0-.8-2.385,1.4,1.4,0,0,1,.529-1.833,8.021,8.021,0,0,1,.8-.511,5.072,5.072,0,0,0,.665-.406.968.968,0,0,0-.177-1.706c-.225-.123-.479-.2-.711-.321-.2-.1-.383-.228-.728-.436a15.851,15.851,0,0,1,5.832-1.168c-.343,1.078-.68,2-.923,2.952a3.884,3.884,0,0,0-.095,1.529.981.981,0,0,0,1.248.9,4.1,4.1,0,0,0,1.374-.483c.653-.369,1.257-.828,1.878-1.253a8.773,8.773,0,0,1,3.512-1.644c.712-.114,1.435-.186,2.155-.246a8.047,8.047,0,0,0,5.428-2.6c.412-.446.888-.832,1.288-1.288.314-.361,2.531-2.626,2.531-4.325m9.632,22.175v.861l-.461-.391a3.564,3.564,0,0,0-2.357-.946,11.049,11.049,0,0,0-4.273.506,3.018,3.018,0,0,1-.615.045c.745-.845,1.353-1.576,2-2.259a1.256,1.256,0,0,1,1.6-.173c1.338.753,2.681,1.535,4.1,2.35Zm-55.841,14.113c.061-.023,3.174,2.937,3.236,2.914.546.911,1.12,1.81,1.625,2.748a2.162,2.162,0,0,1,.2,1.08,26.857,26.857,0,0,0,.381,5.1,10.478,10.478,0,0,0,1.86,4.445,29.5,29.5,0,0,0,2.19,2.91,4.645,4.645,0,0,1,1.142,2.734c.123,1.207.334,2.4.516,3.6.035.222.111,5.4.093,5.648"/></g></svg>
