<svg xmlns="http://www.w3.org/2000/svg" xmlns:xlink="http://www.w3.org/1999/xlink" width="592.906" height="621.56" viewBox="0 0 592.906 621.56"><defs><style>.a{fill:#065bfa;}.b,.d{fill:none;}.c,.s{fill:#0a51d6;}.d{stroke:#699cfc;stroke-width:6px;}.e{fill:#699cfc;}.f{fill:#173d7a;}.g{fill:#ffc02f;}.h{fill:#b8c9e9;opacity:0.4;}.i{fill:#cddefe;opacity:0.5;mix-blend-mode:multiply;}.i,.n{isolation:isolate;}.j{fill:#fff;}.k{clip-path:url(#a);}.l{fill:#377bfb;}.m{clip-path:url(#b);}.o{clip-path:url(#c);}.p{fill:#223a9d;}.q{fill:#213898;}.r{clip-path:url(#d);}.s{stroke:rgba(0,0,0,0);stroke-miterlimit:10;}.t{clip-path:url(#e);}.u{fill:#1c2f7f;}.v{clip-path:url(#f);}</style><clipPath id="a"><path class="a" d="M701.9,257.281v33.59c-4.86,43.758-67.256,78.38-143.53,78.38s-138.664-34.622-143.53-78.38l-.09-29.568h13.735l10.963-.162c4.538,35.613,56,63.689,118.808,63.689,64.861,0,117.615-29.938,119.108-67.189Z" transform="translate(-414.612 -257.281)"/></clipPath><clipPath id="b"><path class="a" d="M696.2,231.831,591.845,291.6c4.73-5.785,3.863-17.28-.32-29.811-5.653-17.035-22.2-28.586-32.657-24.987,0,0,91.469-53.988,104.415-61.677,12.607,1.394,20.653,7.349,27.663,16.093C710.2,215.738,696.2,231.831,696.2,231.831Z" transform="translate(-558.868 -175.129)"/></clipPath><clipPath id="c"><path class="b" d="M-330.67-498.36l51.275,25.8q-1.074-.539-2.2-1.03l-51.273-25.8Q-331.743-498.9-330.67-498.36Z" transform="translate(332.864 499.39)"/></clipPath><clipPath id="d"><path class="c" d="M-338.355-277.706l-51.273-25.8q-.042-4.412-.076-8.07-.253-26.932,2.537-38.585a63.531,63.531,0,0,1,7.152-17.454q5.151-8.833,18.5-26.706,10.013-13.5,13.943-23.158a53.284,53.284,0,0,0,3.825-20.811q-.141-14.991-8.4-19.843l51.275,25.8q8.25,4.854,8.4,19.843a53.27,53.27,0,0,1-3.825,20.812q-3.942,9.662-13.943,23.156-13.348,17.871-18.5,26.706a63.582,63.582,0,0,0-7.152,17.456q-2.785,11.656-2.537,38.584Z" transform="translate(389.726 458.133)"/></clipPath><clipPath id="e"><path class="b" d="M-360.49-458.33l51.273,25.8c.16.081.319.164.477.25l-51.275-25.8C-360.171-458.166-360.33-458.25-360.49-458.33Z" transform="translate(360.49 458.33)"/></clipPath><clipPath id="f"><path class="b" d="M-382.2-345.734l-51.275-25.8q2.692-21.661,6.43-35.184a147.674,147.674,0,0,1,11.157-28.007q21.8-42.851,60.742-60.05,28.672-12.666,49.352-3.845l51.273,25.8q-20.68-8.831-49.351,3.845-38.947,17.206-60.742,60.05a147.643,147.643,0,0,0-11.159,28.007Q-379.5-367.4-382.2-345.734Z" transform="translate(433.476 502.246)"/></clipPath></defs><g transform="translate(-931.102 -223.552)"><path class="d" d="M-15893.771-16601.281l-151.856-90.186" transform="translate(17204.371 17316.678)"/><path class="e" d="M228.136,215.139l148.232-85.587L228.141,43.972,79.915,129.553Zm136.305-85.587-136.305,78.7-136.288-78.7L228.141,50.863Z" transform="translate(851.188 458.221)"/><path class="e" d="M228.136,215.139l148.232-85.587L228.141,43.972,79.915,129.553Zm136.305-85.587-136.305,78.7-136.288-78.7L228.141,50.863Z" transform="translate(1147.641 629.973)"/><g transform="translate(1107.931 431.25)"><path class="a" d="M696.2,231.831,591.845,291.6c4.73-5.785,3.863-17.28-.32-29.811-5.653-17.035-22.2-28.586-32.657-24.987,0,0,91.469-53.988,104.415-61.677,12.607,1.394,20.653,7.349,27.663,16.093C710.2,215.738,696.2,231.831,696.2,231.831Z" transform="translate(-286.829 -175.128)"/><path class="f" d="M595.982,262.967a10.621,10.621,0,0,1-7.33,3.825c-5.39.66-18.788-4.089-29.736-25.157-8.272-15.886-4.9-30.358,4.07-33.448l.019-.019c10.459-3.6,27,7.952,32.657,24.987C599.845,245.687,600.712,257.181,595.982,262.967Z" transform="translate(-290.966 -146.491)"/><path class="g" d="M541.086,235.856l33.722-19.319s10.539-5.621,21.077,12.119c3.337,6.322,6.149,17.387.878,21.252-4.916,3.162-25.818,15.281-25.818,15.281S565.676,243.761,541.086,235.856Z" transform="translate(-302.556 -139.255)"/><g transform="translate(0 70.455)"><ellipse class="h" cx="122.139" cy="66.37" rx="122.139" ry="66.37" transform="translate(23.886 22.79)"/><path class="i" d="M672.921,289.04c-24.967-22.792-71.136-38.086-123.968-38.086-52.2,0-97.9,14.936-123.065,37.272,12.034-35.751,62.706-62.583,123.383-62.583C610.411,225.643,661.382,252.888,672.921,289.04Z" transform="translate(-404.438 -200.908)"/><path class="f" d="M666.819,289.145a40.744,40.744,0,0,1-1.238,9.963c-5.878-34.988-56.932-62.34-119.055-62.34-60.211,0-110.029,25.69-118.39,59.131a40.543,40.543,0,0,1-.567-6.754c0-38.163,53.555-69.094,119.622-69.094S666.819,250.982,666.819,289.145Z" transform="translate(-402.951 -205.854)"/><path class="a" d="M701.9,257.281v33.59c-4.86,43.758-67.256,78.38-143.53,78.38s-138.664-34.622-143.53-78.38l-.09-29.568h13.735l10.963-.162c4.538,35.613,56,63.689,118.808,63.689,64.861,0,117.615-29.938,119.108-67.189Z" transform="translate(-414.411 -172.927)"/><path class="j" d="M558.349,212.517c-79.443,0-143.844,37.2-143.844,83.087a50.282,50.282,0,0,0,.285,5.288c4.724,43.42,67.19,77.8,143.56,77.8,76.842,0,139.618-34.8,143.643-78.606q.206-2.222.207-4.477C702.2,249.715,637.794,212.517,558.349,212.517Zm0,151.9c-62.813,0-114.271-28.076-118.808-63.689a39.6,39.6,0,0,1-.328-5.126c0-38.008,53.338-68.813,119.136-68.813S677.491,257.6,677.491,295.6c0,.545-.009,1.085-.034,1.626C675.965,334.481,623.211,364.419,558.349,364.419Z" transform="translate(-414.505 -212.517)"/><g class="k" transform="translate(0.201 84.354)"><rect class="l" width="46" height="134" transform="translate(207.868 4.58)"/></g><path class="c" d="M558.349,212.517c-79.443,0-143.844,37.2-143.844,83.087a50.282,50.282,0,0,0,.285,5.288c4.724,43.42,67.19,77.8,143.56,77.8,76.842,0,139.618-34.8,143.643-78.606q.206-2.222.207-4.477C702.2,249.715,637.794,212.517,558.349,212.517Zm0,151.9c-62.813,0-114.271-28.076-118.808-63.689a39.6,39.6,0,0,1-.328-5.126c0-38.008,53.338-68.813,119.136-68.813S677.491,257.6,677.491,295.6c0,.545-.009,1.085-.034,1.626C675.965,334.481,623.211,364.419,558.349,364.419Z" transform="translate(-414.505 -212.517)"/></g><g class="m" transform="translate(272.038 0.002)"><path class="l" d="M494.016,38.447,357.04,116.47v32.967L494.016,68.513Z" transform="translate(-344.786 -35.705)"/></g></g><g transform="translate(1144.174 223.553)"><g class="n" transform="translate(54.821 250.756)"><g transform="translate(51.274 25.8)"><path class="l" d="M-349.328-239.5l-.546-58.074,50.308-22.226.546,58.074Z" transform="translate(349.874 319.801)"/></g><g transform="translate(0 22.226)"><path class="c" d="M-338.458-238.743l-51.274-25.8-.546-58.074,51.274,25.8Z" transform="translate(390.278 322.617)"/></g><path class="a" d="M-339-292.1l-51.274-25.8,50.308-22.226,51.274,25.8Z" transform="translate(390.278 340.131)"/></g><g class="n" transform="translate(0 -0.001)"><g class="n" transform="translate(127.681 3.625)"><g class="o"><g class="n"><path class="p" d="M-281.591-473.59l-51.273-25.8c.084.037.169.074.253.112l51.273,25.8c-.084-.038-.168-.075-.253-.112" transform="translate(332.864 499.39)"/><path class="q" d="M-281.392-473.5l-51.273-25.8q.99.44,1.942.919l51.275,25.8q-.952-.478-1.943-.919" transform="translate(332.918 499.414)"/></g></g></g><g class="n" transform="translate(55.521 55.982)"><g class="r"><g class="n" transform="translate(0)"><path class="s" d="M.1,128.829l-.076-8.071Q-.135,104.2.86,93.419q.459-4.971,1.161-8.714l51.275,25.8L2.021,84.7c.171-.893.347-1.736.535-2.527.112-.469.227-.944.352-1.415q.422-1.615.956-3.234.516-1.561,1.129-3.129c.412-1.054.862-2.111,1.344-3.171q.76-1.674,1.634-3.351.822-1.574,1.74-3.153c.1-.173.2-.346.305-.522q1.852-3.124,4.668-7.318,5.148-7.657,13.522-18.868,2.676-3.6,4.914-6.94L84.4,56.874l-51.275-25.8q2.218-3.3,4.007-6.322L88.4,50.55q-1.792,3.028-4.008,6.324Q82.154,60.2,79.48,63.813,71.1,75.029,65.96,82.681q-2.818,4.2-4.67,7.318c-.1.178-.206.348-.306.523q-.917,1.577-1.737,3.153-.878,1.678-1.635,3.351-.724,1.588-1.346,3.171-.611,1.568-1.125,3.129L3.864,77.524l51.275,25.8q-.537,1.621-.957,3.233c-.123.471-.242.945-.351,1.417q-.284,1.183-.536,2.529-.7,3.742-1.161,8.713Q51.14,130,51.293,146.561l.079,8.068ZM37.129,24.746q1.355-2.284,2.465-4.421.906-1.738,1.651-3.375.485-1.069.906-2.094c.083-.2.163-.408.244-.616q.516-1.309.953-2.648.487-1.47.882-2.981.465-1.773.808-3.6.463-2.463.7-5.012L97.008,25.8q-.237,2.553-.7,5.012-.341,1.828-.806,3.6c-.266,1-.557,2-.882,2.982q-.44,1.338-.952,2.646c-.08.208-.164.412-.247.618-.279.682-.58,1.379-.9,2.1h0q-.746,1.639-1.649,3.376-1.112,2.132-2.464,4.42Z" transform="translate(0 25.797)"/><path class="f" d="M-300.684-406.535l-51.275-25.8a58.632,58.632,0,0,0,.241-5.956q-.141-14.991-8.4-19.843l51.275,25.8q8.25,4.854,8.4,19.843a58.973,58.973,0,0,1-.24,5.956" transform="translate(397.692 458.133)"/></g></g></g><g class="n" transform="translate(92.623 55.732)"><g class="t"><g class="n"><path class="u" d="M-308.74-432.28l-51.275-25.8c-.157-.086-.316-.17-.476-.25l51.273,25.8c.16.081.319.164.477.25" transform="translate(360.49 458.33)"/></g></g></g><g transform="translate(51.275 25.8)"><path class="a" d="M-265.392-478.292q25.7,11.244,26.038,48.36.392,41.726-34.909,85.717-13.361,16.525-17.075,23.569t-4.58,17.665q-.139,2.777-.194,13.409l-41.343,18.265-.076-8.07q-.253-26.932,2.537-38.584a63.578,63.578,0,0,1,7.152-17.456q5.153-8.833,18.5-26.706,10.013-13.5,13.943-23.156a53.272,53.272,0,0,0,3.825-20.812q-.141-14.991-8.4-19.843-7.435-4.06-17.689.471A44.152,44.152,0,0,0-334.352-412a56.963,56.963,0,0,0-10.5,21.149Q-347.5-380.8-349.1-363.3L-393.072-351.2q2.692-21.661,6.429-35.186A147.642,147.642,0,0,1-375.484-414.4q21.8-42.851,60.742-60.05Q-286.071-487.113-265.392-478.292Z" transform="translate(393.072 481.916)"/></g><g class="n"><g class="v"><g class="n" transform="translate(0.001 -0.001)"><path class="s" d="M0,130.711q1.433-11.533,3.166-20.77l51.275,25.8q-1.734,9.23-3.166,20.771Zm3.166-20.772Q4.5,102.847,6,97.121q.211-.813.43-1.6.79-2.872,1.75-5.791,1.18-3.581,2.608-7.225h0q1.478-3.776,3.228-7.619l51.275,25.8q-1.749,3.843-3.231,7.616h0q-1.431,3.645-2.609,7.225-.959,2.918-1.752,5.791-.214.783-.43,1.595-1.5,5.723-2.833,12.818ZM14.02,74.892q1.663-3.654,3.567-7.373c.24-.469.481-.939.725-1.406q2.056-3.952,4.263-7.685l51.274,25.8-51.272-25.8q2.225-3.766,4.6-7.3h0q2.543-3.784,5.256-7.307,3.195-4.141,6.628-7.928A120.608,120.608,0,0,1,49.743,25.485,114.781,114.781,0,0,1,78.329,7.471c.322-.144.644-.283.963-.422A93.334,93.334,0,0,1,95.439,1.658l51.272,25.8L95.439,1.656A66.512,66.512,0,0,1,104.711.2a54.151,54.151,0,0,1,7.069-.14,48.627,48.627,0,0,1,5.994.649l.007,0a45.129,45.129,0,0,1,5.406,1.279l0,0a44.361,44.361,0,0,1,4.49,1.636l51.272,25.8a43.754,43.754,0,0,0-4.494-1.639,45,45,0,0,0-5.41-1.28l-.008,0a48.509,48.509,0,0,0-5.989-.648,55.181,55.181,0,0,0-7.067.139,66.726,66.726,0,0,0-9.274,1.464,93.072,93.072,0,0,0-16.145,5.391c-.32.138-.642.277-.963.419a114.807,114.807,0,0,0-28.588,18.016,120.44,120.44,0,0,0-10.674,10.4l-51.275-25.8,51.275,25.8q-3.433,3.784-6.628,7.93Q81,73.146,78.453,76.928h0q-2.376,3.541-4.6,7.3-2.207,3.73-4.263,7.685c-.243.467-.484.937-.725,1.406q-1.906,3.716-3.569,7.37Z"/></g></g></g></g></g></g></svg>