<svg width="715" height="715" viewBox="0 0 715 715" fill="none" xmlns="http://www.w3.org/2000/svg">
<g clip-path="url(#clip0)">
<path d="M687.309 493.347C687.519 492.921 687.705 492.485 687.853 492.038C730.215 394.266 722.645 274.401 667.625 182.786C696.998 147.672 658.844 97.3866 617.12 116.843C609.788 109.35 602.09 102.169 594.113 95.3789C609.772 52.8113 557.511 17.8915 524.963 49.6957C430.362 1.92656 312.701 2.53152 218.622 51.3122C185.156 15.8461 128.951 53.8731 149.213 98.3716C137.609 108.519 126.625 119.481 116.497 131.073C107.752 141.082 123.594 154.8 132.279 144.861C141.701 134.078 151.91 123.877 162.693 114.425C183.545 129.465 213.78 121.803 225.22 98.8452C262.971 109.712 299.023 125.308 332.617 145.325C329.804 155.466 330.953 166.793 335.778 176.155C308.129 200.039 283.23 227.057 261.608 256.666C241.647 250.635 219.645 260.73 210.965 279.633C166.946 279.869 122.789 284.604 79.4366 293.768C75.6085 286.634 69.8048 280.723 62.7689 276.764C70.9141 245 83.8152 214.784 101.193 186.846C108.117 175.711 90.6388 164.136 83.3975 175.777C64.9219 205.479 51.1993 237.601 42.5204 271.366C-7.67837 272.219 -16.1058 341.664 31.6828 355.024C30.9787 453.859 73.7112 549.951 147.812 615.409C132.354 657.165 182.537 691.607 215.655 662.155C312.305 713.548 434.455 713.555 531.111 662.172C564.794 695.485 618.742 658.268 599.769 614.718C637.96 580.778 667.628 539.265 687.309 493.347V493.347ZM674.106 469.912C645.101 441.095 613.358 414.953 579.468 392.005C584.281 376.929 580.098 359.967 568.858 348.837C597.357 301.454 619.729 250.646 635.477 197.57C640.725 197.588 645.77 196.62 650.418 194.868C698.673 276.367 707.499 381.445 674.106 469.912ZM191.922 588.366C183.103 501.989 198.578 415.815 236.877 337.941C260.67 345.365 286.387 329.719 291.008 305.296C363.26 314.202 432.846 335.415 498.151 368.45C495.01 380.658 497.61 394.119 505.092 404.275C431.482 497.532 334.316 567.705 223.11 607.924C216.372 597.254 205.04 589.79 191.922 588.366ZM517.769 379.068C517.769 367.194 527.359 357.534 539.147 357.534C567.506 358.715 567.497 399.426 539.147 400.602C527.359 400.602 517.769 390.942 517.769 379.068ZM656.947 155.081C656.947 166.955 647.357 176.615 635.569 176.615C607.209 175.434 607.216 134.723 635.569 133.547C647.357 133.547 656.947 143.207 656.947 155.081V155.081ZM601.108 130.447C586.625 150.796 593.347 180.212 615.181 192.307C599.926 243.504 578.298 292.512 550.785 338.225C545.033 336.57 538.648 336.16 532.734 337.065C503.976 275.654 462.13 220.341 411.012 176.158C415.842 166.79 416.993 155.483 414.177 145.328C446.533 126.05 481.191 110.858 517.434 100.058C529.48 123.314 561.794 129.881 581.856 112.471C588.504 118.191 594.941 124.2 601.108 130.447V130.447ZM352.019 156.703C352.019 144.829 361.608 135.169 373.396 135.169C401.756 136.35 401.748 177.059 373.396 178.235C361.608 178.235 352.019 168.576 352.019 156.703V156.703ZM554.697 58.3746C566.486 58.3746 576.076 68.0344 576.076 79.9085C574.899 108.476 534.492 108.469 533.319 79.9085C533.319 68.0344 542.909 58.3746 554.697 58.3746ZM187.337 101.441C175.549 101.441 165.959 91.7813 165.959 79.9071C167.136 51.3387 207.543 51.3485 208.715 79.9071C208.715 91.7813 199.124 101.441 187.337 101.441ZM229.632 78.3004C229.523 75.3916 229.123 72.5596 228.458 69.8269C316.174 24.4664 425.755 23.6756 514.147 67.7172C513.011 71.516 512.389 75.5327 512.368 79.692C474.246 90.9696 437.794 106.9 403.763 127.14C387.405 110.219 359.394 110.214 343.031 127.138C307.568 106.045 269.5 89.6479 229.632 78.3004V78.3004ZM349.652 191.862C363.822 201.533 382.966 201.534 397.137 191.863C445.942 234.002 485.922 286.75 513.461 345.325C511.594 346.76 509.85 348.348 508.247 350.068C439.398 315.147 365.926 292.944 289.609 284.01C287.548 277.774 284.089 272.174 279.599 267.59C300.08 239.766 323.586 214.354 349.652 191.862V191.862ZM249.425 275.822C261.212 275.822 270.802 285.482 270.802 297.356C269.626 325.924 229.218 325.916 228.046 297.356C228.047 285.482 237.637 275.822 249.425 275.822V275.822ZM20.7601 313.849C20.7601 301.975 30.35 292.315 42.1375 292.315C70.4964 293.496 70.488 334.205 42.1375 335.381C30.3514 335.383 20.7601 325.723 20.7601 313.849V313.849ZM52.6383 355.015C52.6383 355.015 84.4663 348.074 84.4663 314.125C84.4663 314.125 166.137 301.071 207.227 300.612C207.999 310.764 212.334 319.925 218.983 326.838C178.148 408.99 161.677 500.072 171.158 591.343C167.076 593.045 163.317 595.371 159.995 598.199C91.6321 536.957 52.6383 434.347 52.6383 355.015V355.015ZM187.337 652.135C175.549 652.135 165.959 642.475 165.959 630.601C165.959 618.727 175.549 609.067 187.337 609.067C198.966 609.067 208.715 619.14 208.715 630.601C208.715 642.475 199.124 652.135 187.337 652.135ZM373.396 679.906C322.539 679.906 272.248 667.725 227.3 644.602C229.125 639.372 229.929 633.415 229.575 627.865C344.611 586.4 445.136 513.935 521.287 417.58C527.544 420.514 534.486 421.861 541.384 421.499C546.039 438.777 549.717 456.405 552.325 474.031C554.321 487.524 575.059 484.509 573.056 470.965C570.289 452.25 566.37 433.531 561.395 415.198C563.9 413.639 566.227 411.821 568.348 409.788C603.315 433.527 635.916 460.778 665.45 490.937C647.133 531.427 620.475 568.089 586.604 598.383C583.255 595.868 579.521 593.845 575.513 592.406C577.572 572.926 578.469 553.258 578.167 533.804C577.955 520.115 556.999 520.436 557.213 534.128C557.504 552.827 556.637 571.735 554.648 590.46C529.934 594.39 513.771 620.016 520.58 644.033C475.35 667.524 424.669 679.906 373.396 679.906V679.906ZM561.295 653.957C549.508 653.957 539.918 644.297 539.918 632.423C541.094 603.854 581.502 603.864 582.674 632.423C582.674 644.297 573.084 653.957 561.295 653.957Z" fill="#377BFB"/>
</g>
<defs>
<clipPath id="clip0">
<rect width="715" height="715" fill="white"/>
</clipPath>
</defs>
</svg>
