<svg xmlns="http://www.w3.org/2000/svg" width="84" height="84" viewBox="0 0 84 84"><defs><style>.a{fill:none;stroke:#065bfa;stroke-linecap:round;stroke-linejoin:round;stroke-width:4px;}</style></defs><g transform="translate(1960.829 115.182)"><ellipse class="a" cx="11.502" cy="11.552" rx="11.502" ry="11.552" transform="translate(-1933.011 -77.128)"/><path class="a" d="M-1942.261-33.182a20.8,20.8,0,0,1,20.752-20.842,20.8,20.8,0,0,1,20.751,20.842"/><path class="a" d="M-1958.829-34.633a14.643,14.643,0,0,1,14.611-14.675,8.117,8.117,0,0,1-8.1-8.134,8.117,8.117,0,0,1,8.1-8.134"/><path class="a" d="M-1907.371-88.3l5.608-6.508h22.934v-18.373h-28.542Z"/><path class="a" d="M-1942.829-84.92l8-4.506h16v-16.257h-24Z"/></g></svg>