<svg xmlns="http://www.w3.org/2000/svg" width="84.427" height="84.624" viewBox="0 0 84.427 84.624"><defs><style>.a{fill:none;}.a,.b{stroke:#065bfa;stroke-linecap:round;stroke-linejoin:round;stroke-width:6px;}.b{fill:#fff;}</style></defs><g transform="translate(-290.682 -4112.23)"><g transform="translate(293.682 4115.23)"><ellipse class="a" cx="26.564" cy="8.569" rx="26.564" ry="8.569" transform="translate(0.273 0)"/><path class="a" d="M56.931,12c0,4.974-11.985,8.988-26.965,8.988S3,16.974,3,12" transform="translate(-3 17.304)"/><path class="a" d="M3,5V46.946c0,4.974,11.985,8.988,26.965,8.988s26.965-4.015,26.965-8.988V5" transform="translate(-3 3.33)"/></g><g transform="translate(323.117 4144.863)"><path class="b" d="M41.974,32.176a3.674,3.674,0,0,0,.735,4.053l.134.134a4.456,4.456,0,1,1-6.3,6.3l-.134-.134a3.7,3.7,0,0,0-6.28,2.628v.379a4.454,4.454,0,0,1-8.907,0v-.2a3.674,3.674,0,0,0-2.405-3.363,3.674,3.674,0,0,0-4.053.735l-.134.134a4.456,4.456,0,1,1-6.3-6.3l.134-.134a3.7,3.7,0,0,0-2.628-6.28H5.454a4.454,4.454,0,1,1,0-8.907h.2a3.674,3.674,0,0,0,3.363-2.405,3.674,3.674,0,0,0-.735-4.053l-.134-.134a4.456,4.456,0,1,1,6.3-6.3l.134.134a3.674,3.674,0,0,0,4.053.735h.178a3.674,3.674,0,0,0,2.227-3.363V5.454a4.454,4.454,0,0,1,8.907,0v.2a3.7,3.7,0,0,0,6.28,2.628l.134-.134a4.456,4.456,0,1,1,6.3,6.3l-.134.134a3.674,3.674,0,0,0-.735,4.053v.178a3.674,3.674,0,0,0,3.363,2.227h.379a4.454,4.454,0,0,1,0,8.907h-.2A3.674,3.674,0,0,0,41.974,32.176Z" transform="translate(-1 -1)"/><circle class="b" cx="6.427" cy="6.427" r="6.427" transform="translate(17.995 18.143)"/></g></g></svg>