<svg xmlns="http://www.w3.org/2000/svg" width="84" height="84" viewBox="0 0 84 84"><defs><style>.a{fill:none;stroke:#065bfa;stroke-linecap:round;stroke-linejoin:round;stroke-width:4px;}</style></defs><g transform="translate(2257.06 115.355)"><ellipse class="a" cx="27.121" cy="8.727" rx="27.121" ry="8.727" transform="translate(-2254.782 -113.355)"/><path class="a" d="M-2231.1-74.435c-13.585-.578-23.962-4.413-23.962-9.078"/><path class="a" d="M-2200-93.315v-11.557"/><path class="a" d="M-2255.06-104.872v42.717c0,4.169,8.291,7.677,19.754,8.787"/><path class="a" d="M-2183.174-51.429a3.735,3.735,0,0,0,.75,4.128l.137.136a4.53,4.53,0,0,1,.151,6.416,4.557,4.557,0,0,1-6.432.15c-.052-.049-.1-.1-.151-.15l-.137-.137a3.784,3.784,0,0,0-5.342.074,3.767,3.767,0,0,0-1.07,2.6v.386a4.542,4.542,0,0,1-4.615,4.467,4.542,4.542,0,0,1-4.479-4.467v-.2a3.742,3.742,0,0,0-2.455-3.425,3.758,3.758,0,0,0-4.138.749l-.137.136a4.558,4.558,0,0,1-6.432.151,4.529,4.529,0,0,1-.151-6.416c.049-.051.1-.1.151-.151l.137-.136a3.76,3.76,0,0,0-.074-5.328,3.783,3.783,0,0,0-2.609-1.068h-.39a4.542,4.542,0,0,1-4.616-4.467,4.541,4.541,0,0,1,4.479-4.6h.341a3.75,3.75,0,0,0,3.433-2.449,3.734,3.734,0,0,0-.75-4.128l-.137-.136a4.53,4.53,0,0,1-.151-6.416,4.558,4.558,0,0,1,6.432-.151c.052.049.1.1.151.151l.137.136a3.76,3.76,0,0,0,4.138.749h.182a3.743,3.743,0,0,0,2.274-3.425v-.388a4.541,4.541,0,0,1,4.615-4.467,4.539,4.539,0,0,1,4.478,4.467v.2a3.773,3.773,0,0,0,3.8,3.743,3.782,3.782,0,0,0,2.61-1.067l.137-.137a4.558,4.558,0,0,1,6.432-.15,4.529,4.529,0,0,1,.151,6.416c-.049.051-.1.1-.151.15l-.137.137a3.736,3.736,0,0,0-.75,4.127v.181a3.749,3.749,0,0,0,3.433,2.268h.387a4.541,4.541,0,0,1,4.479,4.6,4.542,4.542,0,0,1-4.479,4.467h-.2A3.75,3.75,0,0,0-2183.174-51.429Z"/><ellipse class="a" cx="6.562" cy="6.545" rx="6.562" ry="6.545" transform="translate(-2206.635 -64.701)"/></g></svg>