<svg xmlns="http://www.w3.org/2000/svg" width="114" height="114" viewBox="0 0 114 114"><defs><style>.a{fill:#facba7;}.b,.c{fill:none;}.b{stroke:#065bfa;stroke-linecap:round;stroke-linejoin:round;stroke-width:4px;}</style></defs><g transform="translate(-853 -3374)"><circle class="a" cx="57" cy="57" r="57" transform="translate(853 3374)"/><g transform="translate(1311.638 3406)"><path class="b" d="M-388.3,29.524h.073v4.528l-15.718,2.809V29.524h.013A15.782,15.782,0,0,1-411.91,15.8,15.793,15.793,0,0,1-396.113,0a15.8,15.8,0,0,1,15.8,15.8A15.767,15.767,0,0,1-388.3,29.524Z" transform="translate(-5.523 -0.001)"/><line class="b" x1="15.718" y2="2.809" transform="translate(-409.469 41.417)"/><line class="b" x1="7.922" y2="1.416" transform="translate(-405.571 48.584)"/><rect class="c" width="50" height="50" transform="translate(-426.638)"/></g></g></svg>