<svg xmlns="http://www.w3.org/2000/svg" xmlns:xlink="http://www.w3.org/1999/xlink" width="90" height="70" viewBox="0 0 90 70"><defs><style>.a{fill:#065bfa;}.b{clip-path:url(#a);}</style><clipPath id="a"><rect class="a" width="90" height="70" transform="translate(288 1235)"/></clipPath></defs><g class="b" transform="translate(-288 -1235)"><path class="a" d="M239.267,70.6h0a3.412,3.412,0,0,0,3.412,3.411h68.232a3.412,3.412,0,0,1,3.411,3.412V125.19a3.411,3.411,0,0,1-3.411,3.411h-40.94a3.412,3.412,0,0,0-3.411,3.412h0a3.411,3.411,0,0,0,3.411,3.411h54.586a3.412,3.412,0,0,0,3.412-3.411h0a3.412,3.412,0,0,0-3.412-3.412h0a3.411,3.411,0,0,1-3.411-3.411V70.6a3.411,3.411,0,0,0-3.411-3.411H242.679A3.412,3.412,0,0,0,239.267,70.6Zm13.654,6.823A13.646,13.646,0,1,0,266.56,91.074,13.7,13.7,0,0,0,252.921,77.428Zm20.463,6.823h0a3.411,3.411,0,0,0,3.411,3.411h10.235a3.412,3.412,0,0,0,3.412-3.411h0a3.412,3.412,0,0,0-3.412-3.412H276.795A3.412,3.412,0,0,0,273.383,84.251Zm23.881,0h0a3.412,3.412,0,0,0,3.412,3.411h3.411a3.411,3.411,0,0,0,3.411-3.411h0a3.412,3.412,0,0,0-3.411-3.412h-3.411A3.412,3.412,0,0,0,297.264,84.251Zm-44.343,0a6.823,6.823,0,1,1-6.83,6.823A6.77,6.77,0,0,1,252.921,84.251ZM273.383,97.9h0a3.411,3.411,0,0,0,3.411,3.411h27.293A3.411,3.411,0,0,0,307.5,97.9h0a3.411,3.411,0,0,0-3.411-3.411H276.795A3.411,3.411,0,0,0,273.383,97.9Zm-34.116,17.577v16.54a3.412,3.412,0,0,0,3.412,3.411h0a3.411,3.411,0,0,0,3.411-3.411V118.367a3.411,3.411,0,0,1,3.411-3.411h3.412a3.411,3.411,0,0,1,3.411,3.411v13.647a3.411,3.411,0,0,0,3.411,3.411h0a3.412,3.412,0,0,0,3.412-3.411V117.2l7.043,3.724a6.823,6.823,0,0,0,6.383,0v.007l9.033-4.776a3.414,3.414,0,0,0,1.423-4.61h0a3.413,3.413,0,0,0-4.614-1.424L273.39,114.9l-10.563-5.578a10.236,10.236,0,0,0-4.782-1.185H246.609A7.342,7.342,0,0,0,239.267,115.474Z" transform="translate(49.616 1168.986)"/></g></svg>