<svg xmlns="http://www.w3.org/2000/svg" width="81.98" height="81.98" viewBox="0 0 81.98 81.98"><defs><style>.a{fill:#fff;stroke:#065bfa;stroke-linecap:round;stroke-linejoin:round;stroke-width:6px;}</style></defs><g transform="translate(-1135.405 -4140.394)"><g transform="translate(1138.405 4143.394)"><path class="a" d="M63.547,48.351a5.7,5.7,0,0,0,1.14,6.286l.207.207a6.911,6.911,0,1,1-9.774,9.774l-.207-.207a5.745,5.745,0,0,0-9.739,4.075v.587a6.907,6.907,0,1,1-13.814,0v-.311a5.7,5.7,0,0,0-3.73-5.215,5.7,5.7,0,0,0-6.286,1.14l-.207.207a6.911,6.911,0,1,1-9.774-9.774l.207-.207a5.745,5.745,0,0,0-4.075-9.739H6.907a6.907,6.907,0,1,1,0-13.814h.311a5.7,5.7,0,0,0,5.215-3.73,5.7,5.7,0,0,0-1.14-6.286l-.207-.207a6.911,6.911,0,1,1,9.774-9.774l.207.207a5.7,5.7,0,0,0,6.286,1.14h.276a5.7,5.7,0,0,0,3.454-5.215V6.907a6.907,6.907,0,0,1,13.814,0v.311a5.745,5.745,0,0,0,9.739,4.075l.207-.207a6.911,6.911,0,1,1,9.774,9.774l-.207.207a5.7,5.7,0,0,0-1.14,6.286v.276a5.7,5.7,0,0,0,5.215,3.454h.587a6.907,6.907,0,0,1,0,13.814h-.311A5.7,5.7,0,0,0,63.547,48.351Z" transform="translate(0 0)"/><ellipse class="a" cx="9.967" cy="9.967" rx="9.967" ry="9.967" transform="translate(27.908 28.138)"/></g></g></svg>