<svg xmlns="http://www.w3.org/2000/svg" width="84.001" height="84.001" viewBox="0 0 84.001 84.001"><defs><style>.a{fill:none;stroke:#065bfa;stroke-linecap:round;stroke-linejoin:round;stroke-width:4px;}</style></defs><g transform="translate(2163.887 115.356)"><path class="a" d="M-2094.865-62.416a6.031,6.031,0,0,0,1.2,6.637l.219.219a7.31,7.31,0,0,1,.242,10.316,7.262,7.262,0,0,1-10.288.242c-.083-.078-.163-.159-.242-.242l-.219-.219a6.03,6.03,0,0,0-8.544.118,6.065,6.065,0,0,0-1.711,4.185v.621a7.284,7.284,0,0,1-7.382,7.183,7.283,7.283,0,0,1-7.164-7.183v-.328a6.016,6.016,0,0,0-3.927-5.507,5.989,5.989,0,0,0-6.619,1.2l-.219.219a7.263,7.263,0,0,1-10.288.243,7.31,7.31,0,0,1-.242-10.316c.079-.083.159-.164.242-.243l.219-.219a6.07,6.07,0,0,0-.118-8.567,6.032,6.032,0,0,0-4.174-1.716h-.624a7.283,7.283,0,0,1-7.382-7.183,7.284,7.284,0,0,1,7.164-7.4c.073,0,.145,0,.218,0h.327a6,6,0,0,0,5.492-3.938,6.029,6.029,0,0,0-1.2-6.637l-.218-.219a7.31,7.31,0,0,1-.242-10.316,7.263,7.263,0,0,1,10.288-.242c.083.079.163.16.242.242l.219.22a5.987,5.987,0,0,0,6.618,1.2h.291a6.015,6.015,0,0,0,3.637-5.507v-.624a7.283,7.283,0,0,1,7.382-7.183,7.283,7.283,0,0,1,7.163,7.183v.328a6.051,6.051,0,0,0,6.082,6.019,6.032,6.032,0,0,0,4.174-1.716l.219-.219a7.262,7.262,0,0,1,10.288-.242,7.311,7.311,0,0,1,.242,10.316c-.079.082-.16.163-.242.242l-.219.219a6.029,6.029,0,0,0-1.2,6.637v.291a6,6,0,0,0,5.492,3.647h.619a7.284,7.284,0,0,1,7.164,7.4,7.283,7.283,0,0,1-7.164,7.183h-.327A6,6,0,0,0-2094.865-62.416Z"/><ellipse class="a" cx="10.496" cy="10.524" rx="10.496" ry="10.524" transform="translate(-2132.391 -83.757)"/></g></svg>