<svg xmlns="http://www.w3.org/2000/svg" width="84.005" height="83.971" viewBox="0 0 84.005 83.971"><defs><style>.a{fill:none;stroke:#065bfa;stroke-linecap:round;stroke-linejoin:round;stroke-width:4px;}</style></defs><g transform="translate(2066.682 115.398)"><path class="a" d="M-2001.12-37.975c-6.629,1.222-13.18,1.965-19.449,3.709-7.039,1.959-12.863.61-18.848-3.371-7.157-4.758-14.851-8.726-22.327-13.014-2.066-1.184-3.252-2.8-2.857-5.265.483-3.012,3.435-4.638,6.515-3.468,4.051,1.541,8.014,3.322,12.09,4.8a29.723,29.723,0,0,0,6.975,1.459c3.557.207,7.136.137,10.7-.006a1.269,1.269,0,0,0,.194-.023,1.391,1.391,0,0,0,1.005-1.692,1.39,1.39,0,0,0-.787-.925,1.583,1.583,0,0,0-.477-.133c-2.138-.214-4.312-.023-6.469-.1a4.14,4.14,0,0,1-4.288-3.985c0-.064,0-.127,0-.191a4.021,4.021,0,0,1,3.7-4.323,4.05,4.05,0,0,1,.412-.012c8.016-.11,16.066-.462,24.036.14,3.219.243,6.282,2.689,9.373,4.218.318.158.483.9.483,1.378C-2001.11-51.941-2001.12-45.11-2001.12-37.975Z"/><path class="a" d="M-1998.217-64.366h10.639a2.9,2.9,0,0,1,2.9,2.89V-37.4a2.9,2.9,0,0,1-2.9,2.89h-10.639a2.9,2.9,0,0,1-2.9-2.89v-24.08A2.9,2.9,0,0,1-1998.217-64.366Z"/><path class="a" d="M-2024.535-77.375s2.156-34.68-13.037-34.68"/><path class="a" d="M-1996.344-112.055c-11.014-3.333-23.341-1.246-29.138,16.571C-2010.505-89.16-1996.344-98.388-1996.344-112.055Z"/></g></svg>