<svg xmlns="http://www.w3.org/2000/svg" width="89.413" height="85.701" viewBox="0 0 89.413 85.701"><defs><style>.a{fill:#fff;stroke-linecap:round;stroke-linejoin:round;}.a,.b{stroke:#065bfa;stroke-width:6px;}.b{fill:none;}</style></defs><g transform="translate(-1114.587 -4092.423)"><g transform="translate(-7.909 -47.971)"><g transform="translate(1138.405 4143.394)"><path class="a" d="M33.384,25.4a2.994,2.994,0,0,0,.6,3.3l.109.109a3.631,3.631,0,1,1-5.135,5.135l-.109-.109a3.018,3.018,0,0,0-5.116,2.141v.308a3.629,3.629,0,0,1-7.257,0v-.163a2.994,2.994,0,0,0-1.96-2.74,2.994,2.994,0,0,0-3.3.6l-.109.109a3.631,3.631,0,1,1-5.135-5.135l.109-.109a3.018,3.018,0,0,0-2.141-5.116H3.629a3.629,3.629,0,1,1,0-7.257h.163a2.994,2.994,0,0,0,2.74-1.96,2.994,2.994,0,0,0-.6-3.3L5.824,11.1a3.631,3.631,0,1,1,5.135-5.135l.109.109a2.994,2.994,0,0,0,3.3.6h.145a2.994,2.994,0,0,0,1.814-2.74V3.629a3.629,3.629,0,0,1,7.257,0v.163A3.018,3.018,0,0,0,28.7,5.933l.109-.109a3.631,3.631,0,1,1,5.135,5.135l-.109.109a2.994,2.994,0,0,0-.6,3.3v.145a2.994,2.994,0,0,0,2.74,1.814h.308a3.629,3.629,0,0,1,0,7.257h-.163A2.994,2.994,0,0,0,33.384,25.4Z" transform="translate(0 0)"/><ellipse class="a" cx="5.236" cy="5.236" rx="5.236" ry="5.236" transform="translate(14.661 14.782)"/></g></g><path class="b" d="M568.716,201.549c-6.855,1.269-13.628,2.04-20.11,3.851-7.278,2.033-13.3.633-19.488-3.5-7.4-4.94-15.356-9.06-23.086-13.511-2.136-1.23-3.362-2.907-2.954-5.467.5-3.127,3.552-4.815,6.737-3.6,4.188,1.6,8.286,3.449,12.5,4.984a30.57,30.57,0,0,0,7.212,1.515c3.678.215,7.379.142,11.064-.006a1.3,1.3,0,0,0,.2-.024,1.443,1.443,0,0,0,.226-2.717,1.635,1.635,0,0,0-.494-.138c-2.21-.222-4.458-.024-6.688-.1a4.288,4.288,0,0,1-4.436-4.335A4.17,4.17,0,0,1,533.65,174c8.288-.114,16.611-.48,24.852.145,3.328.253,6.495,2.792,9.691,4.38.329.164.5.938.5,1.43C568.726,187.049,568.716,194.141,568.716,201.549Z" transform="translate(614.596 3968.85)"/><rect class="b" width="17" height="31" rx="3" transform="translate(1184 4143)"/></g></svg>