<svg xmlns="http://www.w3.org/2000/svg" xmlns:xlink="http://www.w3.org/1999/xlink" width="70" height="70" viewBox="0 0 70 70"><defs><style>.a{fill:#065bfa;}.b{clip-path:url(#a);}</style><clipPath id="a"><rect class="a" width="70" height="70" transform="translate(288 1235)"/></clipPath></defs><g class="b" transform="translate(-288 -1235)"><path class="a" d="M25.565,28.3H2.663A2.7,2.7,0,0,1,0,25.641,25.637,25.637,0,0,1,25.565,0a2.7,2.7,0,0,1,2.663,2.663v22.9A2.619,2.619,0,0,1,25.565,28.3ZM5.554,22.9H22.978V5.554A20.182,20.182,0,0,0,5.554,22.9ZM37.359,70C19.326,70,4.717,56,4.717,38.728a3.052,3.052,0,0,1,3.043-3.043H35.685V7.761a3.052,3.052,0,0,1,3.043-3.043C55.7,4.717,70,19.63,70,37.359A32.732,32.732,0,0,1,37.359,70ZM11.033,41.772c1.6,12.478,12.783,22.141,26.326,22.141A26.627,26.627,0,0,0,63.913,37.359c0-13.315-9.891-24.728-22.141-26.326v27.7a3.052,3.052,0,0,1-3.043,3.043Z" transform="translate(288 1235)"/></g></svg>