<svg xmlns="http://www.w3.org/2000/svg" xmlns:xlink="http://www.w3.org/1999/xlink" width="70" height="70" viewBox="0 0 70 70"><defs><style>.a{fill:#065bfa;}.b{clip-path:url(#a);}</style><clipPath id="a"><rect class="a" width="70" height="70" transform="translate(288 1235)"/></clipPath></defs><g class="b" transform="translate(-288 -1235)"><path class="a" d="M67.2,56.9H45.992a10.294,10.294,0,0,0-6.245-6.245V39.746h24.02a3.431,3.431,0,1,0,0-6.863H60.335V12.294A10.294,10.294,0,0,0,50.041,2H22.589A10.294,10.294,0,0,0,12.294,12.294V32.883H8.863a3.431,3.431,0,0,0,0,6.863h24.02V50.659A10.294,10.294,0,0,0,26.638,56.9H5.431a3.431,3.431,0,0,0,0,6.863H26.638a10.294,10.294,0,0,0,19.354,0H67.2a3.431,3.431,0,0,0,0-6.863ZM19.157,32.883V12.294a3.431,3.431,0,0,1,3.431-3.431H50.041a3.431,3.431,0,0,1,3.431,3.431V32.883ZM36.315,63.767a3.431,3.431,0,1,1,3.432-3.431A3.431,3.431,0,0,1,36.315,63.767Z" transform="translate(286 1234.451)"/></g></svg>