<svg xmlns="http://www.w3.org/2000/svg" width="114" height="114" viewBox="0 0 114 114"><defs><style>.a{fill:#fffb8d;}.b{fill:none;stroke:#065bfa;stroke-linecap:round;stroke-linejoin:round;stroke-width:4px;}</style></defs><g transform="translate(-1170 -3374)"><circle class="a" cx="57" cy="57" r="57" transform="translate(1170 3374)"/><g transform="translate(1444.47 3406)"><g transform="translate(-242.47 0)"><ellipse class="b" cx="16.951" cy="5.454" rx="16.951" ry="5.454" transform="translate(0.174)"/><path class="b" d="M-227.493,35.517c-8.491-.361-14.977-2.759-14.977-5.674" transform="translate(242.47 -11.191)"/><path class="b" d="M-187.409,15.707V8.483" transform="translate(221.822 -3.181)"/><path class="b" d="M-242.47,8.483v26.7c0,2.606,5.182,4.8,12.347,5.492" transform="translate(242.47 -3.181)"/></g><g transform="translate(-223.73 18.903)"><path class="b" d="M-186.3,50.046a2.333,2.333,0,0,0,.469,2.579l.085.085a2.831,2.831,0,0,1,.094,4.01,2.848,2.848,0,0,1-4.02.094c-.032-.031-.064-.062-.094-.094l-.086-.085a2.364,2.364,0,0,0-3.338.046,2.348,2.348,0,0,0-.669,1.627v.241a2.839,2.839,0,0,1-2.884,2.792,2.838,2.838,0,0,1-2.8-2.792v-.127a2.339,2.339,0,0,0-1.535-2.14,2.348,2.348,0,0,0-2.586.468l-.085.086a2.849,2.849,0,0,1-4.021.094,2.832,2.832,0,0,1-.094-4.01c.031-.032.063-.063.094-.094l.086-.086a2.351,2.351,0,0,0-.046-3.33,2.365,2.365,0,0,0-1.631-.667h-.244a2.839,2.839,0,0,1-2.884-2.792,2.839,2.839,0,0,1,2.8-2.877h.212a2.344,2.344,0,0,0,2.146-1.531,2.334,2.334,0,0,0-.469-2.58l-.085-.085a2.831,2.831,0,0,1-.094-4.01,2.849,2.849,0,0,1,4.02-.094c.032.031.064.062.094.094l.086.086a2.349,2.349,0,0,0,2.586.467h.113a2.338,2.338,0,0,0,1.421-2.141v-.242a2.839,2.839,0,0,1,2.884-2.792,2.839,2.839,0,0,1,2.8,2.792v.127a2.358,2.358,0,0,0,2.376,2.34,2.367,2.367,0,0,0,1.631-.667l.085-.085a2.849,2.849,0,0,1,4.021-.094,2.832,2.832,0,0,1,.094,4.01c-.031.032-.062.064-.094.094l-.086.085a2.334,2.334,0,0,0-.469,2.58v.113a2.345,2.345,0,0,0,2.146,1.417h.242a2.838,2.838,0,0,1,2.8,2.877,2.839,2.839,0,0,1-2.8,2.792h-.127A2.345,2.345,0,0,0-186.3,50.046Z" transform="translate(212.486 -30.245)"/><ellipse class="b" cx="4.101" cy="4.091" rx="4.101" ry="4.091" transform="translate(11.525 11.505)"/></g></g></g></svg>