<svg xmlns="http://www.w3.org/2000/svg" width="498.679" height="618.009" viewBox="0 0 498.679 618.009"><defs><style>.a{fill:#065bfa;}.b{fill:#699cfc;}.c{fill:#fff;}.d{fill:#377bfb;}.e{fill:#173d7a;}.f{fill:#ffc02f;}.g{fill:#ffdf96;opacity:0.2;}</style></defs><g transform="translate(-917.1 -129.674)"><g transform="translate(1045.542 266.012)"><g transform="translate(2.77 283.381)"><path class="a" d="M-239.947,556.177c-39.58,30.072-114.567,36.48-167.5,14.306-33.112-13.889-49.743-35.646-47.865-57.373l-.268-57.283c.6,10.163,5.246,20.177,13.71,29.238,8.017,8.584,19.492,16.333,34.245,22.532a166.242,166.242,0,0,0,37.136,10.461,208.1,208.1,0,0,0,69.98-.447c23.307-4.173,44.617-12.4,60.353-24.35a75.95,75.95,0,0,0,10.223-9.239c8.911-9.627,13.352-20.028,13.591-30.4l-.119,57.254C-214.495,526.492-222.095,542.583-239.947,556.177Z" transform="translate(455.641 -385.397)"/><path class="b" d="M-264.316,443.936c-52.932-22.177-127.919-15.766-167.5,14.306-16.839,12.816-24.559,27.837-23.724,42.62v.3c.6,10.163,5.246,20.177,13.71,29.238,8.017,8.584,19.492,16.333,34.245,22.532a166.239,166.239,0,0,0,37.136,10.461,208.1,208.1,0,0,0,69.98-.447c23.307-4.172,44.617-12.4,60.353-24.35a75.954,75.954,0,0,0,10.223-9.239c8.911-9.627,13.352-20.028,13.591-30.4a1.284,1.284,0,0,0,0-.477C-216.034,477.734-232.664,457.229-264.316,443.936Zm6.617,82.915c-31.026,23.6-89.859,28.612-131.377,11.206-41.547-17.406-50.041-50.637-19.015-74.242,31.056-23.635,89.889-28.645,131.406-11.236S-226.644,503.246-257.7,526.851Z" transform="translate(455.6 -430.73)"/><path class="c" d="M-276.856,519.225c-31.026,23.6-89.859,28.612-131.377,11.206-41.547-17.406-50.041-50.637-19.015-74.242,31.056-23.635,89.889-28.645,131.406-11.236S-245.8,495.62-276.856,519.225Z" transform="translate(474.757 -423.104)"/></g><path class="d" d="M-276.856,519.225c-31.026,23.6-89.859,28.612-131.377,11.206-41.547-17.406-50.041-50.637-19.015-74.242,31.056-23.635,89.889-28.645,131.406-11.236S-245.8,495.62-276.856,519.225Z" transform="translate(477.527 -139.723)"/><path class="b" d="M-322.1,424.715l-14.309,55.644c-5.335,20.714-23.059,35.109-43.353,35.258h-.34c-20.264-.149-40.316-12.753-45.773-42.358l-7.4-49.034c0-1.728,49.9,2.039,53.346,2.247C-376.494,426.265-322.1,422.987-322.1,424.715Z" transform="translate(502.569 -161.124)"/><path class="a" d="M-348.245,460.127c-15.155,9.394-43.884,11.394-64.165,4.465-12.729-4.346-19.1-11.174-18.339-17.981l-.113-5.108c.23,3.171,2.009,6.3,5.252,9.126a39.106,39.106,0,0,0,13.123,7.031,75.252,75.252,0,0,0,14.237,3.264,97.735,97.735,0,0,0,26.824-.137c8.929-1.3,17.1-3.863,23.113-7.591a27.9,27.9,0,0,0,3.916-2.885c3.46-3.049,5.162-6.36,5.207-9.645l-.045,5.323C-338.493,450.861-341.4,455.883-348.245,460.127Z" transform="translate(507.363 -127.674)"/><path class="e" d="M-339.192,442.839c-.027,3.279-1.723,6.6-5.195,9.66a27.594,27.594,0,0,1-3.907,2.867c-6.041,3.732-14.19,6.295-23.11,7.6a98.318,98.318,0,0,1-26.839.149,74.791,74.791,0,0,1-14.244-3.275A38.928,38.928,0,0,1-425.6,452.8c-3.24-2.823-5.037-5.946-5.242-9.117V443.6a10.153,10.153,0,0,1,.078-2.194c.384,2.933,2.131,5.776,5.141,8.381a38.532,38.532,0,0,0,13.033,6.989,73.95,73.95,0,0,0,14.163,3.255,97.215,97.215,0,0,0,26.687-.128c8.87-1.3,16.991-3.842,22.955-7.555a29.552,29.552,0,0,0,3.91-2.864c3.442-3.04,5.141-6.339,5.165-9.594a1.485,1.485,0,0,0-.024-.325A9.12,9.12,0,0,1-339.192,442.839Z" transform="translate(507.353 -129.854)"/><path class="a" d="M-342.331,455.649c-16.4,10.169-47.5,12.336-69.461,4.834-13.784-4.7-20.681-12.095-19.853-19.468l-.125-5.529c.247,3.433,2.176,6.816,5.687,9.88,3.326,2.909,8.086,5.529,14.2,7.612a81.818,81.818,0,0,0,15.415,3.535,105.718,105.718,0,0,0,29.038-.152c9.668-1.41,18.508-4.179,25.023-8.217a30.326,30.326,0,0,0,4.238-3.12c3.746-3.305,5.588-6.888,5.639-10.443l-.051,5.761C-331.771,445.62-334.913,451.057-342.331,455.649Z" transform="translate(505.565 -139.722)"/><path class="e" d="M-332.53,436.936c-.027,3.55-1.863,7.144-5.621,10.458a30.774,30.774,0,0,1-4.229,3.1c-6.542,4.041-15.364,6.813-25.021,8.223a106.438,106.438,0,0,1-29.056.164,80.99,80.99,0,0,1-15.418-3.547c-6.125-2.092-10.885-4.7-14.2-7.615-3.505-3.055-5.454-6.438-5.678-9.868v-.1a11.438,11.438,0,0,1,.083-2.373c.417,3.171,2.31,6.25,5.568,9.069,3.311,2.915,8.044,5.5,14.109,7.567a80.383,80.383,0,0,0,15.334,3.526,105.113,105.113,0,0,0,28.889-.143c9.6-1.41,18.4-4.158,24.854-8.178a31.909,31.909,0,0,0,4.232-3.1c3.729-3.29,5.565-6.861,5.591-10.387a1.545,1.545,0,0,0-.027-.352A9.762,9.762,0,0,1-332.53,436.936Z" transform="translate(505.555 -142.083)"/><path class="a" d="M-337.034,450.519c-17.528,10.169-50.762,12.336-74.218,4.831-14.729-4.7-22.1-12.094-21.214-19.465l-.131-5.529c.265,3.433,2.325,6.816,6.077,9.877,3.553,2.912,8.637,5.529,15.176,7.615a92.72,92.72,0,0,0,16.47,3.535,120.884,120.884,0,0,0,31.026-.152c10.33-1.41,19.775-4.178,26.734-8.217a32.1,32.1,0,0,0,4.53-3.124c4-3.3,5.97-6.888,6.023-10.443l-.054,5.764C-325.756,440.487-329.109,445.927-337.034,450.519Z" transform="translate(503.925 -149.888)"/><path class="e" d="M-326.564,431.806c-.03,3.55-1.991,7.144-6.006,10.458a32.367,32.367,0,0,1-4.521,3.1c-6.986,4.044-16.413,6.816-26.731,8.226a121.451,121.451,0,0,1-31.047.164,91.374,91.374,0,0,1-16.473-3.55c-6.542-2.089-11.626-4.7-15.164-7.612-3.749-3.055-5.83-6.438-6.068-9.871v-.092a10.529,10.529,0,0,1,.089-2.375c.447,3.174,2.468,6.253,5.949,9.072,3.538,2.912,8.592,5.5,15.075,7.567a90.614,90.614,0,0,0,16.386,3.523,120.047,120.047,0,0,0,30.865-.14c10.259-1.41,19.656-4.161,26.555-8.178a34.714,34.714,0,0,0,4.518-3.1c3.985-3.29,5.949-6.864,5.979-10.387a1.427,1.427,0,0,0-.03-.355A9.289,9.289,0,0,1-326.564,431.806Z" transform="translate(503.913 -152.249)"/><path class="f" d="M-258.154,563.266a36.385,36.385,0,0,0-15.5,29.476v.358c0,17.227-10.812,32.839-65.98,32.839-28.249,0-52.968-15.613-52.968-32.839v-3.427a35.982,35.982,0,0,0-14.336-28.612,125.213,125.213,0,0,1-49.594-99.933,125.27,125.27,0,0,1,51.919-101.662h.03a121.884,121.884,0,0,1,13.62-8.613,125.064,125.064,0,0,1,64.735-15.111C-261.4,338.186-208.441,390.82-205.7,455.673A125.323,125.323,0,0,1-258.154,563.266Z" transform="translate(456.53 -335.649)"/><path class="g" d="M-319.2,566.846a36.4,36.4,0,0,0-15.5,29.506v.328c0,7.838-1.963,14.272-6.761,19.756,0,0-2.771.617-7.21,1.139s-10.547.949-10.547.949a40.334,40.334,0,0,0,2.076-11.086v-.358a36.306,36.306,0,0,1,15.5-29.476,125.449,125.449,0,0,0,52.455-107.623c-2.772-64.824-55.7-117.488-120.558-119.9a125.7,125.7,0,0,0-29.357,2.295,121.886,121.886,0,0,1,13.62-8.613,124.45,124.45,0,0,1,38.209-4.441c64.824,2.444,117.786,55.108,120.528,119.932A125.323,125.323,0,0,1-319.2,566.846Z" transform="translate(491.048 -328.559)"/></g><g transform="translate(917.101 305.482)"><path class="a" d="M0,13.051,59.076,45.76l31.756-11.48V21.33L35.224,4.1,0,0Z" transform="matrix(0.999, -0.035, 0.035, 0.999, 0.309, 12.03)"/><path class="b" d="M0,8.953,59.076,41.662l31.756-11.48L35.224,0Z" transform="matrix(0.999, -0.035, 0.035, 0.999, 0, 3.17)"/></g><g transform="translate(1323.096 473.718)"><path class="a" d="M0,13.051,59.076,45.76l31.756-11.48V21.33L35.224,4.1,0,0Z" transform="matrix(0.999, -0.035, 0.035, 0.999, 0.309, 12.03)"/><path class="b" d="M0,8.953,59.076,41.662l31.756-11.48L35.224,0Z" transform="matrix(0.999, -0.035, 0.035, 0.999, 0, 3.17)"/></g><g transform="translate(984.09 169.65) rotate(30)"><path class="a" d="M0,13.051,59.076,45.76l31.756-11.48V21.33L35.224,4.1,0,0Z" transform="matrix(0.999, -0.035, 0.035, 0.999, 0.309, 12.03)"/><path class="b" d="M0,8.953,59.076,41.662l31.756-11.48L35.224,0Z" transform="matrix(0.999, -0.035, 0.035, 0.999, 0, 3.17)"/></g><g transform="translate(1123.527 127.513) rotate(47)"><path class="a" d="M0,13.051,59.076,45.76l31.756-11.48V21.33L35.224,4.1,0,0Z" transform="matrix(0.999, -0.035, 0.035, 0.999, 0.309, 12.03)"/><path class="b" d="M0,8.953,59.076,41.662l31.756-11.48L35.224,0Z" transform="matrix(0.999, -0.035, 0.035, 0.999, 0, 3.17)"/></g><g transform="translate(1304.753 161.424) rotate(79)"><path class="a" d="M0,13.051,59.076,45.76l31.756-11.48V21.33L35.224,4.1,0,0Z" transform="matrix(0.999, -0.035, 0.035, 0.999, 0.309, 12.03)"/><path class="b" d="M0,8.953,59.076,41.662l31.756-11.48L35.224,0Z" transform="matrix(0.999, -0.035, 0.035, 0.999, 0, 3.17)"/></g><g transform="translate(1410.604 291.059) rotate(107)"><path class="a" d="M0,13.051,59.076,45.76l31.756-11.48V21.33L35.224,4.1,0,0Z" transform="matrix(0.999, -0.035, 0.035, 0.999, 0.309, 12.03)"/><path class="b" d="M0,8.953,59.076,41.662l31.756-11.48L35.224,0Z" transform="matrix(0.999, -0.035, 0.035, 0.999, 0, 3.17)"/></g></g></svg>