<svg xmlns="http://www.w3.org/2000/svg" width="1045.81" height="613.745" viewBox="0 0 1045.81 613.745"><defs><style>.a,.g{fill:#173d7a;}.a,.b{stroke:rgba(0,0,0,0);stroke-miterlimit:10;}.b,.f{fill:#377bfb;}.c{fill:#699cfc;}.d{isolation:isolate;}.e{fill:#065bfa;}.h{fill:#0a51d6;}</style></defs><g transform="translate(-307.864 -163.13)"><g transform="translate(307.864 236.872)"><path class="c" d="M279.112,239.088,113.457,143.169,240.5,69.971l165.657,95.917ZM117.359,143.173l161.757,93.661,123.139-70.949L240.5,72.225Z" transform="translate(29.998 -60.516)"/><path class="c" d="M621.995,336.736l-.487-.281L401.291,209.1l127.043-73.2.489.281L749.04,263.538ZM405.193,209.1l216.8,125.38,123.143-70.948-216.8-125.38Z" transform="translate(296.77 0.588)"/><path class="c" d="M405.166,467.533l-.487-.281L170.662,332.421l1.464-.846,286.2-165.235.488.281L692.829,301.453l-1.466.846Zm-230.6-135.113,230.6,132.862,283.756-163.83-230.6-132.862Z" transform="translate(83.017 28.801)"/><rect class="c" width="218.574" height="1.951" transform="translate(544.381 197.772) rotate(-29.981)"/><path class="c" d="M165.546,137.6a10.147,10.147,0,0,1-9.177,0c-2.534-1.464-2.534-3.836,0-5.3a10.147,10.147,0,0,1,9.177,0C168.079,133.762,168.079,136.134,165.546,137.6Z" transform="translate(68.008 -3.765)"/><path class="c" d="M473.319,215.082a10.143,10.143,0,0,1-9.176,0c-2.536-1.464-2.536-3.836,0-5.3a10.143,10.143,0,0,1,9.176,0C475.855,211.246,475.855,213.62,473.319,215.082Z" transform="translate(353.26 68.049)"/><path class="c" d="M375.478,283a10.147,10.147,0,0,1-9.177,0c-2.534-1.462-2.534-3.836,0-5.3a10.147,10.147,0,0,1,9.177,0C378.011,279.163,378.011,281.537,375.478,283Z" transform="translate(262.578 130.996)"/><path class="c" d="M164.367,250.711l-.487-.283L57.737,189.218l32.457-18.742.486.281,106.145,61.213ZM61.639,189.218l102.729,59.238,28.556-16.486L90.194,172.73Z" transform="translate(-21.644 32.634)"/><path class="c" d="M215.182,227.943l-.491-.288L39.005,124.861l103.949-59.8.975,1.69L42.893,124.876,215.186,225.685l52.3-30.282.978,1.69Z" transform="translate(-39.005 -65.064)"/><path class="c" d="M128.936,211.416a10.147,10.147,0,0,1-9.177,0c-2.534-1.464-2.534-3.836,0-5.3a10.147,10.147,0,0,1,9.177,0C131.469,207.58,131.469,209.952,128.936,211.416Z" transform="translate(34.077 64.651)"/><path class="c" d="M527.081,192.245,381.359,108.183,448.6,69.741,594.325,153.8Zm-141.8-84.054,141.809,81.8,63.323-36.2L448.6,71.992Z" transform="translate(278.296 -60.729)"/><path class="c" d="M427.758,115.894a10.135,10.135,0,0,1-9.177,0c-2.534-1.462-2.534-3.834,0-5.3a10.135,10.135,0,0,1,9.177,0C430.291,112.06,430.291,114.432,427.758,115.894Z" transform="translate(311.032 -23.881)"/><path class="c" d="M667.434,407.612l-202-116.806-39.263,22.772L367.514,279.8l.975-1.69,57.677,33.213,39.267-22.772.489.282L668.413,405.922Z" transform="translate(265.464 132.392)"/><rect class="c" width="1.951" height="143.62" transform="translate(157.934 274.26) rotate(-59.787)"/><path class="c" d="M488.524,234.967l-47.615-26.987-34.026,19.526-.971-1.694,34.99-20.079,47.615,26.987,31.936-18.4.975,1.69Z" transform="translate(301.052 65.312)"/></g><g class="d" transform="translate(486.691 163.13)"><g transform="translate(0 0)"><g class="d"><g transform="translate(57.521 126.716)"><path class="e" d="M124.729,150.346l61.9-32.059,55.215,30.935-61.9,32.059Z" transform="translate(-124.729 -118.287)"/></g><g transform="translate(156.523 229.574)"><path class="f" d="M182.554,209.794l61.9-32.059-.6,52.059-61.9,32.059Z" transform="translate(-181.949 -177.736)"/></g><g transform="translate(190.61 201.585)"><path class="f" d="M202.193,193.618l61.9-32.059-.543,46.747-61.9,32.059Z" transform="translate(-201.65 -161.559)"/></g><g transform="translate(157.671 182.827)"><path class="e" d="M182.613,182.776l61.9-32.059,33.481,18.758-61.9,32.059Z" transform="translate(-182.613 -150.718)"/></g><g transform="translate(113.275 111.258)"><path class="e" d="M156.953,141.412l61.9-32.059,44.936,25.176-61.9,32.059Z" transform="translate(-156.953 -109.353)"/></g><g transform="translate(157.671 136.434)"><path class="f" d="M183.152,155.963l61.9-32.059L244.51,170.3l-61.9,32.059Z" transform="translate(-182.613 -123.904)"/></g><g transform="translate(99.196)"><path class="e" d="M148.816,77.108l61.9-32.059,49.929,27.973-61.9,32.059Z" transform="translate(-148.816 -45.05)"/></g><g transform="translate(57.521 27.973)"><path class="g" d="M216.333,93.276l61.9-32.059-91.6,98.743-61.9,32.059Z" transform="translate(-124.729 -61.217)"/></g><g transform="translate(0 32.059)"><path class="h" d="M240.608,91.551,149,190.295l55.215,30.935.539-46.393,44.936,25.176-.539,46.393,33.481,18.758-.543,46.746-33.481-18.758-.6,52.059-46.4-26,.605-52.059L91.484,205.119l.449-38.6L190.68,63.578Z" transform="translate(-91.484 -63.578)"/></g></g><g class="d" transform="translate(205.525 94.353)"><path class="a" d="M54.092,198.788c-.493,0-.991-.021-1.5-.059-.439-.036-.887-.079-1.336-.145a1.6,1.6,0,0,1-.2-.025c-.454-.068-.912-.147-1.371-.24-.478-.1-.956-.208-1.439-.331s-.956-.267-1.445-.418-.981-.321-1.479-.5c-.212-.074-.424-.158-.636-.237l-.034-.015c-.025-.01-.044-.021-.069-.03a.133.133,0,0,1-.035-.008.477.477,0,0,0-.074-.033s0,0,0,0c-.222-.084-.444-.176-.665-.272-.316-.128-.631-.265-.952-.41l-.03-.013a.452.452,0,0,1-.059-.025l-.079-.035-.025-.015c-.079-.03-.153-.071-.227-.1a.357.357,0,0,1-.064-.025.233.233,0,0,0-.03-.013c-.034-.021-.064-.03-.094-.046s-.059-.025-.089-.038q-1.08-.511-2.189-1.1c-.31-.166-.621-.341-.937-.519l-.148-.084c-.562-.32-1.129-.644-1.686-.99s-1.109-.7-1.662-1.054c-.532-.361-1.06-.731-1.587-1.1s-1.05-.769-1.568-1.174-1.035-.812-1.548-1.243-1.02-.856-1.523-1.3-1-.919-1.5-1.38c-.488-.478-.981-.963-1.464-1.454s-.942-.983-1.405-1.5-.912-1.01-1.361-1.528-.9-1.069-1.341-1.616-.887-1.125-1.321-1.7q-.762-1.008-1.484-2.052c-.6-.847-1.183-1.726-1.755-2.617q-1.723-2.7-3.3-5.67-.939-1.774-1.824-3.643c-.192-.415-.384-.823-.577-1.237-.02-.046-.04-.089-.054-.133-.034-.063-.064-.133-.093-.2a1.742,1.742,0,0,0-.079-.175c-.02-.054-.044-.1-.069-.156s-.054-.13-.084-.193c-.01-.02-.02-.044-.03-.066-.039-.092-.084-.191-.128-.29-.35-.794-.7-1.607-1.031-2.426-.291-.71-.577-1.43-.848-2.152-.148-.39-.3-.776-.439-1.164-.2-.522-.389-1.051-.572-1.583-.325-.917-.636-1.845-.947-2.791s-.606-1.91-.9-2.894c-.33-1.1-.646-2.228-.956-3.371q-.466-1.769-.912-3.605-.473-1.966-.9-4.017v-.01c-.178-.853-.35-1.721-.523-2.594-.118-.611-.232-1.227-.345-1.849-.286-1.591-.552-3.2-.8-4.86-.261-1.746-.5-3.514-.725-5.329q-.288-2.389-.522-4.862c-.01-.132-.025-.257-.035-.389a.017.017,0,0,0,0-.01c-.044-.507-.089-1.014-.133-1.528q-.258-2.93-.434-5.97-.222-3.743-.33-7.651-.111-4.3-.089-8.8c0-.548,0-1.105.015-1.657.025-2.568.094-5.053.188-7.46q.163-4.081.454-7.833.258-3.461.636-6.64c.069-.6.138-1.189.212-1.77.183-1.416.375-2.787.587-4.117.281-1.774.592-3.485.932-5.122.33-1.588.685-3.116,1.06-4.565s.784-2.824,1.208-4.142c.148-.461.306-.917.458-1.365a.254.254,0,0,0,.015-.04c.02-.049.035-.094.049-.142a.946.946,0,0,0,.04-.11l.044-.127c.01-.025.02-.049.03-.077.024-.061.044-.12.064-.18.222-.6.444-1.187.675-1.764.513-1.276,1.06-2.477,1.627-3.6.227-.445.458-.879.69-1.3.414-.739.833-1.439,1.272-2.1.054-.086.108-.168.163-.252.522-.777,1.065-1.509,1.622-2.185,0,0,.005-.008.01-.013.025-.025.045-.054.069-.079a.373.373,0,0,1,.054-.069l.034-.043a.844.844,0,0,0,.079-.1c.01-.008.02-.02.03-.028a.767.767,0,0,1,.094-.109.03.03,0,0,1,.01-.016c.035-.038.069-.079.1-.117,0,0,0,0,0-.012a19.426,19.426,0,0,1,5.64-4.524L80.073,0c-.108.058-.217.119-.325.178l.058-.031A21.425,21.425,0,0,0,72.324,7.3c-.321.483-.641.98-.947,1.5a.229.229,0,0,0-.035.054l-.064.107a56.868,56.868,0,0,0-5.827,15.716c-.005.012-.005.02-.01.03s-.01.044-.015.069c-.172.744-.34,1.509-.5,2.289-.059.287-.118.565-.177.856q-.8,4.044-1.385,8.682c-.054.464-.108.926-.163,1.4-.128,1.07-.242,2.164-.35,3.277V41.3c-.01.084-.02.166-.024.245-.059.632-.118,1.268-.173,1.912-.035.42-.064.838-.1,1.263q-.289,3.75-.454,7.838c-.039,1.023-.074,2.057-.1,3.113-.005.069-.005.132-.005.2a.49.49,0,0,0,0,.082q-.044,1.784-.069,3.635c0,.142,0,.28-.01.423,0,.553-.01,1.1-.01,1.65q-.03,4.506.089,8.8.1,3.918.33,7.651.148,2.522.345,4.969c.01.119.02.232.03.351,0,.059.01.122.015.188q.089,1.072.192,2.131c.163,1.737.35,3.444.547,5.122q.333,2.72.725,5.339c.217,1.444.449,2.857.695,4.254.212,1.217.439,2.409.675,3.589.1.494.2.977.3,1.459q.259,1.233.533,2.451c.173.748.35,1.5.528,2.238.207.827.414,1.65.626,2.464a114.582,114.582,0,0,0,5.99,17.256c.2.453.4.9.611,1.346.261.562.528,1.123.794,1.672.138.287.276.562.414.838l.044.092c.04.079.079.153.118.232q1.693,3.345,3.56,6.35c.01.015.02.03.03.043.044.079.093.158.143.232.03.046.054.091.084.128.034.054.069.114.1.168l.118.193a72.578,72.578,0,0,0,4.333,6.1c.089.109.178.221.266.329.054.066.1.128.153.194a.175.175,0,0,1,.025.025c.034.043.069.087.1.133q1.1,1.334,2.238,2.6c.059.069.123.132.187.2.212.237.429.466.646.7q1.671,1.769,3.421,3.348c.1.1.2.183.3.27.054.051.108.1.168.155.345.306.7.609,1.05.906.1.086.2.168.306.252.044.038.089.079.138.114a54.453,54.453,0,0,0,8.056,5.532l0,0h0c.518.29,1.035.565,1.548.833.4.2.794.4,1.193.591a.347.347,0,0,1,.055.03.024.024,0,0,1,.015,0c.128.066.257.125.385.183.01,0,.015,0,.02.012s.01,0,.02.01.044.02.069.028l.034.016c.025.008.045.023.069.033a.741.741,0,0,1,.1.051.012.012,0,0,1,.01,0c.271.125.538.242.8.354a36.275,36.275,0,0,0,3.451,1.293h0c.631.2,1.262.374,1.883.522a.327.327,0,0,0,.064.021.025.025,0,0,1,.015,0q.458.106.917.2c.148.03.291.054.434.084.281.049.562.1.838.138.059.008.123.02.182.025.035,0,.069.008.1.015.276.04.547.068.818.1.177.02.355.036.532.046.217.02.439.028.656.04h.034q.592.027,1.168.013h.089c.419,0,.833-.028,1.237-.063l-61.9,32.054c-.109.01-.222.021-.335.03h-.02c-.03,0-.064,0-.094,0a.107.107,0,0,0-.039,0h-.054c-.355.025-.71.036-1.07.036Zm1.691-.076,61.9-32.054c.449-.044.887-.094,1.321-.17a.032.032,0,0,1,.02,0l.1-.015a.049.049,0,0,1,.03-.007c.035-.008.064-.008.1-.018a.042.042,0,0,0,.025-.007c.094-.013.187-.033.281-.046l-61.9,32.054-.38.074c-.454.072-.907.138-1.366.183-.02,0-.039,0-.054,0a.122.122,0,0,0-.034,0Zm63.769-32.319c.108-.026.212-.046.32-.071.01,0,.02,0,.03,0a.245.245,0,0,0,.064-.02c.4-.087.808-.191,1.2-.316h.01c.03-.008.054-.02.084-.028a.8.8,0,0,0,.084-.025.018.018,0,0,0,.015,0c.178-.059.355-.12.533-.178L60,197.8c-.419.148-.838.282-1.272.4v.007l-.124.028c-.315.084-.626.152-.946.217Zm2.342-.647a16.421,16.421,0,0,0,2.056-.9l-61.9,32.06c-.03.013-.055.03-.084.04-.365.186-.735.364-1.109.522a.256.256,0,0,0-.064.025l-.035.013c-.251.1-.5.2-.759.292ZM80.073,0l-.267.143Z" transform="translate(48.166 56.962)"/><path class="b" d="M109.722,306.22l-.089.044C109.662,306.25,109.693,306.233,109.722,306.22Zm.083-.043c-.01.007-.021.012-.034.018s-.033.015-.05.025Zm.006-.007a.8.8,0,0,0,.1-.054l.037-.016-.147.077Zm.174-.089-.026.015-.008,0Zm.061-.031-.061.031C110.005,306.074,110.026,306.062,110.047,306.051Zm.029-.013h0l-.028.013Zm.018-.016c.05-.025.094-.049.139-.074a.394.394,0,0,0,.04-.018,1.087,1.087,0,0,0,.1-.056c.015-.008.03-.013.045-.023.035-.02.069-.04.1-.061a.312.312,0,0,0,.035-.013,1.51,1.51,0,0,1,.139-.081s.015,0,.02-.008a1.014,1.014,0,0,1,.114-.066c.015-.01.035-.018.05-.03a.657.657,0,0,0,.094-.049.182.182,0,0,0,.04-.025c.045-.025.084-.046.124-.071.005,0,.01-.008.015-.008.044-.025.094-.049.139-.079.01,0,.02-.016.029-.02.035-.021.075-.041.109-.059.01-.012.025-.015.035-.025.04-.02.084-.044.124-.069,0,0,.01,0,.015-.012.045-.025.094-.054.139-.084.01,0,.01,0,.015,0,.045-.025.084-.049.124-.074.01-.008.025-.015.035-.025.035-.02.069-.04.109-.066a.072.072,0,0,0,.03-.018c.094-.056.183-.114.278-.168l.02-.016c.045-.025.084-.049.124-.074,0,0,.015-.008.02-.013l.283-.181h0a1.586,1.586,0,0,1,.139-.082.148.148,0,0,0,.015-.016c6.5-4.193,12.115-10.422,16.665-18.712a.011.011,0,0,1,.005-.008c.035-.066.069-.128.1-.194a.108.108,0,0,0,.02-.038c.035-.066.069-.125.1-.189.01-.016.02-.035.03-.054.03-.049.054-.1.084-.153.01-.016.015-.036.025-.049.035-.066.069-.125.1-.189a.5.5,0,0,0,.03-.054c.035-.059.065-.12.1-.178a.027.027,0,0,1,.01-.021c.035-.074.069-.14.109-.214a.035.035,0,0,0,.01-.025q1.495-2.853,2.816-6.018a.712.712,0,0,1,.04-.082.259.259,0,0,1,.025-.061q.186-.455.372-.906c.183-.461.367-.927.545-1.4.01-.025.02-.049.03-.071s.025-.063.035-.1.035-.079.05-.124c0-.01.01-.03.015-.038.119-.318.243-.641.357-.963,0,0,0-.008.01-.013.02-.056.039-.11.059-.17,0-.015.01-.025.015-.04.015-.04.03-.079.044-.125a.616.616,0,0,1,.035-.087c0-.02.015-.041.02-.066q.558-1.532,1.071-3.123.988-3.051,1.849-6.331c.3-1.14.58-2.3.858-3.485a.9.9,0,0,1,.025-.114c0-.015,0-.028.01-.044q.654-2.841,1.209-5.835a.236.236,0,0,1,.01-.049c.005-.038.015-.079.02-.124s.015-.079.025-.124c0-.015,0-.025,0-.04.218-1.186.427-2.385.62-3.608q.535-3.382.956-6.955v0a.554.554,0,0,0,.01-.084c.02-.135.03-.264.05-.4q.416-3.646.714-7.485.268-3.478.426-7.123a.113.113,0,0,0,.005-.041v-.079c.074-1.634.129-3.3.173-4.987.025-1.056.045-2.126.055-3.2.005-.153.005-.3.005-.455v-.165c0-.071,0-.138,0-.208,0-.4.005-.789.005-1.191q.007-1.354,0-2.7v-.115c-.005-.1-.005-.208-.005-.311q-.052-7.265-.5-14.361a.3.3,0,0,1-.005-.071c-.01-.132-.02-.257-.025-.389a1.314,1.314,0,0,1-.01-.145c-.01-.109-.015-.219-.025-.326,0-.054-.005-.112-.01-.165-.005-.114-.015-.232-.02-.347a1.006,1.006,0,0,1-.01-.114c-.01-.143-.02-.277-.03-.422a.123.123,0,0,0-.005-.04q-.253-3.644-.614-7.238c0-.038-.005-.082-.01-.128-.01-.077-.02-.173-.025-.257-.015-.11-.025-.214-.035-.318,0-.025-.005-.044-.005-.064-.154-1.49-.317-2.979-.5-4.455-.059-.463-.114-.919-.174-1.38q-.3-2.372-.639-4.718c-.054-.382-.114-.758-.169-1.146l-.178-1.158q-.461-2.952-.986-5.865c-.04-.234-.084-.471-.129-.7q-1.591-8.708-3.777-17.049c-.025-.092-.05-.188-.075-.282,0-.01,0-.025,0-.03-.114-.43-.228-.863-.342-1.29-.139-.514-.283-1.031-.421-1.551-.02-.069-.04-.128-.059-.2-.01-.041-.02-.074-.03-.115-.159-.585-.327-1.163-.491-1.742-.03-.11-.059-.214-.094-.318,0-.021-.01-.046-.015-.066l-.089-.311c-.005-.016-.01-.031-.015-.044-.9-3.109-1.863-6.182-2.88-9.2-.035-.1-.064-.2-.1-.3,0,0,0,0,0-.008q-.446-1.309-.9-2.609c-.158-.44-.317-.886-.476-1.327-.02-.049-.035-.1-.055-.145s-.035-.1-.055-.148c-.124-.356-.258-.708-.387-1.061-.025-.074-.05-.143-.079-.217-.01-.025-.015-.049-.024-.076-.253-.679-.506-1.357-.763-2.032-.129-.341-.258-.683-.392-1.019-.015-.036-.03-.086-.044-.12-.02-.053-.04-.11-.065-.165-.327-.842-.659-1.69-1-2.526-.154-.377-.3-.749-.456-1.125q-1-2.463-2.062-4.868c-.491-1.115-.986-2.227-1.492-3.327-.392-.843-.783-1.685-1.185-2.523h.005q-.454-.936-.907-1.874a.441.441,0,0,1-.02-.04c-.04-.079-.079-.153-.114-.232q-1.294-2.638-2.657-5.216c-.035-.069-.069-.132-.1-.2a.42.42,0,0,1-.045-.079c-.059-.109-.114-.219-.174-.323q-3.673-6.914-7.792-13.34c-.387-.6-.773-1.194-1.16-1.79-.025-.033-.045-.063-.069-.1q-.067-.1-.134-.208c-.04-.058-.084-.128-.124-.186s-.069-.107-.1-.161c-.064-.094-.129-.193-.193-.285-.015-.021-.03-.046-.045-.066-.079-.124-.163-.244-.243-.367-.02-.03-.04-.054-.055-.079l-.188-.278c-.03-.049-.065-.1-.094-.143-.044-.063-.089-.128-.134-.193s-.089-.135-.134-.2c-.02-.036-.045-.066-.065-.1q-.736-1.08-1.477-2.143c-.912-1.3-1.839-2.587-2.781-3.852-.6-.817-1.219-1.63-1.834-2.429a.019.019,0,0,1-.01-.015c-.059-.074-.114-.148-.174-.227a.8.8,0,0,1-.084-.109l-.109-.14c-.634-.815-1.279-1.63-1.928-2.437q-1.643-2.045-3.336-4.022t-3.42-3.859q-1.785-1.959-3.619-3.829c-.426-.44-.857-.873-1.289-1.3a.787.787,0,0,0-.064-.066c-.04-.038-.074-.074-.114-.112-.342-.343-.7-.695-1.046-1.033-.015-.01-.025-.03-.039-.04-.055-.049-.109-.1-.159-.153s-.084-.079-.119-.119-.059-.054-.089-.084c-.263-.255-.526-.512-.788-.764-1.254-1.194-2.523-2.37-3.807-3.514q-1.9-1.687-3.842-3.305c-.1-.081-.193-.16-.293-.239-.029-.03-.059-.049-.094-.079s-.089-.074-.134-.115-.1-.082-.159-.128l-.084-.069c-.054-.046-.114-.089-.169-.133-.035-.03-.064-.054-.1-.084s-.089-.074-.134-.114c-.9-.725-1.795-1.444-2.7-2.143q-1.919-1.487-3.876-2.89c-1.294-.927-2.6-1.833-3.916-2.706s-2.642-1.724-3.975-2.543-2.686-1.616-4.04-2.385c-.119-.063-.233-.128-.352-.2l61.9-32.055c.084.049.173.1.263.148.3.17.595.338.887.506q1.629.936,3.242,1.922c.555.343,1.115.69,1.671,1.042.025.02.054.041.084.061l.154.092c.04.025.074.049.114.074a1.631,1.631,0,0,0,.154.1c.04.025.079.049.114.076s.1.064.148.094.089.059.134.091l.124.079c.079.049.144.094.218.143.015,0,.025.015.04.018q1.086.714,2.166,1.448c.759.517,1.512,1.038,2.26,1.571a.4.4,0,0,1,.05.041,1.517,1.517,0,0,1,.149.1c.739.525,1.467,1.056,2.2,1.6l.02.015c.054.035.109.079.163.12.431.323.857.649,1.289.977.52.4,1.046.807,1.567,1.215.04.033.079.063.119.092l.084.069c.877.695,1.745,1.4,2.607,2.118a.265.265,0,0,1,.064.049c.466.392.932.777,1.393,1.174,0,0,.01.008.015.008.065.058.129.115.193.17s.114.094.169.145c.015.015.035.025.05.04q3.629,3.123,7.108,6.532c.01.007.015.016.025.02.07.071.129.128.2.194.02.025.045.049.064.069.055.054.1.1.159.155.084.082.168.168.253.252.025.025.049.044.07.069.049.049.1.1.149.145.03.033.064.068.1.1s.089.092.139.138c.035.036.064.069.1.1s.089.094.139.14c.03.033.07.069.1.1l.149.15a1.146,1.146,0,0,0,.084.079c.06.064.114.124.178.184a.438.438,0,0,0,.03.035c.149.148.3.3.441.45q.967.988,1.924,2c.03.036.064.071.094.1a.379.379,0,0,1,.06.066c.515.545,1.031,1.1,1.541,1.658.273.3.546.6.813.9q2.089,2.32,4.114,4.751c.055.063.109.128.164.193a.106.106,0,0,0,.015.013c.555.67,1.105,1.344,1.651,2.027.208.26.416.512.62.774.03.036.055.064.079.1s.079.094.119.145c.535.679,1.061,1.359,1.591,2.047a.089.089,0,0,1,.02.025c.054.069.109.143.168.217.03.041.059.079.094.125a.777.777,0,0,0,.059.074c.194.252.387.509.575.764.218.287.436.58.65.866.491.66.981,1.329,1.467,2,.5.69.987,1.38,1.477,2.08q2.164,3.076,4.219,6.294c.421.654.838,1.314,1.249,1.971a.5.5,0,0,0,.035.061c.06.094.114.188.173.278q1.866,3.009,3.648,6.136a.211.211,0,0,0,.025.043c.049.094.1.189.159.283.02.04.045.079.065.12.044.079.094.158.139.237s.089.158.129.239c.025.038.049.084.075.128.074.133.148.268.223.4a.366.366,0,0,0,.03.044c.069.128.138.252.208.38a.163.163,0,0,1,.015.025c.545.988,1.091,1.983,1.621,2.991q2.082,3.9,4.01,7.959,1.375,2.885,2.677,5.848.914,2.1,1.8,4.229c.134.328.273.659.406.993.595,1.456,1.17,2.928,1.74,4.415.035.1.075.2.109.293a.07.07,0,0,1,.01.025c.04.1.079.2.114.3.015.044.035.089.049.14s.05.124.075.181c.089.244.178.492.273.736.01.03.025.063.035.1.03.074.055.148.084.222.015.04.035.089.049.133.025.071.05.14.075.208.02.049.04.1.059.156.025.074.055.148.079.221.04.1.07.189.1.288.025.066.044.124.069.183s.04.115.06.17.049.138.074.2c.015.044.035.091.05.128.03.086.055.165.089.247,0,.008,0,.012,0,.016.149.417.3.832.441,1.248.223.634.446,1.27.665,1.9.015.04.025.086.039.124.025.066.045.128.07.2.084.254.173.512.257.766,0,.013.01.028.015.044.035.1.07.2.1.3.014.046.03.089.04.133s.035.1.049.14c.168.506.337,1.021.5,1.532.228.688.446,1.377.665,2.067,0,0,0,.015,0,.02.035.1.065.2.094.3.02.053.035.112.055.168s.035.117.054.178q.944,3.034,1.81,6.117a.377.377,0,0,0,.02.066c.025.1.054.2.079.291.019.074.044.148.064.222.01.041.02.074.03.115.163.591.322,1.179.481,1.774.173.634.342,1.275.511,1.91a.051.051,0,0,0,0,.025c.025.107.055.216.084.331.01.038.02.069.03.109.02.089.044.178.069.268.015.058.025.114.04.173s.04.138.054.212.04.155.065.239c.01.049.025.1.035.153q.35,1.376.679,2.762c.094.392.189.777.278,1.174.01.03.015.059.025.1.02.082.04.161.059.247.025.109.044.208.07.311l.015.061c.52,2.245,1.006,4.5,1.462,6.8.01.054.025.109.035.165s.025.133.04.2c.015.087.035.183.054.277.005.035.015.064.02.1.02.109.044.219.064.328,0,.03.01.054.015.079.025.115.045.227.065.338a.975.975,0,0,1,.025.12c.02.092.035.183.054.272s.035.183.05.278a.814.814,0,0,1,.02.107q1.323,6.937,2.255,14.1a.352.352,0,0,1,.01.074,1.158,1.158,0,0,0,.02.125q.141,1.084.268,2.171c.114.922.218,1.84.317,2.765.01.071.015.14.025.211s.015.133.02.2c.015.128.03.257.045.385v.016c.233,2.176.431,4.351.609,6.553q.187,2.376.337,4.789a.235.235,0,0,0,0,.058c.005.114.015.229.02.343.005.059.005.128.01.188s.01.12.01.178q.067,1.08.119,2.167v.04c0,.12.015.254.02.372,0,.043,0,.089,0,.133,0,.1.01.2.015.313,0,.064,0,.128.01.193,0,.094.01.189.01.277s.01.148.01.231.01.161.015.247,0,.171.01.257.005.158.01.232.005.165.01.244.005.178.01.268c0,.049,0,.1,0,.148q.23,6.008.183,12.124c0,.352,0,.7-.01,1.047-.015,1.125-.035,2.233-.059,3.333a211.6,211.6,0,0,1-1.814,23.537c0,.008,0,.025,0,.04,0,.054-.015.109-.025.163a.594.594,0,0,1-.015.1c0,.041-.01.079-.015.12s-.01.082-.02.128a.357.357,0,0,1-.01.079c0,.054-.015.11-.02.168,0,.016,0,.03-.01.051-.01.058-.015.124-.025.181a.07.07,0,0,0,0,.03c-.01.066-.02.135-.03.2a.069.069,0,0,1,0,.031c-.01.058-.015.124-.025.186a.1.1,0,0,0,0,.036c-.01.059-.02.122-.03.183,0,.013,0,.035,0,.054-.01.049-.015.1-.025.158a.292.292,0,0,0-.01.069,1.314,1.314,0,0,0-.02.14c-.01.035-.01.071-.02.1s-.01.071-.014.1c-.005.051-.015.1-.02.155,0,.015,0,.033-.01.053-.01.066-.02.128-.03.194v.01c-.079.515-.164,1.028-.248,1.537,0,.01,0,.021,0,.025l-.03.2a.024.024,0,0,1-.005.02c-.01.069-.02.133-.03.2a.047.047,0,0,0,0,.026,130.372,130.372,0,0,1-4.179,17.73c-.079.257-.163.514-.248.774q-.669,2.048-1.388,3.994s0,.015-.01.025l-.044.119a80.465,80.465,0,0,1-4.992,10.916c-.005.016-.015.03-.02.041a1.743,1.743,0,0,0-.1.183.468.468,0,0,0-.055.094c-.02.03-.035.059-.054.087a1.329,1.329,0,0,1-.069.125.593.593,0,0,1-.04.074c-.03.056-.065.11-.094.165a.576.576,0,0,1-.035.054c-.035.064-.07.124-.1.189,0,0,0,0,0,.008-.035.059-.07.12-.1.175a.3.3,0,0,1-.035.058c-.035.061-.069.115-.1.175a.434.434,0,0,1-.03.049c-.03.044-.055.094-.079.14-.015.025-.03.044-.044.069-.03.054-.065.109-.094.158-.015.03-.035.054-.049.079a1.072,1.072,0,0,1-.055.094c-.02.035-.04.066-.059.1l-.044.076c-.035.058-.075.119-.109.178l-.025.04a53.269,53.269,0,0,1-9.418,11.614s-.005.012-.01.012c-.134.124-.263.24-.4.356a.218.218,0,0,0-.02.02c-.03.03-.059.054-.089.079a.05.05,0,0,0-.02.016c-.094.082-.193.171-.292.257-.005,0-.01.008-.015.008-.029.03-.059.054-.089.086a.18.18,0,0,1-.025.013c-.094.086-.189.17-.288.249l-.015.016-.089.074a.1.1,0,0,0-.03.025l-.089.074-.005,0c-.069.058-.134.115-.2.168l0,0-.084.071a.427.427,0,0,0-.035.028c-.03.025-.06.046-.084.071a.145.145,0,0,1-.03.018c-.094.081-.189.155-.282.234a.088.088,0,0,0-.025.02.68.68,0,0,0-.089.069c-.01.01-.02.015-.03.025a1.089,1.089,0,0,0-.089.069h0c-.059.049-.124.1-.188.153-.01,0-.02.016-.03.02l-.079.066c-.015.01-.025.018-.04.03a.862.862,0,0,1-.084.063c-.01.007-.015.016-.025.021-.094.074-.193.143-.292.217a.088.088,0,0,1-.025.025c-.03.021-.06.041-.089.066a.385.385,0,0,0-.03.025c-.1.068-.194.138-.287.208-.01.01-.02.013-.025.02-.03.025-.06.043-.089.064-.01.012-.025.02-.035.03a.906.906,0,0,0-.084.061.171.171,0,0,0-.03.02c-.094.068-.193.137-.287.207a.15.15,0,0,0-.035.025l-.089.058a.089.089,0,0,1-.03.021c-.094.069-.194.135-.287.2a.114.114,0,0,1-.035.025c-.03.016-.055.041-.084.061a.116.116,0,0,0-.035.025.739.739,0,0,0-.094.059.021.021,0,0,1-.01,0c-.06.046-.124.091-.184.128-.015.007-.025.016-.035.021a.768.768,0,0,1-.084.054c-.015.015-.03.02-.044.035s-.049.03-.079.051c-.015.008-.03.02-.044.028-.065.041-.129.084-.188.125a.91.91,0,0,1-.089.054.309.309,0,0,1-.04.028.9.9,0,0,0-.084.058.409.409,0,0,0-.049.028.354.354,0,0,1-.079.049c-.005,0-.01,0-.015.01-.059.041-.119.074-.178.115a.346.346,0,0,0-.044.03.7.7,0,0,0-.079.049l-.05.028c-.029.021-.054.035-.079.051s-.03.02-.04.025c-.06.033-.119.074-.173.107a.191.191,0,0,0-.025.016.813.813,0,0,0-.084.049.408.408,0,0,0-.05.03l-.079.044a.226.226,0,0,1-.049.035l-.134.074c-.02.015-.04.025-.064.041s-.045.025-.065.04-.044.025-.065.038-.049.03-.074.046a.378.378,0,0,0-.06.033c-.024.016-.049.025-.069.041a.508.508,0,0,0-.075.038c-.035.021-.074.046-.114.066-.02.016-.044.025-.069.041a.659.659,0,0,1-.065.038.476.476,0,0,0-.064.041c-.025.008-.05.025-.07.033s-.055.03-.079.044a.391.391,0,0,1-.055.03c-.044.025-.084.049-.129.071a.526.526,0,0,1-.054.033c-.025.016-.055.025-.079.041a.267.267,0,0,1-.059.033c-.03.016-.055.033-.079.046s-.04.02-.06.03l-.128.069c-.015,0-.025.016-.035.02-.035.021-.07.035-.1.054a.124.124,0,0,1-.049.025.63.63,0,0,1-.094.049.151.151,0,0,1-.044.025l-.139.076-61.455,31.828C110.081,306.031,110.09,306.026,110.094,306.021ZM56.108,43.126c-.506-.282-1.011-.562-1.517-.835a.263.263,0,0,1-.064-.038c-.03-.016-.059-.03-.089-.044q-3.2-1.724-6.335-3.157a.03.03,0,0,1-.02-.007c-.064-.03-.129-.059-.193-.087a.14.14,0,0,0-.044-.021c-.059-.025-.119-.053-.174-.079a.541.541,0,0,1-.079-.035l-.193-.089h-.005q-2.624-1.176-5.2-2.146c-.253-.1-.51-.194-.763-.285-.466-.173-.937-.336-1.4-.5q-2.759-.951-5.448-1.665l-.293-.074-.58-.148-.054-.016a.231.231,0,0,1-.07-.02q-1.345-.336-2.671-.6h-.005c-.069-.016-.134-.03-.2-.044,0,0-.01,0-.02,0s-.025,0-.039,0a.713.713,0,0,0-.114-.025c-.719-.145-1.432-.273-2.146-.392a1.42,1.42,0,0,1-.154-.025c-.01,0-.02,0-.03,0a51.9,51.9,0,0,0-12.759-.54L77.344.178q2-.17,4.069-.178c1.264,0,2.553.049,3.857.148,1.234.091,2.479.227,3.743.405,1.18.17,2.374.372,3.574.616s2.389.52,3.6.832c1.17.31,2.35.646,3.544,1.021s2.384.786,3.594,1.22,2.429.922,3.653,1.434,2.464,1.059,3.713,1.639c1.284.595,2.573,1.235,3.876,1.905q1.785.919,3.594,1.932l-61.9,32.055C56.212,43.18,56.162,43.155,56.108,43.126ZM61.9,4.59a39.417,39.417,0,0,1,5.086-2.2L5.086,34.445A39.889,39.889,0,0,0,0,36.647Zm5.086-2.2A40.588,40.588,0,0,1,72.644.843,44.164,44.164,0,0,1,77.339.178L15.446,32.235a45.55,45.55,0,0,0-4.7.664,42.2,42.2,0,0,0-4.8,1.255c-.055.02-.1.035-.159.049-.01,0-.015.01-.025.01-.04.015-.084.03-.129.043a.253.253,0,0,1-.045.016l-.084.03c-.139.044-.282.094-.421.143ZM15.446,32.235Z" transform="translate(33.35 0)"/><g transform="translate(0 32.06)"><path class="h" d="M299.887,129.262c50.809,28.467,87.571,95.756,86.619,177.564s-38.789,107.3-89.6,78.837c-50.517-28.3-87.571-95.758-86.619-177.564S249.37,100.959,299.887,129.262Zm-2.415,207.882c23.789,13.328,40.507-.831,41.161-57.138s-15.52-88.9-39.31-102.227c-23.5-13.163-40.215,1-40.869,57.3s15.522,88.9,39.018,102.061" transform="translate(-210.271 -118.112)"/></g></g><g class="d" transform="translate(401.778 225.101)"><g transform="translate(57.521 126.716)"><path class="e" d="M356.943,280.447l61.9-32.059,55.2,30.929-61.9,32.059Z" transform="translate(-356.943 -248.388)"/></g><g transform="translate(156.512 229.567)"><path class="f" d="M414.762,339.892l61.9-32.059-.6,52.059-61.9,32.059Z" transform="translate(-414.157 -307.833)"/></g><g transform="translate(190.599 201.579)"><path class="f" d="M434.4,323.716l61.9-32.059-.543,46.747-61.9,32.059Z" transform="translate(-433.858 -291.657)"/></g><g transform="translate(157.66 182.821)"><path class="e" d="M414.821,312.874l61.9-32.059L510.2,299.573l-61.9,32.059Z" transform="translate(-414.821 -280.815)"/></g><g transform="translate(113.264 111.252)"><path class="e" d="M389.161,271.509l61.9-32.059,44.936,25.176-61.9,32.059Z" transform="translate(-389.161 -239.451)"/></g><g transform="translate(157.66 136.428)"><path class="f" d="M415.36,286.06,477.258,254l-.539,46.393-61.9,32.059Z" transform="translate(-414.821 -254.002)"/></g><g transform="translate(99.196)"><path class="e" d="M381.03,207.209l61.9-32.059,49.918,27.967-61.9,32.059Z" transform="translate(-381.03 -175.151)"/></g><g transform="translate(57.521 27.967)"><path class="g" d="M448.536,223.373l61.9-32.059-91.593,98.749-61.9,32.059Z" transform="translate(-356.943 -191.315)"/></g><g transform="translate(0 32.059)"><path class="h" d="M472.812,221.646,381.219,320.4l55.2,30.929.539-46.393L481.9,330.107l-.539,46.393,33.482,18.758-.543,46.747-33.482-18.758-.6,52.059-46.393-25.992.605-52.059L323.7,335.22l.449-38.6,98.748-102.939Z" transform="translate(-323.698 -193.679)"/></g></g></g></g></g></svg>