<svg xmlns="http://www.w3.org/2000/svg" xmlns:xlink="http://www.w3.org/1999/xlink" width="953.622" height="862.418" viewBox="0 0 953.622 862.418"><defs><style>.a,.s{fill:none;}.b{fill:#699cfc;}.c,.o{fill:#9bbdfd;}.d{fill:#0a51d6;}.e{fill:#377bfb;}.f{fill:#065bfa;}.g{fill:#fff;}.h{fill:#173d7a;}.i{fill:#ffca00;}.j{fill:#d4ecff;}.k{fill:#5793ce;}.l{fill:#c98b0e;}.m{fill:#cddefe;}.n{fill:#5e91f1;}.o{opacity:0.4;}.p{fill:#1354a4;}.q{fill:#1f74b4;}.r{fill:#fdb100;}.s{stroke:#000;stroke-miterlimit:10;stroke-width:0.816px;}.t{clip-path:url(#a);}.u{fill:#123a75;}</style><clipPath id="a"><path class="a" d="M-3910-115v55.869c0,41.1,142.874,41.1,142.874,0v-49.686l-55.648,25.395Z" transform="translate(3910 115)"/></clipPath></defs><g transform="translate(-859 -145.971)"><g transform="translate(712.724 315.017)"><path class="b" d="M558.954,665.057l-.807-.466L170.662,441.337l2.425-1.4,473.889-273.6.807.466L1035.268,390.06l-2.428,1.4ZM177.129,441.337,558.954,661.33,1028.8,390.06,646.975,170.066Z" transform="translate(53.416)"/><rect class="b" width="298.393" height="3.23" transform="translate(146.276 690.575) rotate(-29.979)"/><path class="b" d="M242.522,292.994a16.8,16.8,0,0,1-15.2,0c-4.2-2.425-4.2-6.352,0-8.774a16.8,16.8,0,0,1,15.2,0C246.718,286.641,246.718,290.569,242.522,292.994Z" transform="translate(170.644 254.23)"/><path class="b" d="M242.522,292.994a16.8,16.8,0,0,1-15.2,0c-4.2-2.425-4.2-6.352,0-8.774a16.8,16.8,0,0,1,15.2,0C246.718,286.641,246.718,290.569,242.522,292.994Z" transform="translate(673.703 -1.77)"/><path class="b" d="M542.7,254.139,463.86,209.454l-56.341,32.331-1.608-2.8,57.936-33.247,78.842,44.685,52.879-30.458,1.614,2.8Z" transform="translate(502.716 46.29)"/></g><g transform="translate(1342.967 278.303)"><path class="c" d="M520.136,546.205h0V228.957L394.017,195.946l-23.232-13.412c-5.334-3.076-14.645-2.69-20.8.862L328.311,195.91l-67.271-.036,19.921,306.259c-.151,2.081,1.01,4.093,3.57,5.572l125.863,94.968c5.33,3.08,14.645,2.694,20.8-.862l83.879-48.425C518.625,551.333,520.338,548.679,520.136,546.205Z" transform="translate(-261.013 -138.181)"/><path class="d" d="M388.49,180.461a24.031,24.031,0,0,0-11.151,2.925L355.666,195.9l-67.271-.036v318.1c-.151,2.081,1.01,4.093,3.574,5.572l145.78,83.125a18.843,18.843,0,0,0,9.654,2.063l1.5-320.089Z" transform="translate(-288.368 -138.171)"/><path class="e" d="M286.493,530.765c4.6,1.969,11.252,1.861,16.629-.191V208.3H286.493Z" transform="translate(-135.775 -65.618)"/><path class="f" d="M410.416,315.235,264.636,232.11c-5.334-3.076-4.663-8.453,1.493-12.009l83.878-48.425c6.156-3.556,15.467-3.942,20.8-.866l145.78,83.128c5.33,3.076,4.663,8.453-1.493,12.009l-83.878,48.425C425.061,317.929,415.746,318.315,410.416,315.235Z" transform="translate(-261.036 -168.734)"/><path class="g" d="M515.1,220.214,431.22,268.643c-6.156,3.552-15.471,3.938-20.8.862l-145.78-83.128a8.017,8.017,0,0,1-2.661-2.358c-1.832,2.946-1,6.145,2.661,8.258L410.419,275.4c5.33,3.08,14.645,2.694,20.8-.862L515.1,226.114c4.782-2.762,6.235-6.621,4.154-9.65A11.64,11.64,0,0,1,515.1,220.214Z" transform="translate(-261.039 -128.9)"/><g transform="translate(54.762 26.893)"><path class="h" d="M374.828,262.109l-97.056-56.258c-2.5-1.443-2.182-3.96.7-5.622l39.251-22.662c2.881-1.662,7.238-1.843,9.733-.4l97.056,56.262c2.5,1.443,2.182,3.956-.7,5.622l-39.254,22.662C381.683,263.371,377.323,263.551,374.828,262.109Z" transform="translate(-276.088 -176.192)"/><g transform="translate(40.488 24.834)"><path class="i" d="M308.747,190.428l-5.626-3.246c-.343-.2-.3-.548.1-.779l5.431-3.134a1.5,1.5,0,0,1,1.345-.058l5.626,3.249c.346.2.3.545-.1.775l-5.431,3.137A1.494,1.494,0,0,1,308.747,190.428Z" transform="translate(-302.89 -183.078)"/><path class="j" d="M303.537,193.424l-5.626-3.246c-.343-.2-.3-.548.1-.779l5.431-3.134a1.5,1.5,0,0,1,1.345-.058l5.626,3.249c.346.2.3.545-.1.775l-5.431,3.137A1.5,1.5,0,0,1,303.537,193.424Z" transform="translate(-278.891 -175.27)"/><path class="j" d="M298.326,196.42l-5.622-3.249c-.346-.2-.3-.545.094-.775l5.431-3.138a1.513,1.513,0,0,1,1.349-.054l5.622,3.246c.346.2.3.548-.1.779l-5.427,3.134A1.5,1.5,0,0,1,298.326,196.42Z" transform="translate(-254.892 -167.461)"/><path class="j" d="M293.116,199.416l-5.622-3.249c-.346-.2-.3-.545.1-.775l5.427-3.138a1.513,1.513,0,0,1,1.349-.054l5.622,3.246c.346.2.3.548-.094.779l-5.431,3.134A1.5,1.5,0,0,1,293.116,199.416Z" transform="translate(-230.893 -159.653)"/></g><path class="k" d="M277.776,205.851l.115.065a6.152,6.152,0,0,1,.584-.4l39.251-22.662c2.881-1.666,7.238-1.846,9.733-.4l96.94,56.193c2.3-1.645,2.423-3.888.115-5.218L327.46,177.163c-2.5-1.439-6.852-1.259-9.733.4l-39.251,22.662C275.594,201.891,275.28,204.408,277.776,205.851Z" transform="translate(-276.091 -176.192)"/></g><g transform="translate(180.936 142.359)"><path class="e" d="M269.927,275.206l55.183-31.595c3.105-1.792,5.622-6.6,5.622-10.743V213.135c0-4.14-2.517-6.044-5.622-4.252l-55.183,31.595c-3.105,1.8-5.622,6.6-5.622,10.747v19.734C264.3,275.1,266.822,277,269.927,275.206Z" transform="translate(-264.305 -208.209)"/><path class="g" d="M326.434,208.231a5.524,5.524,0,0,1,1.41,4.107v19.734c0,4.14-2.517,8.951-5.622,10.743L267.039,274.41A4.035,4.035,0,0,1,264.3,275c1.031.974,2.528,1.118,4.212.144L323.7,243.554c3.105-1.792,5.622-6.6,5.622-10.743V213.078C329.323,210.265,328.15,208.523,326.434,208.231Z" transform="translate(-262.895 -208.152)"/><g transform="translate(20.996 24.044)"><path class="i" d="M276.046,229.331l5.06-2.921a2.942,2.942,0,0,0,1.226-2.344V218.66c0-.9-.548-1.316-1.226-.927l-5.06,2.921A2.937,2.937,0,0,0,274.82,223V228.4C274.82,229.305,275.368,229.72,276.046,229.331Z" transform="translate(-274.82 -207.813)"/><path class="i" d="M271.352,226.62l5.063-2.921a2.937,2.937,0,0,0,1.226-2.344V215.95c0-.9-.548-1.316-1.226-.927l-5.063,2.925a2.929,2.929,0,0,0-1.226,2.341v5.406C270.126,226.6,270.674,227.014,271.352,226.62Z" transform="translate(-253.202 -214.876)"/></g></g><g transform="translate(180.936 196.359)"><path class="e" d="M269.927,275.206l55.183-31.595c3.105-1.792,5.622-6.6,5.622-10.743V213.135c0-4.14-2.517-6.044-5.622-4.252l-55.183,31.595c-3.105,1.8-5.622,6.6-5.622,10.747v19.734C264.3,275.1,266.822,277,269.927,275.206Z" transform="translate(-264.305 -208.209)"/><path class="g" d="M326.434,208.231a5.524,5.524,0,0,1,1.41,4.107v19.734c0,4.14-2.517,8.951-5.622,10.743L267.039,274.41A4.035,4.035,0,0,1,264.3,275c1.031.974,2.528,1.118,4.212.144L323.7,243.554c3.105-1.792,5.622-6.6,5.622-10.743V213.078C329.323,210.265,328.15,208.523,326.434,208.231Z" transform="translate(-262.895 -208.152)"/><g transform="translate(20.996 24.044)"><path class="i" d="M276.046,229.331l5.06-2.921a2.942,2.942,0,0,0,1.226-2.344V218.66c0-.9-.548-1.316-1.226-.927l-5.06,2.921A2.937,2.937,0,0,0,274.82,223V228.4C274.82,229.305,275.368,229.72,276.046,229.331Z" transform="translate(-274.82 -207.813)"/><path class="i" d="M271.352,226.62l5.063-2.921a2.937,2.937,0,0,0,1.226-2.344V215.95c0-.9-.548-1.316-1.226-.927l-5.063,2.925a2.929,2.929,0,0,0-1.226,2.341v5.406C270.126,226.6,270.674,227.014,271.352,226.62Z" transform="translate(-253.202 -214.876)"/></g></g><g transform="translate(180.936 250.359)"><path class="e" d="M269.927,275.206l55.183-31.595c3.105-1.792,5.622-6.6,5.622-10.743V213.135c0-4.14-2.517-6.044-5.622-4.252l-55.183,31.595c-3.105,1.8-5.622,6.6-5.622,10.747v19.734C264.3,275.1,266.822,277,269.927,275.206Z" transform="translate(-264.305 -208.209)"/><path class="g" d="M326.434,208.231a5.524,5.524,0,0,1,1.41,4.107v19.734c0,4.14-2.517,8.951-5.622,10.743L267.039,274.41A4.035,4.035,0,0,1,264.3,275c1.031.974,2.528,1.118,4.212.144L323.7,243.554c3.105-1.792,5.622-6.6,5.622-10.743V213.078C329.323,210.265,328.15,208.523,326.434,208.231Z" transform="translate(-262.895 -208.152)"/><g transform="translate(20.996 24.044)"><path class="i" d="M276.046,229.331l5.06-2.921a2.942,2.942,0,0,0,1.226-2.344V218.66c0-.9-.548-1.316-1.226-.927l-5.06,2.921A2.937,2.937,0,0,0,274.82,223V228.4C274.82,229.305,275.368,229.72,276.046,229.331Z" transform="translate(-274.82 -207.813)"/><path class="i" d="M271.352,226.62l5.063-2.921a2.937,2.937,0,0,0,1.226-2.344V215.95c0-.9-.548-1.316-1.226-.927l-5.063,2.925a2.929,2.929,0,0,0-1.226,2.341v5.406C270.126,226.6,270.674,227.014,271.352,226.62Z" transform="translate(-253.202 -214.876)"/></g></g><g transform="translate(180.936 304.359)"><path class="e" d="M269.927,275.206l55.183-31.595c3.105-1.792,5.622-6.6,5.622-10.743V213.135c0-4.14-2.517-6.044-5.622-4.252l-55.183,31.595c-3.105,1.8-5.622,6.6-5.622,10.747v19.734C264.3,275.1,266.822,277,269.927,275.206Z" transform="translate(-264.305 -208.209)"/><path class="g" d="M326.434,208.231a5.524,5.524,0,0,1,1.41,4.107v19.734c0,4.14-2.517,8.951-5.622,10.743L267.039,274.41A4.035,4.035,0,0,1,264.3,275c1.031.974,2.528,1.118,4.212.144L323.7,243.554c3.105-1.792,5.622-6.6,5.622-10.743V213.078C329.323,210.265,328.15,208.523,326.434,208.231Z" transform="translate(-262.895 -208.152)"/><g transform="translate(20.996 24.044)"><path class="i" d="M276.046,229.331l5.06-2.921a2.942,2.942,0,0,0,1.226-2.344V218.66c0-.9-.548-1.316-1.226-.927l-5.06,2.921A2.937,2.937,0,0,0,274.82,223V228.4C274.82,229.305,275.368,229.72,276.046,229.331Z" transform="translate(-274.82 -207.813)"/><path class="i" d="M271.352,226.62l5.063-2.921a2.937,2.937,0,0,0,1.226-2.344V215.95c0-.9-.548-1.316-1.226-.927l-5.063,2.925a2.929,2.929,0,0,0-1.226,2.341v5.406C270.126,226.6,270.674,227.014,271.352,226.62Z" transform="translate(-253.202 -214.876)"/></g></g><g transform="translate(180.936 358.359)"><path class="e" d="M269.927,275.206l55.183-31.595c3.105-1.792,5.622-6.6,5.622-10.743V213.135c0-4.14-2.517-6.044-5.622-4.252l-55.183,31.595c-3.105,1.8-5.622,6.6-5.622,10.747v19.734C264.3,275.1,266.822,277,269.927,275.206Z" transform="translate(-264.305 -208.209)"/><path class="g" d="M326.434,208.231a5.524,5.524,0,0,1,1.41,4.107v19.734c0,4.14-2.517,8.951-5.622,10.743L267.039,274.41A4.035,4.035,0,0,1,264.3,275c1.031.974,2.528,1.118,4.212.144L323.7,243.554c3.105-1.792,5.622-6.6,5.622-10.743V213.078C329.323,210.265,328.15,208.523,326.434,208.231Z" transform="translate(-262.895 -208.152)"/><g transform="translate(20.996 24.044)"><path class="i" d="M276.046,229.331l5.06-2.921a2.942,2.942,0,0,0,1.226-2.344V218.66c0-.9-.548-1.316-1.226-.927l-5.06,2.921A2.937,2.937,0,0,0,274.82,223V228.4C274.82,229.305,275.368,229.72,276.046,229.331Z" transform="translate(-274.82 -207.813)"/><path class="i" d="M271.352,226.62l5.063-2.921a2.937,2.937,0,0,0,1.226-2.344V215.95c0-.9-.548-1.316-1.226-.927l-5.063,2.925a2.929,2.929,0,0,0-1.226,2.341v5.406C270.126,226.6,270.674,227.014,271.352,226.62Z" transform="translate(-253.202 -214.876)"/></g></g><g transform="translate(6.287 92.996)"><path class="e" d="M425.462,302.245,298.15,228.739c-2.849-1.644-5.161-6.059-5.161-9.856V194.605c0-3.8,2.312-5.546,5.161-3.9L425.462,264.21c2.853,1.644,5.161,6.059,5.161,9.856v24.278C430.622,302.144,428.314,303.89,425.462,302.245Z" transform="translate(-292.989 -190.084)"/><path class="h" d="M417.328,287.358,297.322,218.074a6.271,6.271,0,0,1-2.615-5V194.821c0-1.926,1.172-2.813,2.615-1.976l120.006,69.284a6.264,6.264,0,0,1,2.618,5v18.251C419.946,287.307,418.774,288.195,417.328,287.358Z" transform="translate(-288.508 -183.711)"/><path class="j" d="M341.521,213.652l-17.909-10.343a6.081,6.081,0,0,1-2.542-4.854h0c0-1.875,1.14-2.734,2.542-1.922l17.909,10.339a6.094,6.094,0,0,1,2.542,4.858h0C344.064,213.6,342.924,214.46,341.521,213.652Z" transform="translate(-307.698 -174.075)"/><path class="i" d="M323.414,206.526c0,1.872-1.313,2.629-2.936,1.695a6.5,6.5,0,0,1-2.935-5.085c0-1.872,1.316-2.629,2.935-1.695A6.488,6.488,0,0,1,323.414,206.526Z" transform="matrix(0.985, 0.174, -0.174, 0.985, -232.098, -213.247)"/><path class="i" d="M320.542,208.184c0,1.872-1.316,2.629-2.935,1.695a6.488,6.488,0,0,1-2.936-5.085c0-1.872,1.313-2.629,2.936-1.695A6.5,6.5,0,0,1,320.542,208.184Z" transform="matrix(0.985, 0.174, -0.174, 0.985, -219.821, -210.075)"/><path class="j" d="M317.671,209.843c0,1.872-1.313,2.629-2.936,1.695a6.5,6.5,0,0,1-2.936-5.085c0-1.872,1.316-2.633,2.936-1.695A6.488,6.488,0,0,1,317.671,209.843Z" transform="translate(-247.875 -152.887)"/><path class="i" d="M314.8,211.5c0,1.875-1.316,2.633-2.935,1.695a6.476,6.476,0,0,1-2.936-5.081c0-1.872,1.313-2.633,2.936-1.695A6.486,6.486,0,0,1,314.8,211.5Z" transform="matrix(0.985, 0.174, -0.174, 0.985, -195.269, -200.14)"/><path class="h" d="M304.043,226.422l-6.03-3.484a3.9,3.9,0,0,1-1.634-3.116v-6.383c0-1.2.732-1.753,1.634-1.233l6.03,3.484a3.9,3.9,0,0,1,1.634,3.116v6.383C305.677,226.39,304.945,226.941,304.043,226.422Z" transform="translate(-180.272 -132.938)"/></g><g transform="translate(6.287 139.996)"><path class="e" d="M425.462,302.245,298.15,228.739c-2.849-1.644-5.161-6.059-5.161-9.856V194.605c0-3.8,2.312-5.546,5.161-3.9L425.462,264.21c2.853,1.644,5.161,6.059,5.161,9.856v24.278C430.622,302.144,428.314,303.89,425.462,302.245Z" transform="translate(-292.989 -190.084)"/><path class="h" d="M417.328,287.358,297.322,218.074a6.271,6.271,0,0,1-2.615-5V194.821c0-1.926,1.172-2.813,2.615-1.976l120.006,69.284a6.264,6.264,0,0,1,2.618,5v18.251C419.946,287.307,418.774,288.195,417.328,287.358Z" transform="translate(-288.508 -183.711)"/><path class="j" d="M341.521,213.652l-17.909-10.343a6.081,6.081,0,0,1-2.542-4.854h0c0-1.875,1.14-2.734,2.542-1.922l17.909,10.339a6.094,6.094,0,0,1,2.542,4.858h0C344.064,213.6,342.924,214.46,341.521,213.652Z" transform="translate(-307.698 -174.075)"/><path class="i" d="M323.414,206.526c0,1.872-1.313,2.629-2.936,1.695a6.5,6.5,0,0,1-2.935-5.085c0-1.872,1.316-2.629,2.935-1.695A6.488,6.488,0,0,1,323.414,206.526Z" transform="matrix(0.985, 0.174, -0.174, 0.985, -232.098, -213.247)"/><path class="i" d="M320.542,208.184c0,1.872-1.316,2.629-2.935,1.695a6.488,6.488,0,0,1-2.936-5.085c0-1.872,1.313-2.629,2.936-1.695A6.5,6.5,0,0,1,320.542,208.184Z" transform="matrix(0.985, 0.174, -0.174, 0.985, -219.821, -210.075)"/><path class="j" d="M317.671,209.843c0,1.872-1.313,2.629-2.936,1.695a6.5,6.5,0,0,1-2.936-5.085c0-1.872,1.316-2.633,2.936-1.695A6.488,6.488,0,0,1,317.671,209.843Z" transform="translate(-247.875 -152.887)"/><path class="i" d="M314.8,211.5c0,1.875-1.316,2.633-2.935,1.695a6.476,6.476,0,0,1-2.936-5.081c0-1.872,1.313-2.633,2.936-1.695A6.486,6.486,0,0,1,314.8,211.5Z" transform="matrix(0.985, 0.174, -0.174, 0.985, -195.269, -200.14)"/><path class="h" d="M304.043,226.422l-6.03-3.484a3.9,3.9,0,0,1-1.634-3.116v-6.383c0-1.2.732-1.753,1.634-1.233l6.03,3.484a3.9,3.9,0,0,1,1.634,3.116v6.383C305.677,226.39,304.945,226.941,304.043,226.422Z" transform="translate(-180.272 -132.938)"/></g><g transform="translate(6.287 186.996)"><path class="e" d="M425.462,302.245,298.15,228.739c-2.849-1.644-5.161-6.059-5.161-9.856V194.605c0-3.8,2.312-5.546,5.161-3.9L425.462,264.21c2.853,1.644,5.161,6.059,5.161,9.856v24.278C430.622,302.144,428.314,303.89,425.462,302.245Z" transform="translate(-292.989 -190.084)"/><path class="h" d="M417.328,287.358,297.322,218.074a6.271,6.271,0,0,1-2.615-5V194.821c0-1.926,1.172-2.813,2.615-1.976l120.006,69.284a6.264,6.264,0,0,1,2.618,5v18.251C419.946,287.307,418.774,288.195,417.328,287.358Z" transform="translate(-288.508 -183.711)"/><path class="j" d="M341.521,213.652l-17.909-10.343a6.081,6.081,0,0,1-2.542-4.854h0c0-1.875,1.14-2.734,2.542-1.922l17.909,10.339a6.094,6.094,0,0,1,2.542,4.858h0C344.064,213.6,342.924,214.46,341.521,213.652Z" transform="translate(-307.698 -174.075)"/><path class="i" d="M323.414,206.526c0,1.872-1.313,2.629-2.936,1.695a6.5,6.5,0,0,1-2.935-5.085c0-1.872,1.316-2.629,2.935-1.695A6.488,6.488,0,0,1,323.414,206.526Z" transform="matrix(0.985, 0.174, -0.174, 0.985, -232.098, -213.247)"/><path class="i" d="M320.542,208.184c0,1.872-1.316,2.629-2.935,1.695a6.488,6.488,0,0,1-2.936-5.085c0-1.872,1.313-2.629,2.936-1.695A6.5,6.5,0,0,1,320.542,208.184Z" transform="matrix(0.985, 0.174, -0.174, 0.985, -219.821, -210.075)"/><path class="j" d="M317.671,209.843c0,1.872-1.313,2.629-2.936,1.695a6.5,6.5,0,0,1-2.936-5.085c0-1.872,1.316-2.633,2.936-1.695A6.488,6.488,0,0,1,317.671,209.843Z" transform="translate(-247.875 -152.887)"/><path class="i" d="M314.8,211.5c0,1.875-1.316,2.633-2.935,1.695a6.476,6.476,0,0,1-2.936-5.081c0-1.872,1.313-2.633,2.936-1.695A6.486,6.486,0,0,1,314.8,211.5Z" transform="matrix(0.985, 0.174, -0.174, 0.985, -195.269, -200.14)"/><path class="h" d="M304.043,226.422l-6.03-3.484a3.9,3.9,0,0,1-1.634-3.116v-6.383c0-1.2.732-1.753,1.634-1.233l6.03,3.484a3.9,3.9,0,0,1,1.634,3.116v6.383C305.677,226.39,304.945,226.941,304.043,226.422Z" transform="translate(-180.272 -132.938)"/></g><g transform="translate(6.287 233.996)"><path class="e" d="M425.462,302.245,298.15,228.739c-2.849-1.644-5.161-6.059-5.161-9.856V194.605c0-3.8,2.312-5.546,5.161-3.9L425.462,264.21c2.853,1.644,5.161,6.059,5.161,9.856v24.278C430.622,302.144,428.314,303.89,425.462,302.245Z" transform="translate(-292.989 -190.084)"/><path class="h" d="M417.328,287.358,297.322,218.074a6.271,6.271,0,0,1-2.615-5V194.821c0-1.926,1.172-2.813,2.615-1.976l120.006,69.284a6.264,6.264,0,0,1,2.618,5v18.251C419.946,287.307,418.774,288.195,417.328,287.358Z" transform="translate(-288.508 -183.711)"/><path class="j" d="M341.521,213.652l-17.909-10.343a6.081,6.081,0,0,1-2.542-4.854h0c0-1.875,1.14-2.734,2.542-1.922l17.909,10.339a6.094,6.094,0,0,1,2.542,4.858h0C344.064,213.6,342.924,214.46,341.521,213.652Z" transform="translate(-307.698 -174.075)"/><path class="i" d="M323.414,206.526c0,1.872-1.313,2.629-2.936,1.695a6.5,6.5,0,0,1-2.935-5.085c0-1.872,1.316-2.629,2.935-1.695A6.488,6.488,0,0,1,323.414,206.526Z" transform="matrix(0.985, 0.174, -0.174, 0.985, -232.098, -213.247)"/><path class="i" d="M320.542,208.184c0,1.872-1.316,2.629-2.935,1.695a6.488,6.488,0,0,1-2.936-5.085c0-1.872,1.313-2.629,2.936-1.695A6.5,6.5,0,0,1,320.542,208.184Z" transform="matrix(0.985, 0.174, -0.174, 0.985, -219.821, -210.075)"/><path class="j" d="M317.671,209.843c0,1.872-1.313,2.629-2.936,1.695a6.5,6.5,0,0,1-2.936-5.085c0-1.872,1.316-2.633,2.936-1.695A6.488,6.488,0,0,1,317.671,209.843Z" transform="translate(-247.875 -152.887)"/><path class="i" d="M314.8,211.5c0,1.875-1.316,2.633-2.935,1.695a6.476,6.476,0,0,1-2.936-5.081c0-1.872,1.313-2.633,2.936-1.695A6.486,6.486,0,0,1,314.8,211.5Z" transform="matrix(0.985, 0.174, -0.174, 0.985, -195.269, -200.14)"/><path class="h" d="M304.043,226.422l-6.03-3.484a3.9,3.9,0,0,1-1.634-3.116v-6.383c0-1.2.732-1.753,1.634-1.233l6.03,3.484a3.9,3.9,0,0,1,1.634,3.116v6.383C305.677,226.39,304.945,226.941,304.043,226.422Z" transform="translate(-180.272 -132.938)"/></g><g transform="translate(6.287 280.996)"><path class="e" d="M425.462,302.245,298.15,228.739c-2.849-1.644-5.161-6.059-5.161-9.856V194.605c0-3.8,2.312-5.546,5.161-3.9L425.462,264.21c2.853,1.644,5.161,6.059,5.161,9.856v24.278C430.622,302.144,428.314,303.89,425.462,302.245Z" transform="translate(-292.989 -190.084)"/><path class="h" d="M417.328,287.358,297.322,218.074a6.271,6.271,0,0,1-2.615-5V194.821c0-1.926,1.172-2.813,2.615-1.976l120.006,69.284a6.264,6.264,0,0,1,2.618,5v18.251C419.946,287.307,418.774,288.195,417.328,287.358Z" transform="translate(-288.508 -183.711)"/><path class="j" d="M341.521,213.652l-17.909-10.343a6.081,6.081,0,0,1-2.542-4.854h0c0-1.875,1.14-2.734,2.542-1.922l17.909,10.339a6.094,6.094,0,0,1,2.542,4.858h0C344.064,213.6,342.924,214.46,341.521,213.652Z" transform="translate(-307.698 -174.075)"/><path class="i" d="M323.414,206.526c0,1.872-1.313,2.629-2.936,1.695a6.5,6.5,0,0,1-2.935-5.085c0-1.872,1.316-2.629,2.935-1.695A6.488,6.488,0,0,1,323.414,206.526Z" transform="matrix(0.985, 0.174, -0.174, 0.985, -232.098, -213.247)"/><path class="i" d="M320.542,208.184c0,1.872-1.316,2.629-2.935,1.695a6.488,6.488,0,0,1-2.936-5.085c0-1.872,1.313-2.629,2.936-1.695A6.5,6.5,0,0,1,320.542,208.184Z" transform="matrix(0.985, 0.174, -0.174, 0.985, -219.821, -210.075)"/><path class="j" d="M317.671,209.843c0,1.872-1.313,2.629-2.936,1.695a6.5,6.5,0,0,1-2.936-5.085c0-1.872,1.316-2.633,2.936-1.695A6.488,6.488,0,0,1,317.671,209.843Z" transform="translate(-247.875 -152.887)"/><path class="i" d="M314.8,211.5c0,1.875-1.316,2.633-2.935,1.695a6.476,6.476,0,0,1-2.936-5.081c0-1.872,1.313-2.633,2.936-1.695A6.486,6.486,0,0,1,314.8,211.5Z" transform="matrix(0.985, 0.174, -0.174, 0.985, -195.269, -200.14)"/><path class="h" d="M304.043,226.422l-6.03-3.484a3.9,3.9,0,0,1-1.634-3.116v-6.383c0-1.2.732-1.753,1.634-1.233l6.03,3.484a3.9,3.9,0,0,1,1.634,3.116v6.383C305.677,226.39,304.945,226.941,304.043,226.422Z" transform="translate(-180.272 -132.938)"/></g><g transform="translate(6.287 327.996)"><path class="e" d="M425.462,302.245,298.15,228.739c-2.849-1.644-5.161-6.059-5.161-9.856V194.605c0-3.8,2.312-5.546,5.161-3.9L425.462,264.21c2.853,1.644,5.161,6.059,5.161,9.856v24.278C430.622,302.144,428.314,303.89,425.462,302.245Z" transform="translate(-292.989 -190.084)"/><path class="h" d="M417.328,287.358,297.322,218.074a6.271,6.271,0,0,1-2.615-5V194.821c0-1.926,1.172-2.813,2.615-1.976l120.006,69.284a6.264,6.264,0,0,1,2.618,5v18.251C419.946,287.307,418.774,288.195,417.328,287.358Z" transform="translate(-288.508 -183.711)"/><path class="j" d="M341.521,213.652l-17.909-10.343a6.081,6.081,0,0,1-2.542-4.854h0c0-1.875,1.14-2.734,2.542-1.922l17.909,10.339a6.094,6.094,0,0,1,2.542,4.858h0C344.064,213.6,342.924,214.46,341.521,213.652Z" transform="translate(-307.698 -174.075)"/><path class="i" d="M323.414,206.526c0,1.872-1.313,2.629-2.936,1.695a6.5,6.5,0,0,1-2.935-5.085c0-1.872,1.316-2.629,2.935-1.695A6.488,6.488,0,0,1,323.414,206.526Z" transform="matrix(0.985, 0.174, -0.174, 0.985, -232.098, -213.247)"/><path class="i" d="M320.542,208.184c0,1.872-1.316,2.629-2.935,1.695a6.488,6.488,0,0,1-2.936-5.085c0-1.872,1.313-2.629,2.936-1.695A6.5,6.5,0,0,1,320.542,208.184Z" transform="matrix(0.985, 0.174, -0.174, 0.985, -219.821, -210.075)"/><path class="j" d="M317.671,209.843c0,1.872-1.313,2.629-2.936,1.695a6.5,6.5,0,0,1-2.936-5.085c0-1.872,1.316-2.633,2.936-1.695A6.488,6.488,0,0,1,317.671,209.843Z" transform="translate(-247.875 -152.887)"/><path class="i" d="M314.8,211.5c0,1.875-1.316,2.633-2.935,1.695a6.476,6.476,0,0,1-2.936-5.081c0-1.872,1.313-2.633,2.936-1.695A6.486,6.486,0,0,1,314.8,211.5Z" transform="matrix(0.985, 0.174, -0.174, 0.985, -195.269, -200.14)"/><path class="h" d="M304.043,226.422l-6.03-3.484a3.9,3.9,0,0,1-1.634-3.116v-6.383c0-1.2.732-1.753,1.634-1.233l6.03,3.484a3.9,3.9,0,0,1,1.634,3.116v6.383C305.677,226.39,304.945,226.941,304.043,226.422Z" transform="translate(-180.272 -132.938)"/></g></g><g transform="translate(1317.193 278.303)"><path class="b" d="M82.107,589.478c-.666,0-1.2-3.3-1.2-7.371V162.555c0-4.069.536-7.371,1.2-7.371s1.2,3.3,1.2,7.371V582.106C83.309,586.175,82.771,589.478,82.107,589.478Z" transform="translate(-72.47 -116.313)"/><g transform="translate(3.689 35.768)"><rect class="i" width="11.893" height="25.664"/><path class="i" d="M89.083,169a9.3,9.3,0,0,1-8.409,0c-2.324-1.342-2.324-3.514,0-4.856a9.3,9.3,0,0,1,8.409,0C91.4,165.483,91.4,167.655,89.083,169Z" transform="translate(-78.932 -140.905)"/></g><rect class="i" width="19.272" height="40.252"/><path class="l" d="M78.932,156.348v8.686a15.378,15.378,0,0,0,11.892,0v-8.686A15.378,15.378,0,0,0,78.932,156.348Z" transform="translate(-75.241 -116.358)"/><path class="i" d="M93.846,162.942a15.047,15.047,0,0,1-13.626,0c-3.762-2.172-3.762-5.693,0-7.868a15.062,15.062,0,0,1,13.626,0C97.61,157.248,97.61,160.77,93.846,162.942Z" transform="translate(-77.397 -118.757)"/></g><g transform="translate(1383.951 315.865)"><path class="b" d="M109.861,604.825c-.666,0-1.2-3.286-1.2-7.367V178.167c0-4.066.536-7.367,1.2-7.367s1.2,3.3,1.2,7.367V597.459C111.063,601.539,110.525,604.825,109.861,604.825Z" transform="translate(-100.224 -131.93)"/><g transform="translate(3.689 35.768)"><rect class="i" width="11.893" height="25.664"/><path class="i" d="M116.837,184.613a9.284,9.284,0,0,1-8.409,0c-2.324-1.34-2.324-3.514,0-4.854a9.284,9.284,0,0,1,8.409,0C119.158,181.1,119.158,183.273,116.837,184.613Z" transform="translate(-106.685 -156.522)"/></g><rect class="i" width="19.272" height="40.252"/><path class="l" d="M106.685,171.963v8.686a15.384,15.384,0,0,0,11.894,0v-8.686A15.405,15.405,0,0,0,106.685,171.963Z" transform="translate(-102.997 -131.974)"/><path class="i" d="M121.6,178.559a15.062,15.062,0,0,1-13.626,0c-3.762-2.172-3.762-5.7,0-7.868a15.062,15.062,0,0,1,13.626,0C125.364,172.863,125.364,176.387,121.6,178.559Z" transform="translate(-105.151 -134.373)"/></g><g transform="translate(1199.331 53.654)"><g transform="translate(53.749 92.317)"><path class="k" d="M139.2,209.243l25.84-15.219-24.609-30.713-6.47,10.57Z" transform="translate(58.972 7.454)"/><path class="e" d="M58.134,126.188l41.24-23.726s-1.551,23.678-1.551,23.726-23.693,7.339-23.693,7.339Z" transform="translate(-47.587 -78.06)"/><path class="e" d="M235.037,231.779a26.014,26.014,0,0,0-8.924-3.307c-4.156-21.85-19.363-45.057-37.495-55.525a36.722,36.722,0,0,0-15.341-5.193c-2.475-26.485-20.893-56.586-43.255-69.5-11.683-6.745-22.281-7.543-30.1-3.413l0-.019-.38.219c-.2.111-.4.224-.594.342L74.629,109.746l8.08,6.381c-7.252,3.17-11.837,11.305-11.837,23.332,0,22.175,15.567,49.139,34.774,60.228l129.391,92.394c14.42,8.327,26.11,1.578,26.11-15.074S249.457,240.106,235.037,231.779Z" transform="translate(-29.685 -92.317)"/><path class="e" d="M71.371,129.693l55.814-32.609c-10.836-5.65-20.626-6.117-27.967-2.242l0-.019-.38.219c-.2.111-.4.224-.594.342L73.928,109.745l8.08,6.381C76.937,118.342,73.18,122.991,71.371,129.693Z" transform="translate(-28.984 -92.316)"/><path class="c" d="M139.051,179.774l40.725-23.9c-6.985-12.08-16.6-22.634-27.253-28.782q-2.111-1.22-4.168-2.146l-51.8,30.293Z" transform="translate(6.41 -46.462)"/><path class="m" d="M77.205,111.794l18.148,10.478L128.588,102.7a66.224,66.224,0,0,0-7.466-5.061,46.574,46.574,0,0,0-11.615-4.878Z" transform="translate(-20.785 -91.698)"/><path class="m" d="M233.568,238.038a25.953,25.953,0,0,0-8.921-3.307c-4.159-21.853-19.363-45.059-37.495-55.525a36.686,36.686,0,0,0-15.344-5.193c-2.475-26.488-20.89-56.588-43.253-69.5-24.051-13.884-43.549-2.629-43.549,25.141,0,.943.026,1.893.072,2.848-17.588-8.157-31.33,1.034-31.33,21.867,0,22.175,15.567,49.141,34.774,60.228l145.045,83.742c14.423,8.327,26.113,1.578,26.113-15.074S247.991,246.363,233.568,238.038Z" transform="translate(-53.749 -83.536)"/><g transform="translate(7.954 12.961)"><path class="g" d="M80.431,115.585c-.046-.955-.072-1.905-.072-2.848l0-.115c-9.715-3.779-18.067-2.134-23.305,3.928C62.747,111.864,71.026,111.224,80.431,115.585Z" transform="translate(-57.056 -79.581)"/><path class="g" d="M211.8,237.176a26.014,26.014,0,0,0-8.924-3.307c-4.156-21.85-19.363-45.057-37.492-55.525a36.68,36.68,0,0,0-15.344-5.191c-2.475-26.488-20.89-56.588-43.255-69.5C91.8,95,78.585,96.112,70.751,104.894c7.983-6.822,20.2-7.086,33.911.827,22.363,12.912,40.778,43.015,43.253,69.5a36.713,36.713,0,0,1,15.344,5.191c18.132,10.468,33.336,33.675,37.495,55.528a25.953,25.953,0,0,1,8.921,3.307c14.423,8.325,26.113,28.573,26.113,45.225,0,6.009-1.539,10.7-4.164,13.891,3.911-3.014,6.288-8.474,6.288-15.96C237.911,265.752,226.221,245.5,211.8,237.176Z" transform="translate(-37.81 -97.706)"/></g><g transform="translate(7.291 22.303)"><path class="f" d="M77.752,134.866l10.9,5.056L88.1,127.917c-.038-.844-.063-1.681-.063-2.514,0-10.716,3.235-18.485,9.109-21.877s14.223-2.307,23.5,3.05c19.96,11.524,37.372,39.575,39.643,63.865l.572,6.119,6.126.471a29.466,29.466,0,0,1,12.258,4.236c15.854,9.155,30.144,30.423,33.976,50.575l.96,5.044,5.073.8a18.86,18.86,0,0,1,6.408,2.417c12.178,7.033,22.466,24.852,22.466,38.914,0,5.263-1.458,9.124-4,10.593s-6.615.8-11.173-1.83L87.908,204.035C71.034,194.293,56.78,169.6,56.78,150.119c0-7.647,2.254-13.47,6.187-15.981a10.566,10.566,0,0,1,5.78-1.547A21.807,21.807,0,0,1,77.752,134.866Z" transform="translate(-56.78 -101.59)"/></g><g transform="translate(69.018 92.781)"><path class="k" d="M95.594,156.007l3.826-1.921-3.767-2.854Z" transform="translate(-63.96 -102.303)"/><path class="k" d="M90.817,132.826l3.714-1.878.068,1.944Z" transform="translate(-70.674 -130.809)"/><path class="k" d="M102.226,153.479l3.876-1.949-7.461-7.1Z" transform="translate(-59.677 -111.857)"/><g transform="translate(3.885)"><path class="k" d="M108.271,172.634,90.156,161.966a3.856,3.856,0,0,1-1.657-3.048l.058-20.972L110,150.577l-.06,20.972C109.94,172.691,109.192,173.175,108.271,172.634Z" transform="translate(-77.816 -120.974)"/><path class="k" d="M103.992,131.051,84.424,143.643c-.83.534-.159,2.526,1.1,3.266l19.984,11.769,19.981,11.769c1.26.743,1.941-.452,1.116-1.963L107.179,132.93C106.339,131.393,104.836,130.507,103.992,131.051Z" transform="translate(-84.058 -130.89)"/></g><g transform="translate(0 1.958)"><path class="j" d="M106.657,173.448l-18.115-10.67a3.864,3.864,0,0,1-1.66-3.045l.06-20.972,21.446,12.628-.06,20.975C108.327,173.5,107.579,173.989,106.657,173.448Z" transform="translate(-76.203 -121.788)"/><path class="j" d="M102.374,131.865l-19.565,12.59c-.83.534-.159,2.526,1.1,3.269l19.984,11.767,19.981,11.769c1.26.743,1.941-.452,1.116-1.963l-19.428-35.556C104.724,132.207,103.221,131.321,102.374,131.865Z" transform="translate(-82.443 -131.704)"/></g></g></g><path class="j" d="M82.808,164.735c0,1.181-.83,1.66-1.852,1.068a4.088,4.088,0,0,1-1.85-3.206c0-1.179.827-1.657,1.85-1.068A4.091,4.091,0,0,1,82.808,164.735Z" transform="translate(35.636 96.912)"/><path class="j" d="M110.627,180.58c0,1.179-.827,1.657-1.85,1.068a4.091,4.091,0,0,1-1.852-3.206c0-1.181.83-1.66,1.852-1.068A4.088,4.088,0,0,1,110.627,180.58Z" transform="translate(74.731 119.177)"/></g><g transform="translate(1139.254 426.659)"><path class="d" d="M261.055,546.205h0V228.957l126.119-33.012,23.232-13.412c5.334-3.076,14.645-2.69,20.8.862l21.674,12.514,67.271-.036L500.231,502.133c.151,2.081-1.01,4.093-3.57,5.572L370.8,602.672c-5.33,3.08-14.645,2.694-20.8-.862l-83.878-48.425C262.567,551.333,260.854,548.679,261.055,546.205Z" transform="translate(-261.027 -138.181)"/><path class="c" d="M348.8,180.461a24.031,24.031,0,0,1,11.151,2.925L381.621,195.9l67.271-.036v318.1c.151,2.081-1.01,4.093-3.574,5.572l-145.78,83.125a18.843,18.843,0,0,1-9.654,2.063l-1.5-320.089Z" transform="translate(-189.768 -138.171)"/><path class="e" d="M303.121,530.765c-4.6,1.969-11.252,1.861-16.629-.191V208.3h16.629Z" transform="translate(-194.688 -65.617)"/><path class="f" d="M370.807,315.235l145.78-83.125c5.334-3.076,4.663-8.453-1.493-12.009l-83.878-48.425c-6.156-3.556-15.467-3.942-20.8-.866l-145.78,83.128c-5.33,3.076-4.663,8.453,1.493,12.009l83.878,48.425C356.162,317.929,365.477,318.315,370.807,315.235Z" transform="translate(-261.036 -168.734)"/><path class="g" d="M266.118,220.214,350,268.643c6.156,3.552,15.471,3.938,20.8.862l145.78-83.128a8.017,8.017,0,0,0,2.661-2.358c1.832,2.946,1,6.145-2.661,8.258L370.8,275.4c-5.33,3.08-14.645,2.694-20.8-.862l-83.878-48.425c-4.782-2.762-6.235-6.621-4.154-9.65A11.64,11.64,0,0,0,266.118,220.214Z" transform="translate(-261.026 -128.9)"/><g transform="translate(54.281 26.893)"><path class="h" d="M327.456,262.109l97.056-56.258c2.5-1.443,2.182-3.96-.7-5.622l-39.251-22.662c-2.881-1.662-7.238-1.843-9.733-.4l-97.056,56.262c-2.5,1.443-2.182,3.956.7,5.622l39.254,22.662C320.6,263.371,324.961,263.551,327.456,262.109Z" transform="translate(-276.088 -176.192)"/><g transform="translate(40.29 24.834)"><path class="i" d="M310,190.428l5.626-3.246c.343-.2.3-.548-.1-.779l-5.431-3.134a1.5,1.5,0,0,0-1.345-.058l-5.626,3.249c-.346.2-.3.545.1.775l5.431,3.137A1.494,1.494,0,0,0,310,190.428Z" transform="translate(-246.524 -183.078)"/><path class="j" d="M304.788,193.424l5.626-3.246c.343-.2.3-.548-.1-.779l-5.431-3.134a1.5,1.5,0,0,0-1.345-.058l-5.626,3.249c-.346.2-.3.545.1.775l5.431,3.137A1.5,1.5,0,0,0,304.788,193.424Z" transform="translate(-260.103 -175.27)"/><path class="j" d="M299.578,196.42l5.622-3.249c.346-.2.3-.545-.094-.775l-5.431-3.138a1.513,1.513,0,0,0-1.349-.054l-5.622,3.246c-.346.2-.3.548.1.779l5.427,3.134A1.5,1.5,0,0,0,299.578,196.42Z" transform="translate(-273.681 -167.461)"/><path class="j" d="M294.368,199.416l5.622-3.249c.346-.2.3-.545-.1-.775l-5.427-3.138a1.513,1.513,0,0,0-1.349-.054l-5.622,3.246c-.346.2-.3.548.094.779l5.431,3.134A1.5,1.5,0,0,0,294.368,199.416Z" transform="translate(-287.26 -159.653)"/></g><path class="k" d="M424.5,205.851l-.115.065a6.152,6.152,0,0,0-.584-.4l-39.251-22.662c-2.881-1.666-7.238-1.846-9.733-.4l-96.94,56.193c-2.3-1.645-2.423-3.888-.115-5.218l97.056-56.262c2.5-1.439,6.852-1.259,9.733.4L423.8,200.229C426.684,201.891,427,204.408,424.5,205.851Z" transform="translate(-276.078 -176.192)"/></g><g transform="translate(11.789 142.357)"><path class="h" d="M325.11,275.206l-55.183-31.595c-3.105-1.792-5.622-6.6-5.622-10.743V213.135c0-4.14,2.517-6.044,5.622-4.252l55.183,31.595c3.105,1.8,5.622,6.6,5.622,10.747v19.734C330.733,275.1,328.215,277,325.11,275.206Z" transform="translate(-264.305 -208.209)"/><path class="g" d="M267.194,208.231a5.524,5.524,0,0,0-1.41,4.107v19.734c0,4.14,2.517,8.951,5.622,10.743l55.183,31.595a4.035,4.035,0,0,0,2.734.595c-1.031.974-2.528,1.118-4.212.144l-55.183-31.595c-3.105-1.792-5.622-6.6-5.622-10.743V213.078C264.3,210.265,265.477,208.523,267.194,208.231Z" transform="translate(-264.305 -208.152)"/><g transform="translate(20.992 24.045)"><path class="i" d="M281.106,229.331l-5.06-2.921a2.942,2.942,0,0,1-1.226-2.344V218.66c0-.9.548-1.316,1.226-.927l5.06,2.921A2.937,2.937,0,0,1,282.332,223V228.4C282.332,229.305,281.784,229.72,281.106,229.331Z" transform="translate(-257.892 -207.813)"/><path class="i" d="M276.415,226.62l-5.063-2.921a2.937,2.937,0,0,1-1.226-2.344V215.95c0-.9.548-1.316,1.226-.927l5.063,2.925a2.929,2.929,0,0,1,1.226,2.341v5.406C277.641,226.6,277.093,227.014,276.415,226.62Z" transform="translate(-270.126 -214.876)"/></g></g><g transform="translate(11.789 284.96)"><path class="h" d="M325.11,314.753l-55.183-31.6c-3.105-1.792-5.622-6.6-5.622-10.743V252.678c0-4.14,2.517-6.044,5.622-4.252l55.183,31.6c3.105,1.792,5.622,6.6,5.622,10.743V310.5C330.733,314.641,328.215,316.545,325.11,314.753Z" transform="translate(-264.305 -247.752)"/><path class="g" d="M267.194,247.774a5.524,5.524,0,0,0-1.41,4.108v19.734c0,4.14,2.517,8.951,5.622,10.743l55.183,31.595a4.035,4.035,0,0,0,2.734.6c-1.031.974-2.528,1.118-4.212.148l-55.183-31.6c-3.105-1.792-5.622-6.6-5.622-10.743V252.621C264.3,249.808,265.477,248.066,267.194,247.774Z" transform="translate(-264.305 -247.695)"/><g transform="translate(20.992 24.045)"><path class="n" d="M281.106,268.873l-5.06-2.921a2.936,2.936,0,0,1-1.226-2.344V258.2c0-.9.548-1.316,1.226-.927l5.06,2.921a2.942,2.942,0,0,1,1.226,2.344v5.406C282.332,268.848,281.784,269.267,281.106,268.873Z" transform="translate(-257.892 -247.356)"/><path class="g" d="M276.415,266.164l-5.063-2.921a2.937,2.937,0,0,1-1.226-2.344v-5.406c0-.9.548-1.316,1.226-.927l5.063,2.925a2.929,2.929,0,0,1,1.226,2.34v5.406C277.641,266.142,277.093,266.557,276.415,266.164Z" transform="translate(-270.126 -254.419)"/></g></g><g transform="translate(11.789 356.263)"><path class="h" d="M325.11,334.521l-55.183-31.595c-3.105-1.792-5.622-6.6-5.622-10.743V272.45c0-4.14,2.517-6.044,5.622-4.252l55.183,31.595c3.105,1.792,5.622,6.6,5.622,10.743V330.27C330.733,334.413,328.215,336.314,325.11,334.521Z" transform="translate(-264.305 -267.524)"/><path class="g" d="M267.194,267.546a5.521,5.521,0,0,0-1.41,4.1v19.737c0,4.14,2.517,8.951,5.622,10.743l55.183,31.595a4.056,4.056,0,0,0,2.734.6c-1.031.97-2.528,1.118-4.212.144L269.927,302.87c-3.105-1.792-5.622-6.6-5.622-10.743V272.393C264.3,269.58,265.477,267.838,267.194,267.546Z" transform="translate(-264.305 -267.467)"/><g transform="translate(20.992 24.042)"><path class="n" d="M281.106,288.647l-5.06-2.925a2.929,2.929,0,0,1-1.226-2.34v-5.409c0-.9.548-1.316,1.226-.923l5.06,2.921a2.929,2.929,0,0,1,1.226,2.34v5.409C282.332,288.622,281.784,289.037,281.106,288.647Z" transform="translate(-257.892 -267.128)"/><path class="g" d="M276.415,285.937l-5.063-2.925a2.93,2.93,0,0,1-1.226-2.34v-5.406c0-.905.548-1.32,1.226-.927l5.063,2.921a2.931,2.931,0,0,1,1.226,2.344v5.406C277.641,285.912,277.093,286.326,276.415,285.937Z" transform="translate(-270.126 -274.191)"/></g></g><g transform="translate(11.789 213.66)"><path class="h" d="M325.11,294.979l-55.183-31.595c-3.105-1.792-5.622-6.6-5.622-10.743V232.9c0-4.14,2.517-6.04,5.622-4.248L325.11,260.25c3.105,1.792,5.622,6.6,5.622,10.743v19.734C330.733,294.871,328.215,296.771,325.11,294.979Z" transform="translate(-264.305 -227.981)"/><path class="g" d="M267.194,228a5.52,5.52,0,0,0-1.41,4.1V251.84c0,4.144,2.517,8.951,5.622,10.747l55.183,31.595a4.055,4.055,0,0,0,2.734.6c-1.031.97-2.528,1.118-4.212.144l-55.183-31.595c-3.105-1.792-5.622-6.6-5.622-10.743V232.846C264.3,230.037,265.477,228.3,267.194,228Z" transform="translate(-264.305 -227.923)"/><g transform="translate(20.992 24.043)"><path class="n" d="M281.106,249.1l-5.06-2.921a2.93,2.93,0,0,1-1.226-2.341v-5.409c0-.9.548-1.316,1.226-.927l5.06,2.925a2.929,2.929,0,0,1,1.226,2.34v5.409C282.332,249.08,281.784,249.495,281.106,249.1Z" transform="translate(-257.892 -227.586)"/><path class="g" d="M276.415,246.394l-5.063-2.925a2.93,2.93,0,0,1-1.226-2.34v-5.406c0-.905.548-1.32,1.226-.927l5.063,2.921a2.929,2.929,0,0,1,1.226,2.341v5.409C277.641,246.369,277.093,246.783,276.415,246.394Z" transform="translate(-270.126 -234.648)"/></g></g><g transform="translate(115.231 73.994)"><path class="e" d="M298.15,302.245l127.312-73.507c2.849-1.644,5.161-6.059,5.161-9.856V194.605c0-3.8-2.312-5.546-5.161-3.9L298.15,264.21c-2.853,1.644-5.161,6.059-5.161,9.856v24.278C292.989,302.144,295.3,303.89,298.15,302.245Z" transform="translate(-292.989 -190.084)"/><path class="o" d="M297.325,287.358l120.006-69.284a6.271,6.271,0,0,0,2.615-5V194.821c0-1.926-1.172-2.813-2.615-1.976L297.325,262.129a6.264,6.264,0,0,0-2.618,5v18.251C294.707,287.308,295.879,288.195,297.325,287.358Z" transform="translate(-288.511 -183.711)"/><path class="j" d="M323.612,213.652l17.909-10.343a6.081,6.081,0,0,0,2.542-4.854h0c0-1.875-1.14-2.734-2.542-1.922l-17.909,10.339a6.094,6.094,0,0,0-2.542,4.858h0C321.07,213.6,322.209,214.46,323.612,213.652Z" transform="translate(-219.802 -174.075)"/><path class="h" d="M317.543,206.526c0,1.872,1.313,2.629,2.936,1.695a6.5,6.5,0,0,0,2.935-5.085c0-1.872-1.316-2.629-2.935-1.695A6.488,6.488,0,0,0,317.543,206.526Z" transform="translate(-228.994 -161.528)"/><path class="h" d="M314.671,208.184c0,1.872,1.316,2.629,2.935,1.695a6.488,6.488,0,0,0,2.936-5.085c0-1.872-1.313-2.629-2.936-1.695A6.5,6.5,0,0,0,314.671,208.184Z" transform="translate(-236.48 -157.207)"/><path class="j" d="M311.8,209.843c0,1.872,1.313,2.629,2.936,1.695a6.5,6.5,0,0,0,2.936-5.085c0-1.872-1.316-2.633-2.936-1.695A6.488,6.488,0,0,0,311.8,209.843Z" transform="translate(-243.962 -152.887)"/><path class="h" d="M308.928,211.5c0,1.875,1.316,2.633,2.935,1.695a6.476,6.476,0,0,0,2.936-5.081c0-1.872-1.313-2.633-2.936-1.695A6.486,6.486,0,0,0,308.928,211.5Z" transform="translate(-251.448 -148.566)"/><path class="h" d="M298.014,226.422l6.03-3.484a3.9,3.9,0,0,0,1.634-3.116v-6.383c0-1.2-.732-1.753-1.634-1.233l-6.03,3.484a3.9,3.9,0,0,0-1.634,3.116v6.383C296.38,226.39,297.112,226.941,298.014,226.422Z" transform="translate(-284.151 -132.938)"/></g><g transform="translate(115.231 117.994)"><path class="e" d="M298.15,302.245l127.312-73.507c2.849-1.644,5.161-6.059,5.161-9.856V194.605c0-3.8-2.312-5.546-5.161-3.9L298.15,264.21c-2.853,1.644-5.161,6.059-5.161,9.856v24.278C292.989,302.144,295.3,303.89,298.15,302.245Z" transform="translate(-292.989 -190.084)"/><path class="o" d="M297.325,287.358l120.006-69.284a6.271,6.271,0,0,0,2.615-5V194.821c0-1.926-1.172-2.813-2.615-1.976L297.325,262.129a6.264,6.264,0,0,0-2.618,5v18.251C294.707,287.308,295.879,288.195,297.325,287.358Z" transform="translate(-288.511 -183.711)"/><path class="j" d="M323.612,213.652l17.909-10.343a6.081,6.081,0,0,0,2.542-4.854h0c0-1.875-1.14-2.734-2.542-1.922l-17.909,10.339a6.094,6.094,0,0,0-2.542,4.858h0C321.07,213.6,322.209,214.46,323.612,213.652Z" transform="translate(-219.802 -174.075)"/><path class="h" d="M317.543,206.526c0,1.872,1.313,2.629,2.936,1.695a6.5,6.5,0,0,0,2.935-5.085c0-1.872-1.316-2.629-2.935-1.695A6.488,6.488,0,0,0,317.543,206.526Z" transform="translate(-228.994 -161.528)"/><path class="h" d="M314.671,208.184c0,1.872,1.316,2.629,2.935,1.695a6.488,6.488,0,0,0,2.936-5.085c0-1.872-1.313-2.629-2.936-1.695A6.5,6.5,0,0,0,314.671,208.184Z" transform="translate(-236.48 -157.207)"/><path class="j" d="M311.8,209.843c0,1.872,1.313,2.629,2.936,1.695a6.5,6.5,0,0,0,2.936-5.085c0-1.872-1.316-2.633-2.936-1.695A6.488,6.488,0,0,0,311.8,209.843Z" transform="translate(-243.962 -152.887)"/><path class="h" d="M308.928,211.5c0,1.875,1.316,2.633,2.935,1.695a6.476,6.476,0,0,0,2.936-5.081c0-1.872-1.313-2.633-2.936-1.695A6.486,6.486,0,0,0,308.928,211.5Z" transform="translate(-251.448 -148.566)"/><path class="h" d="M298.014,226.422l6.03-3.484a3.9,3.9,0,0,0,1.634-3.116v-6.383c0-1.2-.732-1.753-1.634-1.233l-6.03,3.484a3.9,3.9,0,0,0-1.634,3.116v6.383C296.38,226.39,297.112,226.941,298.014,226.422Z" transform="translate(-284.151 -132.938)"/></g><g transform="translate(115.231 161.994)"><path class="e" d="M298.15,302.245l127.312-73.507c2.849-1.644,5.161-6.059,5.161-9.856V194.605c0-3.8-2.312-5.546-5.161-3.9L298.15,264.21c-2.853,1.644-5.161,6.059-5.161,9.856v24.278C292.989,302.144,295.3,303.89,298.15,302.245Z" transform="translate(-292.989 -190.084)"/><path class="o" d="M297.325,287.358l120.006-69.284a6.271,6.271,0,0,0,2.615-5V194.821c0-1.926-1.172-2.813-2.615-1.976L297.325,262.129a6.264,6.264,0,0,0-2.618,5v18.251C294.707,287.308,295.879,288.195,297.325,287.358Z" transform="translate(-288.511 -183.711)"/><path class="j" d="M323.612,213.652l17.909-10.343a6.081,6.081,0,0,0,2.542-4.854h0c0-1.875-1.14-2.734-2.542-1.922l-17.909,10.339a6.094,6.094,0,0,0-2.542,4.858h0C321.07,213.6,322.209,214.46,323.612,213.652Z" transform="translate(-219.802 -174.075)"/><path class="h" d="M317.543,206.526c0,1.872,1.313,2.629,2.936,1.695a6.5,6.5,0,0,0,2.935-5.085c0-1.872-1.316-2.629-2.935-1.695A6.488,6.488,0,0,0,317.543,206.526Z" transform="translate(-228.994 -161.528)"/><path class="h" d="M314.671,208.184c0,1.872,1.316,2.629,2.935,1.695a6.488,6.488,0,0,0,2.936-5.085c0-1.872-1.313-2.629-2.936-1.695A6.5,6.5,0,0,0,314.671,208.184Z" transform="translate(-236.48 -157.207)"/><path class="j" d="M311.8,209.843c0,1.872,1.313,2.629,2.936,1.695a6.5,6.5,0,0,0,2.936-5.085c0-1.872-1.316-2.633-2.936-1.695A6.488,6.488,0,0,0,311.8,209.843Z" transform="translate(-243.962 -152.887)"/><path class="h" d="M308.928,211.5c0,1.875,1.316,2.633,2.935,1.695a6.476,6.476,0,0,0,2.936-5.081c0-1.872-1.313-2.633-2.936-1.695A6.486,6.486,0,0,0,308.928,211.5Z" transform="translate(-251.448 -148.566)"/><path class="h" d="M298.014,226.422l6.03-3.484a3.9,3.9,0,0,0,1.634-3.116v-6.383c0-1.2-.732-1.753-1.634-1.233l-6.03,3.484a3.9,3.9,0,0,0-1.634,3.116v6.383C296.38,226.39,297.112,226.941,298.014,226.422Z" transform="translate(-284.151 -132.938)"/></g><g transform="translate(115.231 205.994)"><path class="e" d="M298.15,302.245l127.312-73.507c2.849-1.644,5.161-6.059,5.161-9.856V194.605c0-3.8-2.312-5.546-5.161-3.9L298.15,264.21c-2.853,1.644-5.161,6.059-5.161,9.856v24.278C292.989,302.144,295.3,303.89,298.15,302.245Z" transform="translate(-292.989 -190.084)"/><path class="o" d="M297.325,287.358l120.006-69.284a6.271,6.271,0,0,0,2.615-5V194.821c0-1.926-1.172-2.813-2.615-1.976L297.325,262.129a6.264,6.264,0,0,0-2.618,5v18.251C294.707,287.308,295.879,288.195,297.325,287.358Z" transform="translate(-288.511 -183.711)"/><path class="j" d="M323.612,213.652l17.909-10.343a6.081,6.081,0,0,0,2.542-4.854h0c0-1.875-1.14-2.734-2.542-1.922l-17.909,10.339a6.094,6.094,0,0,0-2.542,4.858h0C321.07,213.6,322.209,214.46,323.612,213.652Z" transform="translate(-219.802 -174.075)"/><path class="h" d="M317.543,206.526c0,1.872,1.313,2.629,2.936,1.695a6.5,6.5,0,0,0,2.935-5.085c0-1.872-1.316-2.629-2.935-1.695A6.488,6.488,0,0,0,317.543,206.526Z" transform="translate(-228.994 -161.528)"/><path class="h" d="M314.671,208.184c0,1.872,1.316,2.629,2.935,1.695a6.488,6.488,0,0,0,2.936-5.085c0-1.872-1.313-2.629-2.936-1.695A6.5,6.5,0,0,0,314.671,208.184Z" transform="translate(-236.48 -157.207)"/><path class="j" d="M311.8,209.843c0,1.872,1.313,2.629,2.936,1.695a6.5,6.5,0,0,0,2.936-5.085c0-1.872-1.316-2.633-2.936-1.695A6.488,6.488,0,0,0,311.8,209.843Z" transform="translate(-243.962 -152.887)"/><path class="h" d="M308.928,211.5c0,1.875,1.316,2.633,2.935,1.695a6.476,6.476,0,0,0,2.936-5.081c0-1.872-1.313-2.633-2.936-1.695A6.486,6.486,0,0,0,308.928,211.5Z" transform="translate(-251.448 -148.566)"/><path class="h" d="M298.014,226.422l6.03-3.484a3.9,3.9,0,0,0,1.634-3.116v-6.383c0-1.2-.732-1.753-1.634-1.233l-6.03,3.484a3.9,3.9,0,0,0-1.634,3.116v6.383C296.38,226.39,297.112,226.941,298.014,226.422Z" transform="translate(-284.151 -132.938)"/></g><g transform="translate(115.231 249.994)"><path class="e" d="M298.15,302.245l127.312-73.507c2.849-1.644,5.161-6.059,5.161-9.856V194.605c0-3.8-2.312-5.546-5.161-3.9L298.15,264.21c-2.853,1.644-5.161,6.059-5.161,9.856v24.278C292.989,302.144,295.3,303.89,298.15,302.245Z" transform="translate(-292.989 -190.084)"/><path class="o" d="M297.325,287.358l120.006-69.284a6.271,6.271,0,0,0,2.615-5V194.821c0-1.926-1.172-2.813-2.615-1.976L297.325,262.129a6.264,6.264,0,0,0-2.618,5v18.251C294.707,287.308,295.879,288.195,297.325,287.358Z" transform="translate(-288.511 -183.711)"/><path class="j" d="M323.612,213.652l17.909-10.343a6.081,6.081,0,0,0,2.542-4.854h0c0-1.875-1.14-2.734-2.542-1.922l-17.909,10.339a6.094,6.094,0,0,0-2.542,4.858h0C321.07,213.6,322.209,214.46,323.612,213.652Z" transform="translate(-219.802 -174.075)"/><path class="h" d="M317.543,206.526c0,1.872,1.313,2.629,2.936,1.695a6.5,6.5,0,0,0,2.935-5.085c0-1.872-1.316-2.629-2.935-1.695A6.488,6.488,0,0,0,317.543,206.526Z" transform="translate(-228.994 -161.528)"/><path class="h" d="M314.671,208.184c0,1.872,1.316,2.629,2.935,1.695a6.488,6.488,0,0,0,2.936-5.085c0-1.872-1.313-2.629-2.936-1.695A6.5,6.5,0,0,0,314.671,208.184Z" transform="translate(-236.48 -157.207)"/><path class="j" d="M311.8,209.843c0,1.872,1.313,2.629,2.936,1.695a6.5,6.5,0,0,0,2.936-5.085c0-1.872-1.316-2.633-2.936-1.695A6.488,6.488,0,0,0,311.8,209.843Z" transform="translate(-243.962 -152.887)"/><path class="h" d="M308.928,211.5c0,1.875,1.316,2.633,2.935,1.695a6.476,6.476,0,0,0,2.936-5.081c0-1.872-1.313-2.633-2.936-1.695A6.486,6.486,0,0,0,308.928,211.5Z" transform="translate(-251.448 -148.566)"/><path class="h" d="M298.014,226.422l6.03-3.484a3.9,3.9,0,0,0,1.634-3.116v-6.383c0-1.2-.732-1.753-1.634-1.233l-6.03,3.484a3.9,3.9,0,0,0-1.634,3.116v6.383C296.38,226.39,297.112,226.941,298.014,226.422Z" transform="translate(-284.151 -132.938)"/></g><g transform="translate(115.231 293.994)"><path class="e" d="M298.15,302.245l127.312-73.507c2.849-1.644,5.161-6.059,5.161-9.856V194.605c0-3.8-2.312-5.546-5.161-3.9L298.15,264.21c-2.853,1.644-5.161,6.059-5.161,9.856v24.278C292.989,302.144,295.3,303.89,298.15,302.245Z" transform="translate(-292.989 -190.084)"/><path class="o" d="M297.325,287.358l120.006-69.284a6.271,6.271,0,0,0,2.615-5V194.821c0-1.926-1.172-2.813-2.615-1.976L297.325,262.129a6.264,6.264,0,0,0-2.618,5v18.251C294.707,287.308,295.879,288.195,297.325,287.358Z" transform="translate(-288.511 -183.711)"/><path class="j" d="M323.612,213.652l17.909-10.343a6.081,6.081,0,0,0,2.542-4.854h0c0-1.875-1.14-2.734-2.542-1.922l-17.909,10.339a6.094,6.094,0,0,0-2.542,4.858h0C321.07,213.6,322.209,214.46,323.612,213.652Z" transform="translate(-219.802 -174.075)"/><path class="h" d="M317.543,206.526c0,1.872,1.313,2.629,2.936,1.695a6.5,6.5,0,0,0,2.935-5.085c0-1.872-1.316-2.629-2.935-1.695A6.488,6.488,0,0,0,317.543,206.526Z" transform="translate(-228.994 -161.528)"/><path class="h" d="M314.671,208.184c0,1.872,1.316,2.629,2.935,1.695a6.488,6.488,0,0,0,2.936-5.085c0-1.872-1.313-2.629-2.936-1.695A6.5,6.5,0,0,0,314.671,208.184Z" transform="translate(-236.48 -157.207)"/><path class="j" d="M311.8,209.843c0,1.872,1.313,2.629,2.936,1.695a6.5,6.5,0,0,0,2.936-5.085c0-1.872-1.316-2.633-2.936-1.695A6.488,6.488,0,0,0,311.8,209.843Z" transform="translate(-243.962 -152.887)"/><path class="h" d="M308.928,211.5c0,1.875,1.316,2.633,2.935,1.695a6.476,6.476,0,0,0,2.936-5.081c0-1.872-1.313-2.633-2.936-1.695A6.486,6.486,0,0,0,308.928,211.5Z" transform="translate(-251.448 -148.566)"/><path class="h" d="M298.014,226.422l6.03-3.484a3.9,3.9,0,0,0,1.634-3.116v-6.383c0-1.2-.732-1.753-1.634-1.233l-6.03,3.484a3.9,3.9,0,0,0-1.634,3.116v6.383C296.38,226.39,297.112,226.941,298.014,226.422Z" transform="translate(-284.151 -132.938)"/></g><g transform="translate(115.231 337.994)"><path class="e" d="M298.15,302.245l127.312-73.507c2.849-1.644,5.161-6.059,5.161-9.856V194.605c0-3.8-2.312-5.546-5.161-3.9L298.15,264.21c-2.853,1.644-5.161,6.059-5.161,9.856v24.278C292.989,302.144,295.3,303.89,298.15,302.245Z" transform="translate(-292.989 -190.084)"/><path class="o" d="M297.325,287.358l120.006-69.284a6.271,6.271,0,0,0,2.615-5V194.821c0-1.926-1.172-2.813-2.615-1.976L297.325,262.129a6.264,6.264,0,0,0-2.618,5v18.251C294.707,287.308,295.879,288.195,297.325,287.358Z" transform="translate(-288.511 -183.711)"/><path class="j" d="M323.612,213.652l17.909-10.343a6.081,6.081,0,0,0,2.542-4.854h0c0-1.875-1.14-2.734-2.542-1.922l-17.909,10.339a6.094,6.094,0,0,0-2.542,4.858h0C321.07,213.6,322.209,214.46,323.612,213.652Z" transform="translate(-219.802 -174.075)"/><path class="h" d="M317.543,206.526c0,1.872,1.313,2.629,2.936,1.695a6.5,6.5,0,0,0,2.935-5.085c0-1.872-1.316-2.629-2.935-1.695A6.488,6.488,0,0,0,317.543,206.526Z" transform="translate(-228.994 -161.528)"/><path class="h" d="M314.671,208.184c0,1.872,1.316,2.629,2.935,1.695a6.488,6.488,0,0,0,2.936-5.085c0-1.872-1.313-2.629-2.936-1.695A6.5,6.5,0,0,0,314.671,208.184Z" transform="translate(-236.48 -157.207)"/><path class="j" d="M311.8,209.843c0,1.872,1.313,2.629,2.936,1.695a6.5,6.5,0,0,0,2.936-5.085c0-1.872-1.316-2.633-2.936-1.695A6.488,6.488,0,0,0,311.8,209.843Z" transform="translate(-243.962 -152.887)"/><path class="h" d="M308.928,211.5c0,1.875,1.316,2.633,2.935,1.695a6.476,6.476,0,0,0,2.936-5.081c0-1.872-1.313-2.633-2.936-1.695A6.486,6.486,0,0,0,308.928,211.5Z" transform="translate(-251.448 -148.566)"/><path class="h" d="M298.014,226.422l6.03-3.484a3.9,3.9,0,0,0,1.634-3.116v-6.383c0-1.2-.732-1.753-1.634-1.233l-6.03,3.484a3.9,3.9,0,0,0-1.634,3.116v6.383C296.38,226.39,297.112,226.941,298.014,226.422Z" transform="translate(-284.151 -132.938)"/></g></g><g transform="translate(1079.193 370.224)"><path class="b" d="M82.107,589.478c-.666,0-1.2-3.3-1.2-7.371V162.555c0-4.069.536-7.371,1.2-7.371s1.2,3.3,1.2,7.371V582.106C83.309,586.175,82.771,589.478,82.107,589.478Z" transform="translate(-72.47 -116.313)"/><g transform="translate(3.689 35.768)"><rect class="i" width="11.893" height="25.664"/><path class="i" d="M89.083,169a9.3,9.3,0,0,1-8.409,0c-2.324-1.342-2.324-3.514,0-4.856a9.3,9.3,0,0,1,8.409,0C91.4,165.483,91.4,167.655,89.083,169Z" transform="translate(-78.932 -140.905)"/></g><rect class="i" width="19.272" height="40.252"/><path class="l" d="M78.932,156.348v8.686a15.378,15.378,0,0,0,11.892,0v-8.686A15.378,15.378,0,0,0,78.932,156.348Z" transform="translate(-75.241 -116.358)"/><path class="i" d="M93.846,162.942a15.047,15.047,0,0,1-13.626,0c-3.762-2.172-3.762-5.693,0-7.868a15.062,15.062,0,0,1,13.626,0C97.61,157.248,97.61,160.77,93.846,162.942Z" transform="translate(-77.397 -118.757)"/></g><g transform="translate(1145.951 407.786)"><path class="b" d="M109.861,604.825c-.666,0-1.2-3.286-1.2-7.367V178.167c0-4.066.536-7.367,1.2-7.367s1.2,3.3,1.2,7.367V597.459C111.063,601.539,110.525,604.825,109.861,604.825Z" transform="translate(-100.224 -131.93)"/><g transform="translate(3.689 35.768)"><rect class="i" width="11.893" height="25.664"/><path class="i" d="M116.837,184.613a9.284,9.284,0,0,1-8.409,0c-2.324-1.34-2.324-3.514,0-4.854a9.284,9.284,0,0,1,8.409,0C119.158,181.1,119.158,183.273,116.837,184.613Z" transform="translate(-106.685 -156.522)"/></g><rect class="i" width="19.272" height="40.252"/><path class="l" d="M106.685,171.963v8.686a15.384,15.384,0,0,0,11.894,0v-8.686A15.405,15.405,0,0,0,106.685,171.963Z" transform="translate(-102.997 -131.974)"/><path class="i" d="M121.6,178.559a15.062,15.062,0,0,1-13.626,0c-3.762-2.172-3.762-5.7,0-7.868a15.062,15.062,0,0,1,13.626,0C125.364,172.863,125.364,176.387,121.6,178.559Z" transform="translate(-105.151 -134.373)"/></g><g transform="translate(5027.02 546)"><path class="d" d="M-3910-115v55.869c0,41.1,142.874,41.1,142.874,0v-49.686l-55.648,25.395Z" transform="translate(-55.277 -100.503)"/><path class="l" d="M-3854.954,14.61c0,.406-.57.786-1.546,1.1v-2.2C-3855.524,13.824-3854.954,14.2-3854.954,14.61Z" transform="translate(-85.148 -172.256)"/><path class="p" d="M-3600.7-187v11.925L-3712-123.4v-11.925Z" transform="translate(-165.83 -60.302)"/><path class="q" d="M-3877.83-130.3v11.925l-131.17-47.7V-178Z" transform="translate(0 -65.327)"/><path class="f" d="M-4009-243.327l131.17,47.7,111.3-51.673L-3897.7-295Z"/><path class="i" d="M-3805.053-182.272l-65.93,29.507a9.494,9.494,0,0,0-5.618,8.665v44.854a16.141,16.141,0,0,1-2.712.57,36.784,36.784,0,0,1-5.017.318,37.434,37.434,0,0,1-4.942-.3,14.28,14.28,0,0,1-3.229-.742v-52.989a9.5,9.5,0,0,1,5.455-8.595l62.118-29.233C-3808.586-197.288-3797.987-184.922-3805.053-182.272Z" transform="translate(-65.048 -57.301)"/><path class="l" d="M-3893.5,13.809a1.223,1.223,0,0,0,.382,1.052c.772.522,3.413,1.013,7.788,1.013s7.729-.116,7.729-2.364c.571.212.476,1.1.476,1.1l-.476,1.1-8.789,2.15-5.9-1.263-2.006-.888Z" transform="translate(-64.048 -172.256)"/><path class="r" d="M-3876.684,19.975c0,1.1-5.035,1.987-10.158,1.987S-3897,21.075-3897,19.975l.155-.693.009-.035.72-3.246c0,.34.4.662,1.1.941a14.276,14.276,0,0,0,3.229.742,37.429,37.429,0,0,0,4.942.3,36.794,36.794,0,0,0,5.017-.318,16.135,16.135,0,0,0,2.711-.57c.976-.314,1.546-.693,1.546-1.1l.844,3.8.013.053Z" transform="translate(-62.535 -173.647)"/><path class="i" d="M-3878.818,48.919c0,9.4-32.682,9.4-32.682,0l6.4-24.07h0c0,1.1,5.035,1.987,10.158,1.987s10.158-.888,10.158-1.987l-.027-.119C-3884.533,25.821-3880.1,43.359-3878.818,48.919Z" transform="translate(-54.439 -178.521)"/><path class="s" d="M-3851.09,24.61l.013.053" transform="translate(-88.169 -178.454)"/><g transform="translate(-3965.277 -215.503)"><g class="t"><path class="u" d="M-3749.792-128.2c-27.215,38.284,0,73.857,0,73.857l81.075,3.893-5.775-111.178Z" transform="translate(3827.301 141.034)"/></g></g></g></g></svg>