<svg xmlns="http://www.w3.org/2000/svg" xmlns:xlink="http://www.w3.org/1999/xlink" width="1920" height="851" viewBox="0 0 1920 851"><defs><style>.a{fill:#fff;stroke:#707070;}.b{fill:#e5f5f3;}.c{clip-path:url(#a);}.d{fill:#f2faf9;}.e{clip-path:url(#b);}.f{fill:#01998a;opacity:0.2;}</style><clipPath id="a"><rect class="a" width="1920" height="851" transform="translate(0 7377)"/></clipPath><clipPath id="b"><path class="b" d="M0,0S1441.5-165.25,1922,0s0,661,0,661S480.5,826.25,0,661,0,0,0,0Z" transform="translate(0 6828.074)"/></clipPath></defs><g class="c" transform="translate(0 -7377)"><path class="d" d="M0,54.164S1441.5-165.25,1922,0s0,661,0,661S480.5,826.25,0,661,0,54.164,0,54.164Z" transform="translate(-1 7438.25)"/><path class="b" d="M0,0S1441.5-165.25,1922,0s0,661,0,661S480.5,826.25,0,661,0,0,0,0Z" transform="translate(0 7493.25)"/><g class="e" transform="translate(0 665.176)"><path class="f" d="M11410.572,5161.074c0-72.161-84.336-290.143-230.285-248.333s-462.28,215.353-808.78,165.651-744.751-196.284-804.827-157.585-79.632,127.113-79.632,127.113v113.154Z" transform="translate(-9487.01 2420.809)"/><path class="f" d="M11407.153,5160c0-72.161,7.668-233.121-103.5-224.415S10488.944,5127.2,10239,5091.7s-496.984-125.5-592.061-133.484-157.6,88.629-157.6,88.629V5160Z" transform="translate(-9487.01 2420.809)"/></g></g></svg>