<svg xmlns="http://www.w3.org/2000/svg" width="938.419" height="351.185" viewBox="0 0 938.419 351.185"><defs><style>.a{fill:#fff;}.a,.b,.c,.f{stroke:#065bfa;}.a,.b,.c{stroke-width:2px;}.b,.f,.g{fill:none;}.b{stroke-miterlimit:10;}.d{fill:#ffc02f;}.e{fill:#003057;}.f{stroke-linecap:round;stroke-linejoin:round;stroke-width:4px;}.h{stroke:none;}</style></defs><g transform="translate(-89.012 -717.001)"><g class="a" transform="translate(185.444 736.789)"><rect class="h" width="323.225" height="134" rx="6"/><rect class="g" x="1" y="1" width="321.225" height="132" rx="5"/></g><g class="a" transform="translate(620.444 736.789)"><rect class="h" width="324.285" height="134" rx="6"/><rect class="g" x="1" y="1" width="322.285" height="132" rx="5"/></g><g class="a" transform="translate(620.444 934.186)"><rect class="h" width="324.285" height="134" rx="6"/><rect class="g" x="1" y="1" width="322.285" height="132" rx="5"/></g><g class="a" transform="translate(185.444 934.186)"><rect class="h" width="324.285" height="134" rx="6"/><rect class="g" x="1" y="1" width="322.285" height="132" rx="5"/></g><path d="M2.28,19h5.7c4.48,0,7.5-2.88,7.5-7s-3.02-7-7.5-7H2.28Zm1.48-1.28V6.28H7.9c3.72,0,6.12,2.36,6.12,5.72s-2.4,5.72-6.12,5.72Zm23.92-3.98a5.013,5.013,0,0,0-5.1-5.34,5.067,5.067,0,0,0-5.14,5.34,5.21,5.21,0,0,0,5.52,5.36,5.178,5.178,0,0,0,4.06-1.72l-.8-.92A4.147,4.147,0,0,1,23,17.84a3.894,3.894,0,0,1-4.14-3.66h8.8C27.66,14.02,27.68,13.86,27.68,13.74Zm-5.1-4.12a3.659,3.659,0,0,1,3.74,3.5H18.86A3.654,3.654,0,0,1,22.58,9.62Zm8.24-2.44v1.3H28.94v1.2h1.88V19h1.42V9.68h3.2V8.48H32.2V7.24c0-1.3.64-1.98,1.86-1.98a2.406,2.406,0,0,1,1.56.52l.48-1.06A3.334,3.334,0,0,0,34,4.06,2.9,2.9,0,0,0,30.82,7.18Zm8.86-3.02a1.01,1.01,0,1,0,1.04.98A1.009,1.009,0,0,0,39.68,4.16ZM38.96,19h1.42V8.48H38.96ZM49.7,8.4a4.421,4.421,0,0,0-4,2.02V8.48H44.34V19h1.42V13.48a3.449,3.449,0,0,1,3.68-3.8c2,0,3.16,1.14,3.16,3.36V19h1.42V12.9C54.02,9.88,52.26,8.4,49.7,8.4Zm17.4,5.34A5.013,5.013,0,0,0,62,8.4a5.067,5.067,0,0,0-5.14,5.34,5.562,5.562,0,0,0,9.58,3.64l-.8-.92a4.147,4.147,0,0,1-3.22,1.38,3.894,3.894,0,0,1-4.14-3.66h8.8C67.08,14.02,67.1,13.86,67.1,13.74ZM62,9.62a3.659,3.659,0,0,1,3.74,3.5H58.28A3.654,3.654,0,0,1,62,9.62Zm18.28,7.72a2.35,2.35,0,0,1-1.56.54,1.685,1.685,0,0,1-1.82-1.92V9.68h3.2V8.48H76.9V6.18H75.48v2.3H73.6v1.2h1.88v6.36a2.787,2.787,0,0,0,3.08,3.06,3.382,3.382,0,0,0,2.22-.74ZM88.72,8.4a4.446,4.446,0,0,0-3.94,1.92V4.16H83.36V19h1.42V13.48a3.449,3.449,0,0,1,3.68-3.8c2,0,3.16,1.14,3.16,3.36V19h1.42V12.9C93.04,9.88,91.28,8.4,88.72,8.4Zm17.4,5.34a5.013,5.013,0,0,0-5.1-5.34,5.067,5.067,0,0,0-5.14,5.34,5.562,5.562,0,0,0,9.58,3.64l-.8-.92a4.147,4.147,0,0,1-3.22,1.38,3.894,3.894,0,0,1-4.14-3.66h8.8C106.1,14.02,106.12,13.86,106.12,13.74Zm-5.1-4.12a3.659,3.659,0,0,1,3.74,3.5H97.3A3.654,3.654,0,0,1,101.02,9.62ZM7.52,37H2.28V51H3.76V46.58H7.52c3.56,0,5.72-1.8,5.72-4.78C13.24,38.8,11.08,37,7.52,37Zm-.04,8.28H3.76v-7H7.48c2.8,0,4.28,1.28,4.28,3.52C11.76,44,10.28,45.28,7.48,45.28Zm9.76-2.74V40.48H15.88V51H17.3V45.64c0-2.48,1.34-3.88,3.54-3.88.1,0,.22.02.34.02V40.4A3.967,3.967,0,0,0,17.24,42.54Zm10.7,8.56a5.35,5.35,0,0,0,0-10.7,5.35,5.35,0,1,0,0,10.7Zm0-1.26a3.852,3.852,0,0,1-3.92-4.1,3.914,3.914,0,1,1,7.82,0A3.836,3.836,0,0,1,27.94,49.84ZM41.6,40.4a4.6,4.6,0,0,0-4,2.08V36.16H36.18V51h1.36V48.92A4.557,4.557,0,0,0,41.6,51.1a5.106,5.106,0,0,0,5.24-5.36A5.089,5.089,0,0,0,41.6,40.4Zm-.1,9.44a3.852,3.852,0,0,1-3.92-4.1,3.924,3.924,0,1,1,7.84,0A3.863,3.863,0,0,1,41.5,49.84ZM49.74,51h1.42V36.16H49.74ZM64.3,45.74a5.013,5.013,0,0,0-5.1-5.34,5.067,5.067,0,0,0-5.14,5.34,5.562,5.562,0,0,0,9.58,3.64l-.8-.92a4.147,4.147,0,0,1-3.22,1.38,3.894,3.894,0,0,1-4.14-3.66h8.8C64.28,46.02,64.3,45.86,64.3,45.74Zm-5.1-4.12a3.659,3.659,0,0,1,3.74,3.5H55.48A3.654,3.654,0,0,1,59.2,41.62ZM80.32,40.4a4.581,4.581,0,0,0-4.16,2.22,3.779,3.779,0,0,0-3.74-2.22,4.254,4.254,0,0,0-3.86,2V40.48H67.2V51h1.42V45.48c0-2.4,1.38-3.8,3.52-3.8,1.92,0,3.04,1.14,3.04,3.36V51H76.6V45.48c0-2.4,1.36-3.8,3.52-3.8,1.9,0,3.02,1.14,3.02,3.36V51h1.42V44.9C84.56,41.88,82.88,40.4,80.32,40.4Z" transform="translate(304.72 774.94)"/><path d="M3.76-1.28v-5.2H11V-7.74H3.76v-4.98h8.12V-14H2.28V0h9.9V-1.28ZM23.38,0l-4.2-5.4,3.96-5.12H21.58L18.42-6.4l-3.16-4.12h-1.6L17.62-5.4,13.46,0h1.6l3.36-4.4L21.76,0Zm7.78-10.6A4.582,4.582,0,0,0,27.1-8.44v-2.08H25.74V3.88h1.42V-1.98a4.6,4.6,0,0,0,4,2.08A5.1,5.1,0,0,0,36.4-5.26,5.089,5.089,0,0,0,31.16-10.6Zm-.1,9.44a3.852,3.852,0,0,1-3.92-4.1,3.863,3.863,0,0,1,3.92-4.1,3.874,3.874,0,0,1,3.92,4.1A3.863,3.863,0,0,1,31.06-1.16ZM39.3,0h1.42V-14.84H39.3Zm9.68.1a5.175,5.175,0,0,0,5.34-5.36,5.158,5.158,0,0,0-5.34-5.34,5.174,5.174,0,0,0-5.36,5.34A5.191,5.191,0,0,0,48.98.1Zm0-1.26a3.852,3.852,0,0,1-3.92-4.1,3.852,3.852,0,0,1,3.92-4.1,3.836,3.836,0,0,1,3.9,4.1A3.836,3.836,0,0,1,48.98-1.16Zm9.6-7.3v-2.06H57.22V0h1.42V-5.36c0-2.48,1.34-3.88,3.54-3.88.1,0,.22.02.34.02V-10.6A3.967,3.967,0,0,0,58.58-8.46Zm15.58,3.2a5.013,5.013,0,0,0-5.1-5.34,5.067,5.067,0,0,0-5.14,5.34A5.21,5.21,0,0,0,69.44.1,5.178,5.178,0,0,0,73.5-1.62l-.8-.92a4.147,4.147,0,0,1-3.22,1.38,3.894,3.894,0,0,1-4.14-3.66h8.8C74.14-4.98,74.16-5.14,74.16-5.26Zm-5.1-4.12a3.659,3.659,0,0,1,3.74,3.5H65.34A3.654,3.654,0,0,1,69.06-9.38ZM85.98-10.6A6.68,6.68,0,0,0,81.7-9.18l.64,1.06a5.359,5.359,0,0,1,3.5-1.24c1.96,0,2.98.98,2.98,2.78v.64H85.48c-3.02,0-4.06,1.36-4.06,2.98C81.42-1.14,82.88.1,85.26.1a3.95,3.95,0,0,0,3.62-1.74V0h1.36V-6.52C90.24-9.24,88.7-10.6,85.98-10.6Zm-.5,9.58c-1.68,0-2.66-.76-2.66-1.98,0-1.08.66-1.88,2.7-1.88h3.3v1.72A3.366,3.366,0,0,1,85.48-1.02ZM99.46-10.6a4.421,4.421,0,0,0-4,2.02v-1.94H94.1V0h1.42V-5.52a3.449,3.449,0,0,1,3.68-3.8c2,0,3.16,1.14,3.16,3.36V0h1.42V-6.1C103.78-9.12,102.02-10.6,99.46-10.6Zm16.4-4.24v6.32a4.6,4.6,0,0,0-4-2.08,5.089,5.089,0,0,0-5.24,5.34A5.106,5.106,0,0,0,111.86.1a4.557,4.557,0,0,0,4.06-2.18V0h1.36V-14.84ZM111.98-1.16a3.852,3.852,0,0,1-3.92-4.1,3.852,3.852,0,0,1,3.92-4.1,3.847,3.847,0,0,1,3.9,4.1A3.847,3.847,0,0,1,111.98-1.16ZM15.6,18,9.58,28.38,3.5,18H2.28V32H3.7V20.86l5.5,9.36h.7l5.5-9.42V32h1.42V18Zm9.78,14.1a5.175,5.175,0,0,0,5.34-5.36,5.158,5.158,0,0,0-5.34-5.34,5.174,5.174,0,0,0-5.36,5.34A5.191,5.191,0,0,0,25.38,32.1Zm0-1.26a3.852,3.852,0,0,1-3.92-4.1,3.914,3.914,0,1,1,7.82,0A3.836,3.836,0,0,1,25.38,30.84ZM41.8,17.16v6.32a4.6,4.6,0,0,0-4-2.08,5.089,5.089,0,0,0-5.24,5.34A5.106,5.106,0,0,0,37.8,32.1a4.557,4.557,0,0,0,4.06-2.18V32h1.36V17.16ZM37.92,30.84A3.852,3.852,0,0,1,34,26.74a3.914,3.914,0,1,1,7.82,0A3.847,3.847,0,0,1,37.92,30.84Zm18.44-4.1a5.013,5.013,0,0,0-5.1-5.34,5.067,5.067,0,0,0-5.14,5.34,5.562,5.562,0,0,0,9.58,3.64l-.8-.92a4.147,4.147,0,0,1-3.22,1.38,3.894,3.894,0,0,1-4.14-3.66h8.8C56.34,27.02,56.36,26.86,56.36,26.74Zm-5.1-4.12A3.659,3.659,0,0,1,55,26.12H47.54A3.654,3.654,0,0,1,51.26,22.62Zm8,9.38h1.42V17.16H59.26Zm10.92,0h5.7c4.48,0,7.5-2.88,7.5-7s-3.02-7-7.5-7h-5.7Zm1.48-1.28V19.28H75.8c3.72,0,6.12,2.36,6.12,5.72s-2.4,5.72-6.12,5.72ZM90.08,21.4a6.68,6.68,0,0,0-4.28,1.42l.64,1.06a5.359,5.359,0,0,1,3.5-1.24c1.96,0,2.98.98,2.98,2.78v.64H89.58c-3.02,0-4.06,1.36-4.06,2.98,0,1.82,1.46,3.06,3.84,3.06a3.95,3.95,0,0,0,3.62-1.74V32h1.36V25.48C94.34,22.76,92.8,21.4,90.08,21.4Zm-.5,9.58c-1.68,0-2.66-.76-2.66-1.98,0-1.08.66-1.88,2.7-1.88h3.3v1.72A3.366,3.366,0,0,1,89.58,30.98Zm13.66-.64a2.35,2.35,0,0,1-1.56.54,1.685,1.685,0,0,1-1.82-1.92V22.68h3.2v-1.2h-3.2v-2.3H98.44v2.3H96.56v1.2h1.88v6.36a2.787,2.787,0,0,0,3.08,3.06,3.382,3.382,0,0,0,2.22-.74ZM110,21.4a6.68,6.68,0,0,0-4.28,1.42l.64,1.06a5.359,5.359,0,0,1,3.5-1.24c1.96,0,2.98.98,2.98,2.78v.64H109.5c-3.02,0-4.06,1.36-4.06,2.98,0,1.82,1.46,3.06,3.84,3.06a3.95,3.95,0,0,0,3.62-1.74V32h1.36V25.48C114.26,22.76,112.72,21.4,110,21.4Zm-.5,9.58c-1.68,0-2.66-.76-2.66-1.98,0-1.08.66-1.88,2.7-1.88h3.3v1.72A3.366,3.366,0,0,1,109.5,30.98Z" transform="translate(732.746 992.186)"/><path d="M8.36.12A6.808,6.808,0,0,0,13.5-1.94l-.94-.94A5.492,5.492,0,0,1,8.42-1.2,5.721,5.721,0,0,1,2.5-7a5.721,5.721,0,0,1,5.92-5.8,5.548,5.548,0,0,1,4.14,1.66l.94-.94a6.779,6.779,0,0,0-5.12-2.04A7.029,7.029,0,0,0,1.04-7,7.024,7.024,0,0,0,8.36.12ZM20.2.1a5.175,5.175,0,0,0,5.34-5.36A5.158,5.158,0,0,0,20.2-10.6a5.174,5.174,0,0,0-5.36,5.34A5.191,5.191,0,0,0,20.2.1Zm0-1.26a3.852,3.852,0,0,1-3.92-4.1,3.852,3.852,0,0,1,3.92-4.1,3.836,3.836,0,0,1,3.9,4.1A3.836,3.836,0,0,1,20.2-1.16ZM41.56-10.6A4.581,4.581,0,0,0,37.4-8.38a3.779,3.779,0,0,0-3.74-2.22,4.254,4.254,0,0,0-3.86,2v-1.92H28.44V0h1.42V-5.52c0-2.4,1.38-3.8,3.52-3.8,1.92,0,3.04,1.14,3.04,3.36V0h1.42V-5.52c0-2.4,1.36-3.8,3.52-3.8,1.9,0,3.02,1.14,3.02,3.36V0H45.8V-6.1C45.8-9.12,44.12-10.6,41.56-10.6Zm21.22,0a4.581,4.581,0,0,0-4.16,2.22,3.779,3.779,0,0,0-3.74-2.22,4.254,4.254,0,0,0-3.86,2v-1.92H49.66V0h1.42V-5.52c0-2.4,1.38-3.8,3.52-3.8,1.92,0,3.04,1.14,3.04,3.36V0h1.42V-5.52c0-2.4,1.36-3.8,3.52-3.8,1.9,0,3.02,1.14,3.02,3.36V0h1.42V-6.1C67.02-9.12,65.34-10.6,62.78-10.6Zm16.16.08V-5c0,2.4-1.38,3.82-3.58,3.82-2,0-3.16-1.14-3.16-3.38v-5.96H70.78v6.1C70.78-1.4,72.54.1,75.22.1A4.185,4.185,0,0,0,79-1.92V0h1.36V-10.52ZM89.7-10.6a4.421,4.421,0,0,0-4,2.02v-1.94H84.34V0h1.42V-5.52a3.449,3.449,0,0,1,3.68-3.8c2,0,3.16,1.14,3.16,3.36V0h1.42V-6.1C94.02-9.12,92.26-10.6,89.7-10.6Zm8.9-2.22a1.021,1.021,0,0,0,1.04-1.04,1.009,1.009,0,0,0-1.04-.98,1.025,1.025,0,0,0-1.04,1A1.029,1.029,0,0,0,98.6-12.82ZM97.88,0H99.3V-10.52H97.88Zm9.74.1a4.638,4.638,0,0,0,4.12-2.08l-1.06-.72a3.558,3.558,0,0,1-3.06,1.54,3.854,3.854,0,0,1-3.98-4.1,3.865,3.865,0,0,1,3.98-4.1,3.576,3.576,0,0,1,3.06,1.56l1.06-.72a4.6,4.6,0,0,0-4.12-2.08,5.178,5.178,0,0,0-5.42,5.34A5.194,5.194,0,0,0,107.62.1ZM118.2-10.6a6.68,6.68,0,0,0-4.28,1.42l.64,1.06a5.359,5.359,0,0,1,3.5-1.24c1.96,0,2.98.98,2.98,2.78v.64H117.7c-3.02,0-4.06,1.36-4.06,2.98,0,1.82,1.46,3.06,3.84,3.06a3.95,3.95,0,0,0,3.62-1.74V0h1.36V-6.52C122.46-9.24,120.92-10.6,118.2-10.6Zm-.5,9.58c-1.68,0-2.66-.76-2.66-1.98,0-1.08.66-1.88,2.7-1.88h3.3v1.72A3.366,3.366,0,0,1,117.7-1.02Zm13.66-.64a2.35,2.35,0,0,1-1.56.54,1.685,1.685,0,0,1-1.82-1.92V-9.32h3.2v-1.2h-3.2v-2.3h-1.42v2.3h-1.88v1.2h1.88v6.36A2.787,2.787,0,0,0,129.64.1a3.382,3.382,0,0,0,2.22-.74Zm11.88-3.6a5.013,5.013,0,0,0-5.1-5.34A5.067,5.067,0,0,0,133-5.26,5.21,5.21,0,0,0,138.52.1a5.178,5.178,0,0,0,4.06-1.72l-.8-.92a4.147,4.147,0,0,1-3.22,1.38,3.894,3.894,0,0,1-4.14-3.66h8.8C143.22-4.98,143.24-5.14,143.24-5.26Zm-5.1-4.12a3.659,3.659,0,0,1,3.74,3.5h-7.46A3.654,3.654,0,0,1,138.14-9.38ZM5.66,21.4a6.68,6.68,0,0,0-4.28,1.42l.64,1.06a5.359,5.359,0,0,1,3.5-1.24c1.96,0,2.98.98,2.98,2.78v.64H5.16c-3.02,0-4.06,1.36-4.06,2.98,0,1.82,1.46,3.06,3.84,3.06a3.95,3.95,0,0,0,3.62-1.74V32H9.92V25.48C9.92,22.76,8.38,21.4,5.66,21.4Zm-.5,9.58c-1.68,0-2.66-.76-2.66-1.98,0-1.08.66-1.88,2.7-1.88H8.5v1.72A3.366,3.366,0,0,1,5.16,30.98ZM19.14,21.4a4.421,4.421,0,0,0-4,2.02V21.48H13.78V32H15.2V26.48a3.449,3.449,0,0,1,3.68-3.8c2,0,3.16,1.14,3.16,3.36V32h1.42V25.9C23.46,22.88,21.7,21.4,19.14,21.4Zm16.4-4.24v6.32a4.6,4.6,0,0,0-4-2.08,5.089,5.089,0,0,0-5.24,5.34,5.106,5.106,0,0,0,5.24,5.36,4.557,4.557,0,0,0,4.06-2.18V32h1.36V17.16ZM31.66,30.84a3.852,3.852,0,0,1-3.92-4.1,3.914,3.914,0,1,1,7.82,0A3.847,3.847,0,0,1,31.66,30.84ZM56.92,32h1.56l-6.4-14H50.62l-6.4,14h1.54l1.68-3.74h7.8Zm-8.94-4.94,3.36-7.52,3.36,7.52ZM64.76,32.1a4.638,4.638,0,0,0,4.12-2.08l-1.06-.72a3.558,3.558,0,0,1-3.06,1.54,3.854,3.854,0,0,1-3.98-4.1,3.865,3.865,0,0,1,3.98-4.1,3.576,3.576,0,0,1,3.06,1.56l1.06-.72a4.6,4.6,0,0,0-4.12-2.08,5.178,5.178,0,0,0-5.42,5.34A5.194,5.194,0,0,0,64.76,32.1Zm12.06-1.76a2.35,2.35,0,0,1-1.56.54,1.685,1.685,0,0,1-1.82-1.92V22.68h3.2v-1.2h-3.2v-2.3H72.02v2.3H70.14v1.2h1.88v6.36A2.787,2.787,0,0,0,75.1,32.1a3.382,3.382,0,0,0,2.22-.74Z" transform="translate(305.96 991.84)"/><g transform="translate(144.012 840.099) rotate(45)"><path class="b" d="M925.4,153.562a80.627,80.627,0,0,1-80.618-79.424" transform="translate(-839.938 -72.935)"/><g transform="translate(0 0)"><path class="c" d="M930.025,154.451a.5.5,0,0,1-.694-.136l-4.271-6.346-3.945,6.554a.5.5,0,1,1-.857-.516l4.35-7.227a.5.5,0,0,1,.843-.021l4.71,7a.5.5,0,0,1-.136.694Z" transform="translate(-920.187 -146.538)"/></g></g><g transform="translate(972.431 957.542) rotate(-135)"><path class="b" d="M80.618,79.424A80.628,80.628,0,0,1,0,0" transform="translate(4.845 1.203)"/><g transform="translate(0 0)"><path class="c" d="M9.838,7.913a.5.5,0,0,1-.694-.136L4.873,1.431.928,7.985a.5.5,0,1,1-.857-.516L4.421.242A.5.5,0,0,1,5.264.221l4.71,7a.5.5,0,0,1-.136.694Z" transform="translate(0 0)"/></g></g><g transform="translate(603.321 921.252) rotate(90)"><path class="b" d="M925.4,37.695c0,30.013-.643,41.136,0,66.3" transform="translate(-844.783 -24.567)"/><g transform="translate(75.404 72.4)"><path class="c" d="M920.408,146.852a.5.5,0,0,1,.694.136l4.271,6.346,3.945-6.554a.5.5,0,1,1,.857.516l-4.35,7.227a.5.5,0,0,1-.843.021l-4.71-7a.5.5,0,0,1,.136-.694Z" transform="translate(-920.187 -146.538)"/></g></g><g transform="translate(590.194 794.229) rotate(90)"><path class="b" d="M.286,66.3c0-30.013-.643-41.136,0-66.3" transform="translate(4.928 1.203)"/><g transform="translate(0 0)"><path class="c" d="M.221,7.913a.5.5,0,0,0,.694-.136L5.186,1.431,9.131,7.985a.5.5,0,1,0,.857-.516L5.638.242A.5.5,0,0,0,4.8.221l-4.71,7a.5.5,0,0,0,.136.694Z"/></g></g><circle class="d" cx="19.788" cy="19.788" r="19.788" transform="translate(165.655 717.001)"/><circle class="d" cx="19.788" cy="19.788" r="19.788" transform="translate(600.655 717.001)"/><circle class="d" cx="19.788" cy="19.788" r="19.788" transform="translate(600.656 914.396)"/><circle class="d" cx="19.788" cy="19.788" r="19.788" transform="translate(165.656 914.396)"/><path class="e" d="M-3.4-12.6v2.34h2.52V0H2.034V-12.6Z" transform="translate(185.444 743.789)"/><path class="e" d="M-.612-2.376l2.9-2.736C4.05-6.75,4.392-7.866,4.392-9.09c0-2.286-1.872-3.726-4.68-3.726a5.852,5.852,0,0,0-5,2.34l2.124,1.368a3.081,3.081,0,0,1,2.61-1.26c1.332,0,2.016.576,2.016,1.566,0,.612-.2,1.26-1.314,2.322l-4.86,4.59V0H4.806V-2.376Z" transform="translate(620.444 743.789)"/><path class="e" d="M1.26-7.47,4.1-10.71V-12.6h-8.82v2.34H.648L-1.944-7.326V-5.4H-.612c1.656,0,2.358.594,2.358,1.548,0,1.026-.9,1.62-2.358,1.62a6.119,6.119,0,0,1-3.6-1.134L-5.346-1.134A8.663,8.663,0,0,0-.54.216c3.582,0,5.22-1.944,5.22-4.068C4.68-5.706,3.528-7.11,1.26-7.47Z" transform="translate(620.444 941.186)"/><path class="e" d="M6.039-5.022H3.987V-7.38H1.233v2.358H-2.151L3.357-12.6H.3l-5.94,7.992v1.962H1.143V0H3.987V-2.646H6.039Z" transform="translate(185.444 941.186)"/><g transform="translate(891.865 779)"><g transform="translate(-242.47 0)"><ellipse class="f" cx="20.341" cy="6.545" rx="20.341" ry="6.545" transform="translate(0.209)"/><path class="f" d="M-224.5,36.651c-10.189-.434-17.972-3.31-17.972-6.808" transform="translate(242.47 -7.461)"/><path class="f" d="M-187.409,17.151V8.483" transform="translate(228.705 -2.121)"/><path class="f" d="M-242.47,8.483V40.521c0,3.127,6.219,5.758,14.816,6.59" transform="translate(242.47 -2.121)"/></g><g transform="translate(-219.982 22.684)"><path class="f" d="M-181.06,54.006a2.8,2.8,0,0,0,.563,3.1l.1.1a3.4,3.4,0,0,1,.113,4.812,3.418,3.418,0,0,1-4.824.113c-.038-.037-.077-.074-.113-.113l-.1-.1a2.837,2.837,0,0,0-4.006.055,2.818,2.818,0,0,0-.8,1.952v.289a3.406,3.406,0,0,1-3.461,3.35,3.405,3.405,0,0,1-3.359-3.35v-.153a2.806,2.806,0,0,0-1.842-2.568,2.818,2.818,0,0,0-3.1.561l-.1.1a3.419,3.419,0,0,1-4.825.113,3.4,3.4,0,0,1-.113-4.812c.038-.038.075-.076.113-.113l.1-.1a2.821,2.821,0,0,0-.055-4,2.838,2.838,0,0,0-1.957-.8h-.292a3.407,3.407,0,0,1-3.461-3.35,3.407,3.407,0,0,1,3.359-3.453h.255A2.813,2.813,0,0,0-206.3,43.8a2.8,2.8,0,0,0-.563-3.1l-.1-.1a3.4,3.4,0,0,1-.113-4.812,3.418,3.418,0,0,1,4.824-.112c.038.037.076.074.113.112l.1.1a2.819,2.819,0,0,0,3.1.561h.136a2.806,2.806,0,0,0,1.706-2.569V33.6a3.407,3.407,0,0,1,3.461-3.35,3.406,3.406,0,0,1,3.359,3.35v.153a2.83,2.83,0,0,0,2.851,2.808,2.84,2.84,0,0,0,1.957-.8l.1-.1a3.419,3.419,0,0,1,4.825-.113,3.4,3.4,0,0,1,.113,4.812c-.038.038-.075.076-.113.113l-.1.1a2.8,2.8,0,0,0-.563,3.1V43.8a2.814,2.814,0,0,0,2.575,1.7h.29a3.406,3.406,0,0,1,3.359,3.452,3.407,3.407,0,0,1-3.359,3.351h-.153A2.813,2.813,0,0,0-181.06,54.006Z" transform="translate(212.486 -30.245)"/><ellipse class="f" cx="4.921" cy="4.909" rx="4.921" ry="4.909" transform="translate(13.83 13.806)"/></g></g><g transform="translate(649.688 774.289)"><path class="f" d="M-383.578,35.428h.087v5.434l-18.862,3.37v-8.8h.016a18.938,18.938,0,0,1-9.573-16.468A18.951,18.951,0,0,1-392.954,0,18.956,18.956,0,0,1-374,18.959,18.92,18.92,0,0,1-383.578,35.428Z" transform="translate(-3.682 -0.001)"/><line class="f" x1="18.862" y2="3.371" transform="translate(-406.035 49.701)"/><line class="f" x1="9.507" y2="1.699" transform="translate(-401.357 58.301)"/><rect class="g" width="60" height="60" transform="translate(-426.638)"/></g><path class="f" d="M-99.712,59.993l11.789-13.684h48.211V-.007h-60Z" transform="translate(322.762 977.507)"/><g transform="translate(649.527 976.868)"><ellipse class="f" cx="24.818" cy="24.982" rx="24.818" ry="24.982" transform="translate(-0.132 0.132)"/><line class="f" x2="17.44" y2="17.556" transform="translate(42.428 42.576)"/></g><path d="M6.14.12c3.58,0,5.22-1.76,5.22-3.82,0-5.1-8.62-2.78-8.62-6.62,0-1.4,1.14-2.54,3.7-2.54a7.208,7.208,0,0,1,3.84,1.16l.5-1.18a7.9,7.9,0,0,0-4.34-1.24c-3.56,0-5.16,1.78-5.16,3.84C1.28-5.1,9.9-7.46,9.9-3.62c0,1.38-1.14,2.48-3.76,2.48a6.875,6.875,0,0,1-4.62-1.7L.94-1.7A7.591,7.591,0,0,0,6.14.12ZM23.46-5.26a5.013,5.013,0,0,0-5.1-5.34,5.067,5.067,0,0,0-5.14,5.34A5.21,5.21,0,0,0,18.74.1,5.178,5.178,0,0,0,22.8-1.62L22-2.54a4.147,4.147,0,0,1-3.22,1.38,3.894,3.894,0,0,1-4.14-3.66h8.8C23.44-4.98,23.46-5.14,23.46-5.26Zm-5.1-4.12a3.659,3.659,0,0,1,3.74,3.5H14.64A3.654,3.654,0,0,1,18.36-9.38ZM31.4-1.66a2.35,2.35,0,0,1-1.56.54,1.685,1.685,0,0,1-1.82-1.92V-9.32h3.2v-1.2h-3.2v-2.3H26.6v2.3H24.72v1.2H26.6v6.36A2.787,2.787,0,0,0,29.68.1,3.382,3.382,0,0,0,31.9-.64Zm11.14-8.86V-5c0,2.4-1.38,3.82-3.58,3.82-2,0-3.16-1.14-3.16-3.38v-5.96H34.38v6.1C34.38-1.4,36.14.1,38.82.1A4.185,4.185,0,0,0,42.6-1.92V0h1.36V-10.52Zm10.82-.08A4.582,4.582,0,0,0,49.3-8.44v-2.08H47.94V3.88h1.42V-1.98a4.6,4.6,0,0,0,4,2.08A5.1,5.1,0,0,0,58.6-5.26,5.089,5.089,0,0,0,53.36-10.6Zm-.1,9.44a3.852,3.852,0,0,1-3.92-4.1,3.863,3.863,0,0,1,3.92-4.1,3.874,3.874,0,0,1,3.92,4.1A3.863,3.863,0,0,1,53.26-1.16Zm18.52-.5a2.35,2.35,0,0,1-1.56.54A1.685,1.685,0,0,1,68.4-3.04V-9.32h3.2v-1.2H68.4v-2.3H66.98v2.3H65.1v1.2h1.88v6.36A2.787,2.787,0,0,0,70.06.1a3.382,3.382,0,0,0,2.22-.74Zm8.44-8.94a4.446,4.446,0,0,0-3.94,1.92v-6.16H74.86V0h1.42V-5.52a3.449,3.449,0,0,1,3.68-3.8c2,0,3.16,1.14,3.16,3.36V0h1.42V-6.1C84.54-9.12,82.78-10.6,80.22-10.6Zm17.4,5.34a5.013,5.013,0,0,0-5.1-5.34,5.067,5.067,0,0,0-5.14,5.34A5.21,5.21,0,0,0,92.9.1a5.178,5.178,0,0,0,4.06-1.72l-.8-.92a4.147,4.147,0,0,1-3.22,1.38A3.894,3.894,0,0,1,88.8-4.82h8.8C97.6-4.98,97.62-5.14,97.62-5.26Zm-5.1-4.12a3.659,3.659,0,0,1,3.74,3.5H88.8A3.654,3.654,0,0,1,92.52-9.38ZM119.38-14,113.36-3.62,107.28-14h-1.22V0h1.42V-11.14l5.5,9.36h.7l5.5-9.42V0h1.42V-14ZM129.16.1a5.175,5.175,0,0,0,5.34-5.36,5.158,5.158,0,0,0-5.34-5.34,5.174,5.174,0,0,0-5.36,5.34A5.191,5.191,0,0,0,129.16.1Zm0-1.26a3.852,3.852,0,0,1-3.92-4.1,3.852,3.852,0,0,1,3.92-4.1,3.836,3.836,0,0,1,3.9,4.1A3.836,3.836,0,0,1,129.16-1.16Zm16.42-13.68v6.32a4.6,4.6,0,0,0-4-2.08,5.089,5.089,0,0,0-5.24,5.34A5.106,5.106,0,0,0,141.58.1a4.557,4.557,0,0,0,4.06-2.18V0H147V-14.84ZM141.7-1.16a3.852,3.852,0,0,1-3.92-4.1,3.852,3.852,0,0,1,3.92-4.1,3.847,3.847,0,0,1,3.9,4.1A3.847,3.847,0,0,1,141.7-1.16Zm18.44-4.1a5.013,5.013,0,0,0-5.1-5.34,5.067,5.067,0,0,0-5.14,5.34A5.21,5.21,0,0,0,155.42.1a5.178,5.178,0,0,0,4.06-1.72l-.8-.92a4.147,4.147,0,0,1-3.22,1.38,3.894,3.894,0,0,1-4.14-3.66h8.8C160.12-4.98,160.14-5.14,160.14-5.26Zm-5.1-4.12a3.659,3.659,0,0,1,3.74,3.5h-7.46A3.654,3.654,0,0,1,155.04-9.38Zm9.36.92v-2.06h-1.36V0h1.42V-5.36c0-2.48,1.34-3.88,3.54-3.88.1,0,.22.02.34.02V-10.6A3.967,3.967,0,0,0,164.4-8.46Zm11.86-2.14a4.421,4.421,0,0,0-4,2.02v-1.94H170.9V0h1.42V-5.52A3.449,3.449,0,0,1,176-9.32c2,0,3.16,1.14,3.16,3.36V0h1.42V-6.1C180.58-9.12,178.82-10.6,176.26-10.6ZM2.28,36h5.7c4.48,0,7.5-2.88,7.5-7s-3.02-7-7.5-7H2.28Zm1.48-1.28V23.28H7.9c3.72,0,6.12,2.36,6.12,5.72s-2.4,5.72-6.12,5.72ZM22.18,25.4a6.68,6.68,0,0,0-4.28,1.42l.64,1.06a5.359,5.359,0,0,1,3.5-1.24c1.96,0,2.98.98,2.98,2.78v.64H21.68c-3.02,0-4.06,1.36-4.06,2.98,0,1.82,1.46,3.06,3.84,3.06a3.95,3.95,0,0,0,3.62-1.74V36h1.36V29.48C26.44,26.76,24.9,25.4,22.18,25.4Zm-.5,9.58c-1.68,0-2.66-.76-2.66-1.98,0-1.08.66-1.88,2.7-1.88h3.3v1.72A3.366,3.366,0,0,1,21.68,34.98Zm13.66-.64a2.35,2.35,0,0,1-1.56.54,1.685,1.685,0,0,1-1.82-1.92V26.68h3.2v-1.2h-3.2v-2.3H30.54v2.3H28.66v1.2h1.88v6.36a2.787,2.787,0,0,0,3.08,3.06,3.382,3.382,0,0,0,2.22-.74ZM42.1,25.4a6.68,6.68,0,0,0-4.28,1.42l.64,1.06a5.359,5.359,0,0,1,3.5-1.24c1.96,0,2.98.98,2.98,2.78v.64H41.6c-3.02,0-4.06,1.36-4.06,2.98,0,1.82,1.46,3.06,3.84,3.06A3.95,3.95,0,0,0,45,34.36V36h1.36V29.48C46.36,26.76,44.82,25.4,42.1,25.4Zm-.5,9.58c-1.68,0-2.66-.76-2.66-1.98,0-1.08.66-1.88,2.7-1.88h3.3v1.72A3.366,3.366,0,0,1,41.6,34.98Zm15.64-.26v-5.2h7.24V28.26H57.24V23.28h8.12V22h-9.6V36h9.9V34.72ZM71.5,36.1c2.74,0,4.34-1.18,4.34-3,0-4.04-6.82-1.9-6.82-4.74,0-1,.84-1.74,2.74-1.74a5.392,5.392,0,0,1,3.1.9l.62-1.14a7.129,7.129,0,0,0-3.72-.98c-2.68,0-4.16,1.28-4.16,3,0,4.16,6.82,2,6.82,4.74,0,1.04-.82,1.72-2.82,1.72a6.354,6.354,0,0,1-3.74-1.18l-.64,1.12A7.028,7.028,0,0,0,71.5,36.1Zm12-1.76a2.35,2.35,0,0,1-1.56.54,1.685,1.685,0,0,1-1.82-1.92V26.68h3.2v-1.2h-3.2v-2.3H78.7v2.3H76.82v1.2H78.7v6.36a2.787,2.787,0,0,0,3.08,3.06A3.382,3.382,0,0,0,84,35.36Zm6.76-8.94a6.68,6.68,0,0,0-4.28,1.42l.64,1.06a5.359,5.359,0,0,1,3.5-1.24c1.96,0,2.98.98,2.98,2.78v.64H89.76c-3.02,0-4.06,1.36-4.06,2.98,0,1.82,1.46,3.06,3.84,3.06a3.95,3.95,0,0,0,3.62-1.74V36h1.36V29.48C94.52,26.76,92.98,25.4,90.26,25.4Zm-.5,9.58c-1.68,0-2.66-.76-2.66-1.98,0-1.08.66-1.88,2.7-1.88h3.3v1.72A3.366,3.366,0,0,1,89.76,34.98Zm13.66-.64a2.35,2.35,0,0,1-1.56.54,1.685,1.685,0,0,1-1.82-1.92V26.68h3.2v-1.2h-3.2v-2.3H98.62v2.3H96.74v1.2h1.88v6.36a2.787,2.787,0,0,0,3.08,3.06,3.382,3.382,0,0,0,2.22-.74Zm11.88-3.6a5.013,5.013,0,0,0-5.1-5.34,5.067,5.067,0,0,0-5.14,5.34,5.562,5.562,0,0,0,9.58,3.64l-.8-.92a4.147,4.147,0,0,1-3.22,1.38,3.894,3.894,0,0,1-4.14-3.66h8.8C115.28,31.02,115.3,30.86,115.3,30.74Zm-5.1-4.12a3.659,3.659,0,0,1,3.74,3.5h-7.46A3.654,3.654,0,0,1,110.2,26.62Z" transform="translate(733 794)"/></g></svg>