<svg xmlns="http://www.w3.org/2000/svg" width="248.507" height="52.999" viewBox="0 0 248.507 52.999"><defs><style>.a{fill:#737373;}.b{fill:#f25022;}.c{fill:#7fba00;}.d{fill:#00a4ef;}.e{fill:#ffb900;}</style></defs><path class="a" d="M90.718,9.09v31.8H85.2V15.936h-.074L75.26,40.89h-3.68L61.495,15.936h-.074V40.89H56.342V9.09h7.95L73.42,32.645h.147L83.21,9.09h7.508Zm4.564,2.429a2.8,2.8,0,0,1,.957-2.208,3.291,3.291,0,0,1,2.282-.883,3.222,3.222,0,0,1,2.356.883,3.06,3.06,0,0,1,.957,2.208,2.8,2.8,0,0,1-.957,2.208,3.343,3.343,0,0,1-2.356.883,3.05,3.05,0,0,1-2.282-.883A3.333,3.333,0,0,1,95.282,11.519Zm5.962,6.551V40.89H95.871V18.071Zm16.268,18.918a6.2,6.2,0,0,0,2.65-.589,11.629,11.629,0,0,0,2.65-1.472v5.005a9.392,9.392,0,0,1-2.944,1.1,18.114,18.114,0,0,1-3.607.368,10.813,10.813,0,0,1-8.171-3.165,10.984,10.984,0,0,1-3.165-8.1,12.989,12.989,0,0,1,3.239-9.054c2.135-2.356,5.153-3.533,9.128-3.533a13.549,13.549,0,0,1,3.018.368,10.03,10.03,0,0,1,2.429.883v5.153a10.693,10.693,0,0,0-2.5-1.4,8.457,8.457,0,0,0-2.65-.515,6.713,6.713,0,0,0-5.153,2.061,7.722,7.722,0,0,0-1.914,5.594,7.365,7.365,0,0,0,1.914,5.374A6.885,6.885,0,0,0,117.512,36.988ZM138.049,17.7a5.95,5.95,0,0,1,1.178.074,7.639,7.639,0,0,1,.883.221v5.447a3.3,3.3,0,0,0-1.251-.589,7.553,7.553,0,0,0-1.987-.294,4.116,4.116,0,0,0-3.312,1.693,8.129,8.129,0,0,0-1.4,5.153V40.89h-5.374V18.071h5.374v3.607h.074a6.934,6.934,0,0,1,2.208-2.944A6.486,6.486,0,0,1,138.049,17.7ZM140.4,29.848a12.715,12.715,0,0,1,3.165-8.98q3.2-3.312,8.833-3.312c3.533,0,6.33,1.031,8.318,3.165a12.154,12.154,0,0,1,3.018,8.612,12.466,12.466,0,0,1-3.165,8.833,11.481,11.481,0,0,1-8.686,3.312,11.339,11.339,0,0,1-8.392-3.092A11.813,11.813,0,0,1,140.4,29.848ZM146,29.627a8.027,8.027,0,0,0,1.619,5.447,5.884,5.884,0,0,0,4.637,1.914,5.358,5.358,0,0,0,4.49-1.914c1.031-1.251,1.546-3.092,1.546-5.594a8.878,8.878,0,0,0-1.546-5.594,6.144,6.144,0,0,0-8.98.074A8.064,8.064,0,0,0,146,29.627Zm25.763-5.521a2.336,2.336,0,0,0,.736,1.84,12.591,12.591,0,0,0,3.239,1.619,11.225,11.225,0,0,1,4.49,2.871,5.964,5.964,0,0,1,1.325,3.9,6.18,6.18,0,0,1-2.5,5.153,10.361,10.361,0,0,1-6.7,1.914,17.44,17.44,0,0,1-3.165-.368,12.738,12.738,0,0,1-2.944-.883v-5.3a12.862,12.862,0,0,0,3.165,1.619,9.923,9.923,0,0,0,3.092.589,4.948,4.948,0,0,0,2.65-.515,1.806,1.806,0,0,0,.883-1.693,2.592,2.592,0,0,0-.883-1.914,13.593,13.593,0,0,0-3.386-1.767,10.124,10.124,0,0,1-4.2-2.8,6.258,6.258,0,0,1-1.251-3.975,6.274,6.274,0,0,1,2.429-5.079,9.723,9.723,0,0,1,6.33-1.987,11.672,11.672,0,0,1,2.65.294c.957.221,1.84.442,2.5.662v5.226a15.857,15.857,0,0,0-2.5-1.251,7.79,7.79,0,0,0-2.8-.515,4.1,4.1,0,0,0-2.356.589A2.351,2.351,0,0,0,171.762,24.107Zm12.072,5.742A12.715,12.715,0,0,1,187,20.868q3.2-3.312,8.833-3.312c3.533,0,6.33,1.031,8.318,3.165a12.154,12.154,0,0,1,3.018,8.612A12.466,12.466,0,0,1,204,38.166a11.481,11.481,0,0,1-8.686,3.312,11.339,11.339,0,0,1-8.392-3.092A12.133,12.133,0,0,1,183.834,29.848Zm5.594-.221a8.027,8.027,0,0,0,1.619,5.447,5.884,5.884,0,0,0,4.637,1.914,5.358,5.358,0,0,0,4.49-1.914c1.031-1.251,1.546-3.092,1.546-5.594a8.878,8.878,0,0,0-1.546-5.594,6.144,6.144,0,0,0-8.98.074A8.429,8.429,0,0,0,189.429,29.627Zm35.627-7.14h-8.023v18.4h-5.447v-18.4h-3.828V18.071h3.828V14.905A7.938,7.938,0,0,1,219.9,6.735c.662,0,1.251.074,1.767.074a3.516,3.516,0,0,1,1.325.294V11.74a9.021,9.021,0,0,0-.957-.368,4.894,4.894,0,0,0-1.546-.221,3.322,3.322,0,0,0-2.576,1.031,4.693,4.693,0,0,0-.883,3.092V18h8.023V12.844l5.374-1.619V18h5.447v4.417H230.43V33.087a4.9,4.9,0,0,0,.736,2.944,3.064,3.064,0,0,0,2.429.883,3.633,3.633,0,0,0,1.1-.221,3.847,3.847,0,0,0,1.1-.515V40.6a5.134,5.134,0,0,1-1.693.515,12.756,12.756,0,0,1-2.356.221,6.65,6.65,0,0,1-5.079-1.767,7.782,7.782,0,0,1-1.693-5.447l.074-11.63Z" transform="translate(12.63 1.51)"/><rect class="b" width="25.175" height="25.175"/><rect class="c" width="25.175" height="25.175" transform="translate(27.825)"/><rect class="d" width="25.175" height="25.175" transform="translate(0 27.825)"/><rect class="e" width="25.175" height="25.175" transform="translate(27.825 27.825)"/></svg>