<svg xmlns="http://www.w3.org/2000/svg" width="74.22" height="79.716" viewBox="0 0 74.22 79.716"><defs><style>.a,.b{fill:none;stroke-linecap:round;stroke-linejoin:round;stroke-width:6px;}.a{stroke:#707070;}.b{stroke:#065bfa;}.c{fill:#065bfa;}</style></defs><g transform="translate(-1105.13 -1107.606)"><path class="a" d="M-16259.871-5679.234v-56.909h36.7v10.018" transform="translate(17368 6863)"/><path class="a" d="M-16228.717-5678.678h-10.639v-47.562h32.447v47.562h-11.01v-16.031h-10.8Z" transform="translate(17368 6863)"/><path class="a" d="M-16191.651-5678.986v-51.865l-21.543-21.543v25.673" transform="translate(17368 6863)"/><path class="b" d="M-16259.871-5679.234v-56.909h36.7v10.018" transform="translate(17368 6863)"/><path class="b" d="M-16228.717-5678.678h-10.639v-47.562h32.447v47.562h-11.01v-16.031h-10.8Z" transform="translate(17368 6863)"/><path class="b" d="M-16191.651-5678.986v-51.865l-21.543-21.543v25.673" transform="translate(17368 6863)"/><rect class="c" width="6" height="6" rx="1" transform="translate(1116 1134)"/><rect class="c" width="6" height="6" rx="1" transform="translate(1137 1144)"/><rect class="c" width="6" height="6" rx="1" transform="translate(1137 1155)"/><rect class="c" width="6" height="6" rx="1" transform="translate(1147 1144)"/><rect class="c" width="6" height="6" rx="1" transform="translate(1147 1155)"/><rect class="c" width="6" height="6" rx="1" transform="translate(1116 1144)"/><rect class="c" width="6" height="6" rx="1" transform="translate(1116 1155)"/><rect class="c" width="6" height="6" rx="1" transform="translate(1116 1166)"/><rect class="c" width="6" height="6" rx="1" transform="translate(1116 1176)"/></g></svg>