<svg xmlns="http://www.w3.org/2000/svg" width="84.001" height="84.001" viewBox="0 0 84.001 84.001"><defs><style>.a{fill:none;stroke:#065bfa;stroke-linecap:round;stroke-linejoin:round;stroke-width:4px;}</style></defs><g transform="translate(-394.753 -1737.439)"><g transform="translate(2558.64 1852.795)"><g transform="translate(-2161.887 -113.356)"><path class="a" d="M-2113.9-76.883a4.318,4.318,0,0,0,.859,4.752l.157.157a5.234,5.234,0,0,1,.173,7.386,5.2,5.2,0,0,1-7.366.173c-.059-.056-.117-.114-.173-.173l-.157-.157a4.318,4.318,0,0,0-6.118.084,4.341,4.341,0,0,0-1.225,3v.445a5.216,5.216,0,0,1-5.286,5.143,5.215,5.215,0,0,1-5.129-5.143v-.235a4.308,4.308,0,0,0-2.812-3.943,4.288,4.288,0,0,0-4.739.862l-.157.157a5.2,5.2,0,0,1-7.366.174,5.235,5.235,0,0,1-.174-7.386c.057-.059.114-.117.174-.174l.157-.157a4.346,4.346,0,0,0-.085-6.134,4.318,4.318,0,0,0-2.988-1.229h-.447a5.215,5.215,0,0,1-5.286-5.143,5.215,5.215,0,0,1,5.129-5.3h.39a4.3,4.3,0,0,0,3.932-2.82,4.317,4.317,0,0,0-.86-4.752l-.156-.157a5.234,5.234,0,0,1-.173-7.386,5.2,5.2,0,0,1,7.366-.173c.059.057.117.115.173.173l.157.158a4.287,4.287,0,0,0,4.739.861h.208a4.306,4.306,0,0,0,2.6-3.943v-.447a5.215,5.215,0,0,1,5.286-5.143,5.214,5.214,0,0,1,5.129,5.143v.235a4.332,4.332,0,0,0,4.355,4.31,4.319,4.319,0,0,0,2.989-1.229l.157-.157a5.2,5.2,0,0,1,7.366-.173,5.234,5.234,0,0,1,.173,7.386c-.057.059-.115.117-.173.173l-.157.157a4.317,4.317,0,0,0-.859,4.752v.208a4.3,4.3,0,0,0,3.933,2.611h.443a5.215,5.215,0,0,1,5.129,5.3,5.214,5.214,0,0,1-5.129,5.143h-.234A4.3,4.3,0,0,0-2113.9-76.883Z" transform="translate(2161.887 113.356)"/><ellipse class="a" cx="7.515" cy="7.535" rx="7.515" ry="7.535" transform="translate(21.119 21.193)"/></g></g><g transform="translate(2608.512 1902.667)"><g transform="translate(-2161.887 -113.356)"><path class="a" d="M-2136.646-94.172a2.271,2.271,0,0,0,.452,2.5l.083.082a2.753,2.753,0,0,1,.091,3.885,2.735,2.735,0,0,1-3.874.091c-.031-.029-.062-.06-.091-.091l-.083-.082a2.271,2.271,0,0,0-3.218.044,2.285,2.285,0,0,0-.645,1.576v.234a2.743,2.743,0,0,1-2.78,2.705,2.743,2.743,0,0,1-2.7-2.705v-.124a2.266,2.266,0,0,0-1.479-2.074,2.255,2.255,0,0,0-2.493.453l-.083.082a2.735,2.735,0,0,1-3.875.092,2.753,2.753,0,0,1-.091-3.885c.03-.031.06-.062.091-.092l.083-.082a2.286,2.286,0,0,0-.044-3.226,2.271,2.271,0,0,0-1.572-.646h-.235a2.743,2.743,0,0,1-2.78-2.705,2.743,2.743,0,0,1,2.7-2.788h.205a2.26,2.26,0,0,0,2.068-1.483,2.271,2.271,0,0,0-.452-2.5l-.082-.082a2.753,2.753,0,0,1-.091-3.885,2.735,2.735,0,0,1,3.874-.091c.031.03.062.06.091.091l.083.083a2.255,2.255,0,0,0,2.492.453h.11a2.265,2.265,0,0,0,1.37-2.074v-.235a2.743,2.743,0,0,1,2.78-2.705,2.743,2.743,0,0,1,2.7,2.705v.124a2.279,2.279,0,0,0,2.291,2.267,2.272,2.272,0,0,0,1.572-.646l.082-.082a2.735,2.735,0,0,1,3.875-.091,2.753,2.753,0,0,1,.091,3.885c-.03.031-.06.061-.091.091l-.083.082a2.271,2.271,0,0,0-.452,2.5v.11a2.26,2.26,0,0,0,2.068,1.373h.233a2.743,2.743,0,0,1,2.7,2.787,2.742,2.742,0,0,1-2.7,2.705h-.123A2.26,2.26,0,0,0-2136.646-94.172Z" transform="translate(2161.886 113.356)"/><ellipse class="a" cx="3.953" cy="3.963" rx="3.953" ry="3.963" transform="translate(11.108 11.147)"/></g></g></g></svg>