<svg xmlns="http://www.w3.org/2000/svg" xmlns:xlink="http://www.w3.org/1999/xlink" width="980" height="695" viewBox="0 0 980 695"><defs><style>.a,.i{fill:#fff;}.a{stroke:#707070;}.b{clip-path:url(#a);}.c{fill:#699cfc;}.d{fill:#0a51d6;}.e{fill:#065bfa;}.f{fill:#377bfb;}.g{fill:#ffc02f;}.h{fill:#173d7a;}.j{fill:none;}.k{fill:#ffd77c;}.l{fill:#ffc84a;}</style><clipPath id="a"><rect class="a" width="980" height="695" transform="translate(940 118)"/></clipPath></defs><g class="b" transform="translate(-940 -118)"><g transform="translate(-70.014 -13)"><g transform="translate(1451.274 180.602)"><path class="c" d="M558.925,384.907,443.264,318.122l115.661-66.78,115.661,66.78ZM453.32,318.122,558.925,379.1l105.6-60.978-105.6-60.972Z" transform="translate(-443.264 -129.375)"/><path class="d" d="M542.658,330.531l-76.092,43.932V286.6l76.092-43.932Z" transform="translate(-350.904 -198.739)"/><path class="e" d="M527.328,321.681,451.236,277.75l76.09-43.931,76.092,43.932Z" transform="translate(-411.666 -233.819)"/><path class="f" d="M527.328,374.462l-76.092-43.932V242.67L527.328,286.6Z" transform="translate(-411.666 -198.739)"/><path class="g" d="M478.039,289.094l-21.282-12.287V252.233l21.282,12.287Z" transform="translate(-389.782 -160.837)"/></g><g transform="translate(1162.163 478.269)"><path class="c" d="M243.537,65.064l1.885,1.105L919.876,460.8l-14.924-.058-661.43-387L42.762,189.984,39.005,183.5Z" transform="translate(234.989 -65.064)"/><path class="c" d="M266.063,258.939,452.227,151.452,266.071,43.972,79.915,151.452ZM437.248,151.452,266.063,250.285,94.9,151.452,266.071,52.627Z" transform="translate(-79.915 41.121)"/></g><g transform="translate(1013 222.737)"><path class="c" d="M558.925,384.907,443.264,318.122l115.661-66.78,115.661,66.78ZM453.32,318.122,558.925,379.1l105.6-60.978-105.6-60.972Z" transform="translate(-443.264 -129.375)"/><path class="d" d="M542.658,330.531l-76.092,43.932V286.6l76.092-43.932Z" transform="translate(-350.904 -198.739)"/><path class="e" d="M527.328,321.681,451.236,277.75l76.09-43.931,76.092,43.932Z" transform="translate(-411.666 -233.819)"/><path class="f" d="M527.328,374.462l-76.092-43.932V242.67L527.328,286.6Z" transform="translate(-411.666 -198.739)"/><path class="g" d="M478.039,289.094l-21.282-12.287V252.233l21.282,12.287Z" transform="translate(-389.782 -160.837)"/></g><g transform="translate(1114.19 277.71)"><path class="h" d="M-264.82,41.779v.765l-57.149,33.7-56.485,33.3L-411.4,128.224l-32.908-18.649-56.522-33.321L-557.99,42.544-410.746-43.75l.978.564Z" transform="translate(655.27 221.13)"/><path class="i" d="M-512.273,51.94l56.522,33.321-57.2-32.419Z" transform="translate(666.715 245.445)"/><path class="i" d="M-441.1,97.166l32.945-18.686-32.293,19.05Z" transform="translate(684.972 252.188)"/><path class="d" d="M-294.653-15.181V55.953L-439.6-29.012l-.978-1.317V-97.7l3.261-1.831Z" transform="translate(685.104 206.956)"/><path class="i" d="M-439.6-43.033l-.978-.564v-.753Z" transform="translate(685.104 220.977)"/><path class="i" d="M-422.2,104.1v110.4l-90.757-51.439V52.657Z" transform="translate(666.714 245.627)"/><path class="e" d="M-196.44-58.046-287.2-7.432l-6.524,3.64-150.5-86.289,97.281-54.256Z" transform="translate(684.178 195.571)"/><g transform="translate(0 0)"><path class="d" d="M-410.746-98.07v68.123L-557.99,56.347v-71.9Z" transform="translate(655.27 207.327)"/><path class="f" d="M-439.6-43.033l-.978-.564v-.753Z" transform="translate(685.104 220.977)"/><path class="d" d="M-197.259-75.53V107.994L-441.2,247.346V136.235l33.011-18.622.376-.214L-351.7,84.317l57.149-33.7v-71.9l6.534-3.637Z" transform="translate(685.002 213.055)"/><path class="f" d="M-391.69,247.369-635.56,107.994V-75.53l90.746,50.616,6.534,3.637v71.9l57.162,33.711,56.522,33.321,32.908,18.649h0Z" transform="translate(635.56 213.055)"/><path class="e" d="M-292.9-130.938l-94.872,53.174-3.261,1.831L-538.28,6.587l-6.534-3.637L-635.56-47.666-390.183-185.19Z" transform="translate(635.56 185.19)"/></g><line class="j" x1="1.304" y1="0.765" transform="translate(390.451 262.909)"/><g transform="translate(120.247 57.193)"><path class="i" d="M-416.487,147.192l-123.19-71.126,123.184-71.12L-293.3,76.072ZM-528.969,76.066l112.483,64.941,112.477-64.935L-416.493,11.131Z" transform="translate(539.677 59.289)"/><path class="k" d="M-360.407,61.963l-81.042,46.79V15.176l81.042-46.79Z" transform="translate(564.637 78.403)"/><path class="g" d="M-425.029,24.656l-81.043-46.79,81.04-46.788,81.043,46.79Z" transform="translate(548.216 68.923)"/><path class="l" d="M-425.029,108.753l-81.043-46.79V-31.614l81.043,46.79Z" transform="translate(548.216 78.403)"/></g></g></g></g></svg>