<svg xmlns="http://www.w3.org/2000/svg" width="99.273" height="88.962" viewBox="0 0 99.273 88.962"><defs><style>.a,.b{fill:none;stroke:#065bfa;stroke-linecap:round;stroke-width:6px;}.b{stroke-linejoin:round;}</style></defs><g transform="translate(-345.885 -1108.788)"><g transform="matrix(0.259, -0.966, 0.966, 0.259, 349.423, 1168.795)"><path class="a" d="M58.32,0,0,58.326" transform="translate(0 33.47)"/><path class="b" d="M24.709,0S41.378,2.742,43.891,13.286,57.8,33.218,57.8,33.218L33.409,57.6s-11.8-6.187-13.715-19.755S0,24.193,0,24.193Z" transform="translate(0.523 0)"/></g><g transform="matrix(-0.259, -0.966, 0.966, -0.259, 405.951, 1192.554)"><path class="a" d="M58.32,58.326,0,0" transform="translate(0 0)"/><path class="b" d="M24.709,57.6s16.669-2.743,19.182-13.286S57.8,24.385,57.8,24.385L33.409,0s-11.8,6.187-13.715,19.755S0,33.41,0,33.41Z" transform="translate(0.523 34.193)"/></g></g></svg>