<svg xmlns="http://www.w3.org/2000/svg" width="110.429" height="102.066" viewBox="0 0 110.429 102.066"><defs><style>.a{fill:none;}.a,.b{stroke:#065bfa;stroke-linecap:round;stroke-linejoin:round;stroke-width:6px;}.b{fill:#fff;}</style></defs><g transform="translate(-1344.285 -2820.69)"><path class="a" d="M134.507,101.891V70.537a5.876,5.876,0,0,0-2.918-5.069L103.68,49.226a8.8,8.8,0,0,0-8.857,0L66.918,65.468A5.876,5.876,0,0,0,64,70.537v31.353a5.876,5.876,0,0,0,2.918,5.073l27.909,16.242a8.813,8.813,0,0,0,8.857,0l27.909-16.242A5.876,5.876,0,0,0,134.507,101.891Z" transform="translate(1300.246 2795.232)"/><g transform="translate(1314.854 2775.747)"><path class="b" d="M105.29,79.572V61.211a3.441,3.441,0,0,0-1.709-2.969L87.238,48.73a5.155,5.155,0,0,0-5.187,0L65.709,58.242A3.441,3.441,0,0,0,64,61.211V79.572a3.441,3.441,0,0,0,1.709,2.971l16.344,9.512a5.161,5.161,0,0,0,5.187,0l16.344-9.512A3.441,3.441,0,0,0,105.29,79.572Z"/><path class="b" d="M69,153.99l20.108,11.828,20.108-11.828" transform="translate(-4.462 -94.566)"/><line class="a" y1="21.505" transform="translate(84.645 71.252)"/></g><g transform="translate(1283.854 2821.871)"><path class="b" d="M105.29,79.572V61.211a3.441,3.441,0,0,0-1.709-2.969L87.238,48.73a5.155,5.155,0,0,0-5.187,0L65.709,58.242A3.441,3.441,0,0,0,64,61.211V79.572a3.441,3.441,0,0,0,1.709,2.971l16.344,9.512a5.161,5.161,0,0,0,5.187,0l16.344-9.512A3.441,3.441,0,0,0,105.29,79.572Z"/><path class="b" d="M69,153.99l20.108,11.828,20.108-11.828" transform="translate(-4.462 -94.566)"/><line class="a" y1="21.505" transform="translate(84.645 71.252)"/></g><g transform="translate(1345.854 2821.871)"><path class="b" d="M105.29,79.572V61.211a3.441,3.441,0,0,0-1.709-2.969L87.238,48.73a5.155,5.155,0,0,0-5.187,0L65.709,58.242A3.441,3.441,0,0,0,64,61.211V79.572a3.441,3.441,0,0,0,1.709,2.971l16.344,9.512a5.161,5.161,0,0,0,5.187,0l16.344-9.512A3.441,3.441,0,0,0,105.29,79.572Z"/><path class="b" d="M69,153.99l20.108,11.828,20.108-11.828" transform="translate(-4.462 -94.566)"/><line class="a" y1="21.505" transform="translate(84.645 71.252)"/></g></g></svg>