<svg xmlns="http://www.w3.org/2000/svg" width="84.644" height="78.397" viewBox="0 0 84.644 78.397"><defs><style>.a{fill:none;stroke:#065bfa;stroke-linecap:round;stroke-linejoin:round;stroke-width:4px;}</style></defs><g transform="translate(-1225.829 -0.877)"><path class="a" d="M1295.455,38.665v-3.2a4.549,4.549,0,0,0-2.26-3.926l-7.444-4.332"/><path class="a" d="M1254.314,70.2l10.409,6.058a6.826,6.826,0,0,0,6.859,0l10.483-6.1"/><path class="a" d="M1250.55,27.206l-7.443,4.332a4.549,4.549,0,0,0-2.26,3.926v4.491"/><path class="a" d="M1284.141,27.371V13.15a2.668,2.668,0,0,0-1.324-2.3l-12.658-7.367a3.991,3.991,0,0,0-4.017,0l-12.658,7.367a2.665,2.665,0,0,0-1.323,2.3V27.371a2.663,2.663,0,0,0,1.323,2.3l12.659,7.367a4,4,0,0,0,4.017,0l12.659-7.367A2.668,2.668,0,0,0,1284.141,27.371Z"/><path class="a" d="M1252.577,11.766l15.574,9.161,15.574-9.161"/><line class="a" y1="16.656" transform="translate(1268.151 20.927)"/><path class="a" d="M1260.13,63.1V48.874a2.665,2.665,0,0,0-1.323-2.3l-12.658-7.367a3.993,3.993,0,0,0-4.018,0l-12.657,7.367a2.665,2.665,0,0,0-1.323,2.3V63.1a2.664,2.664,0,0,0,1.323,2.3l12.659,7.367a4,4,0,0,0,4.017,0l12.659-7.367A2.665,2.665,0,0,0,1260.13,63.1Z"/><path class="a" d="M1228.567,47.49l15.574,9.161,15.574-9.161"/><line class="a" y1="16.656" transform="translate(1244.141 56.651)"/><path class="a" d="M1308.151,63.1V48.874a2.666,2.666,0,0,0-1.324-2.3l-12.658-7.367a3.991,3.991,0,0,0-4.017,0l-12.658,7.367a2.665,2.665,0,0,0-1.323,2.3V63.1a2.664,2.664,0,0,0,1.323,2.3l12.659,7.367a4,4,0,0,0,4.018,0l12.658-7.367A2.668,2.668,0,0,0,1308.151,63.1Z"/><path class="a" d="M1276.587,47.49l15.574,9.161,15.574-9.161"/><line class="a" y1="16.656" transform="translate(1292.161 56.651)"/></g></svg>