<svg height="480pt" viewBox="0 0 480 480" width="480pt" xmlns="http://www.w3.org/2000/svg"><path d="m440 312c-11.199219 0-21.121094-5.761719-26.800781-14.558594-3.277344-5.042968-5.199219-11.042968-5.199219-17.441406 0-17.679688 14.320312-32 32-32s32 14.320312 32 32-14.320312 32-32 32zm0 0" fill="#aad3e2"/><path d="m439.839844 164.078125c-15.199219 12.402344-34.640625 19.921875-55.839844 19.921875-10.558594 0-20.640625-1.839844-29.921875-5.199219v-.082031c-9.519531-3.359375-18.238281-8.398438-25.917969-14.640625 2-24.636719 22.71875-44.078125 47.839844-44.078125h16c25.121094 0 45.839844 19.441406 47.839844 44.078125zm0 0" fill="#ed8c4a"/><path d="m416 88c0 17.671875-14.328125 32-32 32s-32-14.328125-32-32 14.328125-32 32-32 32 14.328125 32 32zm0 0" fill="#ed8c4a"/><path d="m384 8c48.640625 0 88 39.359375 88 88 0 27.441406-12.480469 51.921875-32.160156 68.078125-2-24.636719-22.71875-44.078125-47.839844-44.078125h-8c17.679688 0 32-14.320312 32-32s-14.320312-32-32-32-32 14.320312-32 32 14.320312 32 32 32h-8c-25.121094 0-45.839844 19.441406-47.839844 44.078125-10.878906-8.957031-19.601562-20.476563-25.199218-33.679687-4.480469-10.558594-6.960938-22.160157-6.960938-34.398438 0-10.71875 1.921875-20.960938 5.441406-30.398438 12.320313-33.679687 44.636719-57.601562 82.558594-57.601562zm0 0" fill="#f3f3fb"/><path d="m280 472c-21.28125 0-40.800781-7.519531-56-20.078125 2.078125-24.5625 22.800781-43.921875 47.839844-43.921875h16c25.121094 0 45.839844 19.441406 47.839844 44.078125l.082031.082031c-15.203125 12.398438-34.5625 19.839844-55.761719 19.839844zm0 0" fill="#ffca55"/><path d="m271.839844 408c-25.039063 0-45.761719 19.359375-47.839844 43.921875-14.558594-12-25.121094-28.5625-29.601562-47.523437-1.597657-6.558594-2.398438-13.359376-2.398438-20.398438 0-25.839844 11.121094-49.039062 28.800781-65.121094 15.597657-14.238281 36.398438-22.878906 59.199219-22.878906 10.558594 0 20.640625 1.839844 29.921875 5.199219v.082031c18.15625 6.480469 33.519531 18.878906 43.839844 34.796875 9.039062 13.761719 14.238281 30.242187 14.238281 47.921875 0 27.441406-12.558594 52-32.238281 68.160156l-.082031-.082031c-2-24.636719-22.71875-44.078125-47.839844-44.078125h-8c17.679687 0 32-14.320312 32-32s-14.320313-32-32-32c-17.679688 0-32 14.320312-32 32s14.320312 32 32 32zm0 0" fill="#f3f3fb"/><path d="m311.839844 376c0 17.671875-14.328125 32-32 32s-32-14.328125-32-32 14.328125-32 32-32 32 14.328125 32 32zm0 0" fill="#ffca55"/><path d="m232 8c17.679688 0 32 14.320312 32 32 0 3.921875-.71875 7.601562-2 11.039062-4.480469 12.242188-16.238281 20.960938-30 20.960938-17.679688 0-32-14.320312-32-32s14.320312-32 32-32zm0 0" fill="#aad3e2"/><path d="m120 296c-15.519531 0-30.078125-4-42.71875-11.039062-4.722656-2.5625-9.121094-5.601563-13.28125-9.039063 2.078125-24.5625 22.800781-43.921875 47.839844-43.921875h16c25.121094 0 45.839844 19.441406 47.839844 44.078125l.082031.082031c-15.203125 12.398438-34.5625 19.839844-55.761719 19.839844zm0 0" fill="#64c1e2"/><path d="m151.839844 200c0 17.671875-14.328125 32-32 32s-32-14.328125-32-32 14.328125-32 32-32 32 14.328125 32 32zm0 0" fill="#64c1e2"/><path d="m112 456c-17.679688 0-32-14.320312-32-32s14.320312-32 32-32c15.121094 0 27.761719 10.480469 31.121094 24.558594.558594 2.402344.878906 4.882812.878906 7.441406 0 17.679688-14.320312 32-32 32zm0 0" fill="#aad3e2"/><path d="m111.839844 232c-25.039063 0-45.761719 19.359375-47.839844 43.921875-19.519531-16.160156-32-40.5625-32-67.921875 0-35.121094 20.480469-65.359375 50.160156-79.519531 11.441406-5.441407 24.320313-8.480469 37.839844-8.480469 36.398438 0 67.601562 22.078125 81.039062 53.601562 4.480469 10.558594 6.960938 22.160157 6.960938 34.398438 0 25.839844-11.121094 49.039062-28.800781 65.121094-1.121094 1.039062-2.238281 2-3.4375 3.039062l-.082031-.082031c-2-24.636719-22.71875-44.078125-47.839844-44.078125h-8c17.679687 0 32-14.320312 32-32s-14.320313-32-32-32c-17.679688 0-32 14.320312-32 32s14.320312 32 32 32zm0 0" fill="#f3f3fb"/><path d="m40 320c5.601562 0 10.960938 1.441406 15.519531 4.078125 9.839844 5.441406 16.480469 15.921875 16.480469 27.921875 0 17.679688-14.320312 32-32 32s-32-14.320312-32-32 14.320312-32 32-32zm0 0" fill="#aad3e2"/><path d="m40 8c17.679688 0 32 14.320312 32 32 0 12.71875-7.441406 23.761719-18.238281 28.800781-4.160157 2.078125-8.882813 3.199219-13.761719 3.199219-17.679688 0-32-14.320312-32-32s14.320312-32 32-32zm0 0" fill="#aad3e2"/><path d="m384 192c52.9375 0 96-43.0625 96-96s-43.0625-96-96-96c-38.441406 0-71.585938 22.761719-86.902344 55.472656l-25.707031-9.488281c.304687-1.96875.609375-3.9375.609375-5.984375 0-22.054688-17.945312-40-40-40s-40 17.945312-40 40 17.945312 40 40 40c14.328125 0 26.824219-7.640625 33.886719-18.992188l25.664062 9.472657c-2.253906 8.144531-3.550781 16.671875-3.550781 25.519531 0 10.480469 1.742188 20.542969 4.863281 29.992188l-87.984375 37.289062c-16.109375-30.457031-48.085937-51.28125-84.878906-51.28125-11.921875 0-23.296875 2.289062-33.839844 6.273438l-22.128906-46.503907c9.640625-7.3125 15.96875-18.769531 15.96875-31.769531 0-22.054688-17.945312-40-40-40s-40 17.945312-40 40 17.945312 40 40 40c3.328125 0 6.519531-.527344 9.617188-1.304688l22.101562 46.457032c-28.488281 16.671875-47.71875 47.519531-47.71875 82.847656 0 33.183594 16.929688 62.472656 42.59375 79.71875l-14.632812 26.304688c-3.808594-1.199219-7.769532-2.023438-11.960938-2.023438-22.054688 0-40 17.945312-40 40s17.945312 40 40 40 40-17.945312 40-40c0-12.113281-5.527344-22.855469-14.054688-30.191406l14.664063-26.359375c12.03125 5.445312 25.34375 8.550781 39.390625 8.550781 21.953125 0 42.144531-7.488281 58.335938-19.9375l31.488281 34.640625c-15.96875 17.152344-25.824219 40.066406-25.824219 65.296875 0 4.894531.488281 9.664062 1.191406 14.359375l-37.046875 8.792969c-6.375-13.632813-20.128906-23.152344-36.144531-23.152344-22.054688 0-40 17.945312-40 40s17.945312 40 40 40 40-17.945312 40-40c0-.441406-.121094-.855469-.128906-1.296875l36.976562-8.765625c12.609375 38.308594 48.671875 66.0625 91.152344 66.0625 52.9375 0 96-43.0625 96-96 0-16.414062-4.152344-31.871094-11.449219-45.390625l46.992188-30.554687c7.265625 7.359374 17.328125 11.945312 28.457031 11.945312 22.054688 0 40-17.945312 40-40s-17.945312-40-40-40-40 17.945312-40 40c0 5.167969 1.0625 10.078125 2.855469 14.617188l-47.101563 30.621093c-9.425781-12.117187-21.664062-21.902343-35.753906-28.398437l39.046875-108.246094c7.96875 2.148438 16.3125 3.40625 24.953125 3.40625zm-152-128c-13.230469 0-24-10.769531-24-24s10.769531-24 24-24 24 10.769531 24 24-10.769531 24-24 24zm-216-24c0-13.230469 10.769531-24 24-24s24 10.769531 24 24-10.769531 24-24 24-24-10.769531-24-24zm24 336c-13.230469 0-24-10.769531-24-24s10.769531-24 24-24 24 10.769531 24 24-10.769531 24-24 24zm72 72c-13.230469 0-24-10.769531-24-24s10.769531-24 24-24 24 10.769531 24 24-10.769531 24-24 24zm328-192c13.230469 0 24 10.769531 24 24s-10.769531 24-24 24-24-10.769531-24-24 10.769531-24 24-24zm-103.113281-95.488281c3.570312-18.503907 19.882812-32.511719 39.113281-32.511719h16c19.230469 0 35.542969 14.007812 39.113281 32.511719-13.234375 9.6875-29.488281 15.488281-47.113281 15.488281s-33.878906-5.800781-47.113281-15.488281zm47.113281-48.511719c-13.230469 0-24-10.769531-24-24s10.769531-24 24-24 24 10.769531 24 24-10.769531 24-24 24zm0-96c44.113281 0 80 35.886719 80 80 0 20-7.433594 38.273438-19.617188 52.3125-5.605468-14.761719-17.292968-26.542969-31.855468-32.359375 7.082031-7.21875 11.472656-17.074219 11.472656-27.953125 0-22.054688-17.945312-40-40-40s-40 17.945312-40 40c0 10.878906 4.390625 20.734375 11.472656 27.953125-14.5625 5.816406-26.25 17.597656-31.855468 32.359375-12.183594-14.039062-19.617188-32.3125-19.617188-52.3125 0-44.113281 35.886719-80 80-80zm-344 192c0-44.113281 35.886719-80 80-80s80 35.886719 80 80c0 20.0625-7.480469 38.382812-19.726562 52.441406-5.585938-14.816406-17.296876-26.65625-31.898438-32.488281 7.074219-7.21875 11.464844-17.074219 11.464844-27.953125 0-22.054688-17.945313-40-40-40-22.054688 0-40 17.945312-40 40 0 10.878906 4.390625 20.734375 11.472656 27.953125-14.519531 5.789063-26.191406 17.527344-31.816406 32.230469-12.113282-14.023438-19.496094-32.238282-19.496094-52.183594zm55.839844-8c0-13.230469 10.769531-24 24-24 13.230468 0 24 10.769531 24 24s-10.769532 24-24 24c-13.230469 0-24-10.769531-24-24zm-23.085938 72.40625c3.605469-18.453125 19.894532-32.40625 39.085938-32.40625h16c19.265625 0 35.609375 14.054688 39.128906 32.617188-13.207031 9.628906-29.410156 15.382812-46.96875 15.382812-17.6875 0-33.992188-5.839844-47.246094-15.59375zm160 176c3.605469-18.453125 19.894532-32.40625 39.085938-32.40625h16c19.265625 0 35.609375 14.054688 39.128906 32.617188-13.207031 9.628906-29.410156 15.382812-46.96875 15.382812-17.6875 0-33.992188-5.839844-47.246094-15.59375zm47.085938-48.40625c-13.230469 0-24-10.769531-24-24s10.769531-24 24-24c13.230468 0 24 10.769531 24 24s-10.769532 24-24 24zm80.160156-16c0 20.0625-7.480469 38.382812-19.726562 52.441406-5.585938-14.816406-17.296876-26.65625-31.898438-32.488281 7.074219-7.21875 11.464844-17.074219 11.464844-27.953125 0-22.054688-17.945313-40-40-40-22.054688 0-40 17.945312-40 40 0 10.878906 4.390625 20.734375 11.472656 27.953125-14.519531 5.789063-26.191406 17.527344-31.816406 32.230469-12.113282-14.023438-19.496094-32.238282-19.496094-52.183594 0-44.113281 35.886719-80 80-80s80 35.886719 80 80zm-55.046875-92.59375c-7.96875-2.148438-16.3125-3.40625-24.953125-3.40625-21.953125 0-42.144531 7.488281-58.335938 19.9375l-31.488281-34.640625c15.96875-17.152344 25.824219-40.066406 25.824219-65.296875 0-10.480469-1.742188-20.542969-4.863281-29.992188l87.984375-37.289062c9.855468 18.632812 25.671875 33.585938 44.886718 42.441406zm0 0" fill="#0d2c33"/></svg>