<svg xmlns="http://www.w3.org/2000/svg" width="438.001" height="494.034" viewBox="0 0 438.001 494.034"><defs><style>.a{fill:#0a51d6;}.b{fill:#5f96fc;}.c{fill:#3175f5;}.d{fill:#065bfa;}</style></defs><g transform="translate(-0.229 0.001)"><g transform="translate(178.589 206.564)"><g transform="translate(0 0)"><path class="a" d="M615.679,206.193l137.334-79.448c2.718-1.571,4-3.673,4.042-5.871l.071.056-.015-36.135s-4.81,4.037-7.644,6.406l-86.7-49.958c-7.053-4.067-17.719-4.5-23.822-.97L507.675,116.21l-10.17-5.861-.005,36.276.061-.045c.066,2.663,1.976,5.446,5.77,7.634l88.523,51.009C598.91,209.29,609.576,209.719,615.679,206.193Z" transform="translate(-497.488 -22.221)"/><path class="b" d="M663.45,91.2l-86.7-49.963c-7.053-4.062-17.719-4.5-23.822-.965l-34.2,19.79V208.548a21.522,21.522,0,0,0,10.939-2.354L667,126.745c2.718-1.571,4-3.673,4.042-5.871l.071.056-.015-36.135S666.285,88.832,663.45,91.2Z" transform="translate(-411.473 -22.221)"/><path class="c" d="M501.615,116.617,638.954,37.169c6.1-3.527,16.769-3.092,23.822.97L751.3,89.148c7.053,4.067,7.826,10.221,1.723,13.753L615.682,182.349c-6.1,3.527-16.769,3.1-23.822-.97L503.338,130.37C496.28,126.3,495.512,120.149,501.615,116.617Z" transform="translate(-497.497 -34.784)"/></g></g><g transform="translate(0.229 307.675)"><g transform="translate(0 0)"><path class="a" d="M615.679,206.193l137.334-79.448c2.718-1.571,4-3.673,4.042-5.871l.071.056-.015-36.135s-4.81,4.037-7.644,6.406l-86.7-49.958c-7.053-4.067-17.719-4.5-23.822-.97L507.675,116.21l-10.17-5.861-.005,36.276.061-.045c.066,2.663,1.976,5.446,5.77,7.634l88.523,51.009C598.91,209.29,609.576,209.719,615.679,206.193Z" transform="translate(-497.488 -22.221)"/><path class="b" d="M663.45,91.2l-86.7-49.963c-7.053-4.062-17.719-4.5-23.822-.965l-34.2,19.79V208.548a21.522,21.522,0,0,0,10.939-2.354L667,126.745c2.718-1.571,4-3.673,4.042-5.871l.071.056-.015-36.135S666.285,88.832,663.45,91.2Z" transform="translate(-411.473 -22.221)"/><path class="c" d="M501.615,116.617,638.954,37.169c6.1-3.527,16.769-3.092,23.822.97L751.3,89.148c7.053,4.067,7.826,10.221,1.723,13.753L615.682,182.349c-6.1,3.527-16.769,3.1-23.822-.97L503.338,130.37C496.28,126.3,495.512,120.149,501.615,116.617Z" transform="translate(-497.497 -34.784)"/></g></g><path class="a" d="M73.8,0h0a73.8,73.8,0,0,1,73.8,73.8v54.218a51.912,51.912,0,0,1-51.912,51.912H51.912A51.912,51.912,0,0,1,0,128.021V73.8A73.8,73.8,0,0,1,73.8,0Z" transform="translate(52.573 189.585)"/><path class="a" d="M73.8,0h0a73.8,73.8,0,0,1,73.8,73.8v54.218a51.912,51.912,0,0,1-51.912,51.912H51.912A51.912,51.912,0,0,1,0,128.021V73.8A73.8,73.8,0,0,1,73.8,0Z" transform="translate(234.478 106.316)"/><path class="d" d="M54,0H69.139a38,38,0,0,1,38,38V99.091a48,48,0,0,1-48,48H21a21,21,0,0,1-21-21V54A54,54,0,0,1,54,0Z" transform="translate(93.038 222.426)"/><path class="d" d="M54,0H69.139a38,38,0,0,1,38,38v64.091a45,45,0,0,1-45,45H21a21,21,0,0,1-21-21V54A54,54,0,0,1,54,0Z" transform="translate(274.943 139.157)"/><ellipse class="a" cx="67.596" cy="67.596" rx="67.596" ry="67.596" transform="translate(56.586 83.268)"/><ellipse class="a" cx="67.596" cy="67.596" rx="67.596" ry="67.596" transform="translate(238.491 -0.001)"/><ellipse class="d" cx="56.907" cy="56.178" rx="56.907" ry="56.178" transform="translate(77.962 100.347)"/><ellipse class="d" cx="56.907" cy="56.178" rx="56.907" ry="56.178" transform="translate(259.868 16.259)"/></g></svg>