<svg xmlns="http://www.w3.org/2000/svg" xmlns:xlink="http://www.w3.org/1999/xlink" width="909" height="557" viewBox="0 0 909 557"><defs><style>.a{fill:#fff;stroke:#707070;}.b,.k{fill:none;}.c{clip-path:url(#a);}.d{fill:#0a51d6;}.e{fill:#c98b0e;}.f{fill:#1354a4;}.g{fill:#1f74b4;}.h{fill:#065bfa;}.i{fill:#ffca00;}.j{fill:#fdb100;}.k{stroke:#000;stroke-miterlimit:10;stroke-width:0.816px;}.l{clip-path:url(#b);}.m{fill:#123a75;}.n{fill:#699cfc;}</style><clipPath id="a"><rect class="a" width="909" height="557" transform="translate(1124 203)"/></clipPath><clipPath id="b"><path class="b" d="M-3910-115v85.53c0,62.918,218.727,62.918,218.727,0v-76.064l-85.191,38.877Z" transform="translate(3910 115)"/></clipPath></defs><g class="c" transform="translate(-1124 -203)"><g transform="translate(1276.789 203.002)"><path class="d" d="M-3910-115v85.53c0,62.918,218.727,62.918,218.727,0v-76.064l-85.191,38.877Z" transform="translate(3976.937 236.702)"/><path class="e" d="M-3854.133,15.194c0,.622-.873,1.2-2.367,1.684V13.51C-3855.006,13.99-3854.133,14.572-3854.133,15.194Z" transform="translate(3959.609 195.081)"/><path class="f" d="M-3541.616-187v18.255L-3712-89.638v-18.255Z" transform="translate(3912.809 260.021)"/><path class="g" d="M-3808.19-104.978v18.255L-4009-159.745V-178Z" transform="translate(4009 257.106)"/><path class="h" d="M-4009-215.893l200.81,73.022,170.383-79.107L-3838.616-295Z" transform="translate(4009 294.999)"/><path class="i" d="M-3758.627-176.909l-100.932,45.172a14.534,14.534,0,0,0-8.6,13.266V-49.8a24.71,24.71,0,0,1-4.152.872,56.306,56.306,0,0,1-7.68.487,57.306,57.306,0,0,1-7.566-.467,21.856,21.856,0,0,1-4.942-1.136v-81.122a14.543,14.543,0,0,1,8.35-13.157l95.1-44.753C-3764.036-199.9-3747.81-180.965-3758.627-176.909Z" transform="translate(3971.269 261.761)"/><path class="e" d="M-3893.08,13.968a1.872,1.872,0,0,0,.585,1.611c1.182.8,5.225,1.55,11.923,1.55s11.832-.178,11.832-3.619c.874.324.729,1.684.729,1.684l-.729,1.684-13.454,3.292-9.026-1.933-3.07-1.359Z" transform="translate(3971.848 195.081)"/><path class="j" d="M-3865.9,22.085c0,1.684-7.707,3.043-15.55,3.043S-3897,23.769-3897,22.085l.237-1.062.013-.054,1.1-4.97c0,.521.615,1.014,1.69,1.44a21.858,21.858,0,0,0,4.943,1.136,57.3,57.3,0,0,0,7.566.467,56.324,56.324,0,0,0,7.68-.487,24.7,24.7,0,0,0,4.151-.872c1.495-.48,2.367-1.062,2.367-1.684l1.292,5.821.02.081Z" transform="translate(3972.727 194.274)"/><path class="i" d="M-3861.467,61.761c0,14.388-50.032,14.388-50.032,0l9.8-36.849h0c0,1.684,7.708,3.043,15.55,3.043s15.552-1.359,15.552-3.043l-.041-.183C-3870.216,26.4-3863.434,53.249-3861.467,61.761Z" transform="translate(3977.422 191.447)"/><path class="k" d="M-3851.09,24.61l.02.081" transform="translate(3957.857 191.486)"/><g transform="translate(66.936 121.702)"><g class="l"><path class="m" d="M-3743.37-110.451c-41.664,58.609,0,113.068,0,113.068l124.118,5.959-8.841-170.2Z" transform="translate(3862.03 130.101)"/></g></g></g><g transform="translate(1276.789 439)"><path class="n" d="M243.537,65.064l1.885,1.105L919.876,460.8l-14.924-.058-661.43-387L42.762,189.984,39.005,183.5Z" transform="translate(217.771 -52.064)"/><path class="n" d="M266.063,258.939,452.227,151.452,266.071,43.972,79.915,151.452ZM437.248,151.452,266.063,250.285,94.9,151.452,266.071,52.627Z" transform="translate(-79.915 41.121)"/></g></g></svg>