<svg xmlns="http://www.w3.org/2000/svg" width="86" height="86" viewBox="0 0 86 86"><defs><style>.a{fill:#065bfa;}.b{fill:none;stroke:#065bfa;stroke-linecap:round;stroke-linejoin:round;stroke-width:6px;}</style></defs><g transform="translate(2.988 3)"><g transform="translate(30.684 32.143)"><path class="a" d="M330.494,252.96c-.128.381-.236.771-.387,1.143-1.735,4.307-3.461,8.616-5.228,12.908a2.6,2.6,0,0,0,.014,2.165,8.734,8.734,0,0,1-1.472,9.59,8.594,8.594,0,0,1-9.4,2.793,8.686,8.686,0,0,1-6.5-7.2,9.024,9.024,0,0,1,9.368-10.654,3.794,3.794,0,0,0,3.093-1.219c3.172-3.032,6.389-6.02,9.593-9.019.233-.219.5-.4.745-.6Zm-20.173,19.83a6.219,6.219,0,1,0,6.268-6.274A6.224,6.224,0,0,0,310.321,272.789Z" transform="translate(-307.375 -252.86)"/></g><circle class="b" cx="40" cy="40" r="40" transform="translate(0.012 0)"/><path class="b" d="M292.862,264.77a27.092,27.092,0,1,1,54.176,0" transform="translate(-279.989 -224.473)"/></g></svg>