<svg xmlns="http://www.w3.org/2000/svg" xmlns:xlink="http://www.w3.org/1999/xlink" width="450" height="571" viewBox="0 0 450 571"><defs><style>.a{fill:#f7f5f5;}.b{font-size:24px;font-family:Montserrat-Regular, Montserrat;}.c{fill:#065bfa;}.d{opacity:0.1;}.e{fill:#003057;}.f{filter:url(#a);}</style><filter id="a" x="0" y="0" width="450" height="571" filterUnits="userSpaceOnUse"><feOffset dy="3" input="SourceAlpha"/><feGaussianBlur stdDeviation="10" result="b"/><feFlood flood-opacity="0.161"/><feComposite operator="in" in2="b"/><feComposite in="SourceGraphic"/></filter></defs><g transform="translate(-257 -3107)"><g transform="translate(287.44 3134.16)"><g class="f" transform="matrix(1, 0, 0, 1, -30.44, -27.16)"><rect class="a" width="390" height="511" rx="24" transform="translate(30 27)"/></g><text class="b" transform="translate(32.561 243.84)"><tspan x="0" y="0">Open Education Analytics</tspan><tspan x="0" y="38">Data and AI Use Case</tspan></text></g><path class="c" d="M86.772-1.224l.119,64.552A25.037,25.037,0,0,1,61.855,88.364H0Z" transform="translate(589.891 3556.796)"/><path class="d" d="M3.157,0C-2.065,29.91-.461,49.89,5.42,63.377,24.1,106.246,87.59,75.265,99.176,80.059A976.029,976.029,0,0,1,3.157,0Z" transform="translate(677 3552.512) rotate(94)"/><path class="e" d="M0,0C6.022,86.125,38.986,58.561,96.008,80.059Z" transform="translate(676.78 3555.661) rotate(94)"/></g></svg>